<svg xmlns="http://www.w3.org/2000/svg" width="207.698" height="501.48" viewBox="0 0 207.698 501.48">
  <defs>
    <style>
      .cls-1, .cls-7 {
        fill: #25266e;
      }

      .cls-1, .cls-2, .cls-3 {
        fill-rule: evenodd;
      }

      .cls-2 {
        fill: #151650;
      }

      .cls-3 {
        fill: #060616;
      }

      .cls-4 {
        fill: #fff;
      }

      .cls-5 {
        fill: #c4c3c3;
      }

      .cls-6 {
        fill: #900910;
      }
    </style>
  </defs>
  <g id="Groupe_53" data-name="Groupe 53" transform="translate(-829.817 -262)">
    <g id="Groupe_2" data-name="Groupe 2" transform="translate(829.817 262)">
      <g id="Groupe_1" data-name="Groupe 1" transform="translate(0 0)">
        <path id="Tracé_1" data-name="Tracé 1" class="cls-1" d="M1316.787-134.413c-22.017-.722-32.127-1.025-36.126-1.149s-6.412.727-7.009,2.79-1.815,8.352-3.151,12.588-1.088,5.321-1.7,6.892-2.3,4.962-3.271,8.107-1.324,9.682-2.053,15.37-2.184,17.79-2.79,22.028-4.359,20.815-5.087,30.258,1.207,21.3,1.207,33.642-2.175,38.73-1.685,52.514,2.174,48.167,2.661,68.256.24,41.147,2.664,66.563,2.9,44.778,2.9,57.362,2.661,21.787,4.119,35.339,4.776,39.028,5.744,50.166,1.456,12.459,1.336,17.909.6,6.651,2.055,11.008a29.1,29.1,0,0,0,5.264,8.775c.668.853.908.853,2.3,1.094a44.761,44.761,0,0,0,6.781.178c5.252.059,22.2.543,27.89.609a73.946,73.946,0,0,0,8.227-.3,2.2,2.2,0,0,0,2.244-.967c.479-.966,3.261-7.384,4.1-9.986s.985-8.894.548-16.46-1.149-20.209-1.64-25.656.119-29.649-.6-41.267,2.174-36.067,2.414-49.135,2.424-54.213,2.182-67.526,1.937-28.8,3.141-43.324.985-29.046,2.185-45.021,6.236-31.888,7.688-38.426,4.228-11.008,5.2-15.246,1.823-5.689,2.422-6.052a3.492,3.492,0,0,1,3.889,0c.6.363,1.446,1.815,2.412,6.052s3.76,8.716,5.206,15.246,6.482,22.447,7.688,38.426.967,30.5,2.175,45.021,3.388,30.011,3.151,43.324,1.934,54.459,2.172,67.526,3.152,37.518,2.424,49.135-.119,35.818-.6,41.267-1.216,18.094-1.641,25.656-.308,13.858.539,16.46,3.629,9.026,4.117,9.986a2.193,2.193,0,0,0,2.243.967,73.944,73.944,0,0,0,8.226.3c5.685-.065,22.626-.55,27.891-.609a44.442,44.442,0,0,0,6.771-.178c1.4-.24,1.641-.24,2.3-1.094a29.1,29.1,0,0,0,5.264-8.775c1.456-4.357,2.175-5.563,2.055-11.008s.368-6.781,1.336-17.909,4.288-36.615,5.744-50.166,4.119-22.75,4.119-35.339.477-31.948,2.9-57.361,2.174-46.472,2.662-66.564,2.174-54.461,2.663-68.256-1.7-40.176-1.7-52.514,1.935-24.205,1.208-33.642-4.478-26.026-5.076-30.258-2.064-16.338-2.79-22.028-1.087-12.224-2.054-15.37-2.662-6.531-3.261-8.107-.369-2.661-1.7-6.892-2.544-10.529-3.151-12.588-3.021-2.9-7.02-2.79-14.1.429-36.127,1.149C1374.971-133.554,1342.837-133.554,1316.787-134.413Z" transform="translate(-1255.053 135.573)"/>
        <path id="Tracé_3" data-name="Tracé 3" class="cls-2" d="M1338.76,413.051l2.313.036a73.954,73.954,0,0,0,8.227-.306,2.2,2.2,0,0,0,2.244-.966c.479-.966,3.261-7.384,4.1-9.986s.985-8.894.548-16.46-1.149-20.209-1.641-25.656.12-29.649-.6-41.266,2.175-36.067,2.415-49.135,2.424-54.212,2.183-67.525,1.936-28.8,3.14-43.324.985-29.047,2.185-45.021,6.236-31.887,7.688-38.426,4.228-11.008,5.2-15.246,1.824-5.689,2.422-6.052a3.492,3.492,0,0,1,3.889,0c.6.363,1.446,1.815,2.412,6.052s3.76,8.716,5.206,15.246,6.483,22.446,7.689,38.426.966,30.5,2.174,45.021,3.389,30.01,3.151,43.324,1.935,54.459,2.172,67.525,3.152,37.519,2.424,49.135-.12,35.818-.6,41.266-1.216,18.094-1.641,25.656-.309,13.858.538,16.46,3.63,9.026,4.117,9.986a2.192,2.192,0,0,0,2.243.966,73.775,73.775,0,0,0,8.227.306l2.313-.036c-2.114-6-5-15.3-3.61-20.786,1.567-6.168-.12-7.259-.727-10.524s.36-2.907,1.087-8.836-2.782-4.477-2.9-7.385,2.353-11.8,2.6-24.141,1.445-19.365,0-30.253-3.391-16.217-3.63-28.319,1.935-21.783,2.9-29.539-1.7-15.974-2.184-23.234-1.446-11.623-1.684-25.173a268.094,268.094,0,0,0-2.184-29.531c-.966-8.709-3.141-19.607-4.595-31.709s-.24-26.38-.727-36.305a146.4,146.4,0,0,0-4.726-28.2c-1.7-5.927-2.544-10.286-4.229-15.37a91.157,91.157,0,0,0-6.542-13.8c-5.594-10.6-16.981-10.365-22.584.245a84.972,84.972,0,0,0-5.684,13.432c-1.7,5.088-3.271,9.563-4.966,15.49a146.32,146.32,0,0,0-4.717,28.2c-.493,9.926.729,24.206-.729,36.305s-3.63,23-4.607,31.709a271.728,271.728,0,0,0-2.175,29.531c-.238,13.55-1.2,17.908-1.695,25.173s-3.14,15.486-2.172,23.234,3.141,17.427,2.9,29.539-2.184,17.425-3.629,28.319-.238,17.909,0,30.253,2.722,21.235,2.6,24.141-3.63,1.456-2.9,7.385,1.7,5.57,1.088,8.836-2.3,4.357-.728,10.524C1343.765,397.755,1340.874,407.055,1338.76,413.051Z" transform="translate(-1277.285 88.38)"/>
        <path id="Tracé_4" data-name="Tracé 4" class="cls-3" d="M1349.039,415.233c1.754-.1,2.562-.22,2.991-.22a2.2,2.2,0,0,0,2.244-.966c.48-.966,3.261-7.384,4.1-9.986s.985-8.894.548-16.46-1.149-20.209-1.641-25.656.12-29.649-.6-41.266,2.174-36.067,2.414-49.135,2.424-54.213,2.183-67.526,1.936-28.8,3.141-43.324.984-29.046,2.184-45.021,6.236-31.887,7.688-38.426,4.228-11.008,5.2-15.246,1.824-5.689,2.423-6.052a3.533,3.533,0,0,1,3.889,0c.6.363,1.446,1.815,2.412,6.052s3.76,8.716,5.206,15.246,6.483,22.447,7.689,38.426.966,30.5,2.175,45.021,3.388,30.01,3.15,43.324,1.935,54.459,2.173,67.526,3.15,37.518,2.423,49.135-.12,35.818-.6,41.266-1.216,18.1-1.641,25.656-.309,13.858.538,16.46,3.63,9.026,4.117,9.986a2.192,2.192,0,0,0,2.243.966c.43,0,1.238.125,2.991.22-.577-3.5-3.209-7.549-4.665-11.566a10.735,10.735,0,0,1,.4-8.477c1.267-3.576.907-4.3-.191-7.02s-.807-5.2.868-9.026a4.431,4.431,0,0,0-.477-5.184c-1.7-1.575-1.756-3.845-1.168-12.32.729-10.406.729-22.388,1.935-32.553s1.695-15.736,0-23.478a130.214,130.214,0,0,1-3.261-30.617c0-14.278,3.021-19.847,1.088-28.565s-.968-13.556-2.424-23.478-1.086-23.477-1.086-32.188-2.185-18.881-2.662-26.384-3.023-22.087-2.543-31.287,2.482-22.868.548-29.769c-1.446-5.125-4.02-11.461-5.252-16.312-1.555-6.149-2.625-11.419-4.807-18.42-1.336-4.306-1.175-6.564-3.648-11.346-4.628-8.971-10.352-8.971-14.988,0-2.461,4.775-2.3,7.04-3.65,11.346-2.163,7-3.241,12.27-4.8,18.42-1.226,4.851-3.809,11.187-5.251,16.312-1.935,6.9.059,20.571.549,29.769s-2.054,23.782-2.543,31.287-2.662,17.669-2.662,26.384.36,22.268-1.086,32.188-.492,14.77-2.424,23.478,1.086,14.278,1.086,28.565a130.214,130.214,0,0,1-3.271,30.617c-1.686,7.742-1.207,13.312,0,23.478s1.216,22.147,1.945,32.553c.587,8.474.528,10.744-1.177,12.32a4.432,4.432,0,0,0-.469,5.184c1.676,3.819,1.955,6.292.859,9.026s-1.447,3.446-.179,7.02a10.735,10.735,0,0,1,.4,8.477C1352.251,407.684,1349.618,411.732,1349.039,415.233Z" transform="translate(-1280.015 86.148)"/>
        <path id="Tracé_5" data-name="Tracé 5" class="cls-2" d="M1435.482-135.508l1.666-.054c4-.115,6.412.727,7.021,2.79s1.815,8.351,3.151,12.588,1.086,5.32,1.695,6.892,2.3,4.961,3.261,8.107,1.336,9.682,2.055,15.37,2.183,17.789,2.79,22.028,4.357,20.815,5.075,30.258-1.207,21.3-1.207,33.642,2.184,38.73,1.7,52.514-2.175,48.167-2.664,68.255-.24,41.147-2.662,66.564-2.9,44.778-2.9,57.362-2.663,21.787-4.118,35.339-4.776,39.028-5.744,50.166-1.456,12.458-1.336,17.908-.6,6.652-2.055,11.009a29.1,29.1,0,0,1-5.265,8.775c-.668.853-.907.853-2.3,1.093a23.613,23.613,0,0,1-4.457.165c1.367-4.382,3.162-10.73,3.919-12.809,2.023-5.514,5.206-6-.668-8.671-8.186-3.7-4.8-5.319.492-8.749a7.386,7.386,0,0,0,3.32-9.449c-1.694-4.959-.727-6.53.848-9.313a22.624,22.624,0,0,0,3.151-15.011c-1.218-6.533-.609-16.338,1.207-21.17a30.789,30.789,0,0,0,2.2-16.575,72.51,72.51,0,0,1,1.313-22.614,55.957,55.957,0,0,0,.229-19.515c-1.447-9.92,1.456-19.365,2.662-27.6s4-16.575.369-23.353.119-12.948,1.575-22.155,3.362-9.088.847-18.033-2.023-11.955.6-20.94a53.794,53.794,0,0,0,1.705-23.7c-.967-8.47-2.79-20.7.727-30.014s3.71-11.228,2.054-17.182c-3-10.813-2.742-13.456-1.086-24.879a43.15,43.15,0,0,0,0-15.3c-1.935-9.439-.469-13.273.179-18.215s1.516-10.105.06-14.707-1.655-9.074-1.087-16.219-.788-21-2.6-26.8-2.823-10.175-2.664-13.8a34.636,34.636,0,0,0-3.141-14.041c-2.412-4.631-6.989-2.691-12.464-1.954-4.467.609-14.1,3.689-21.837,5.266s-16.523,4.594-25.478,5.872-9.981,2.054-13.919,2.3-8.557,1.446-11.009,1.213-8.656-.67-14.35-1.088a149.868,149.868,0,0,1-23.467-4.357c-10.959-2.663-12.045-3.635-16.7-4.363s-7.329-1.571-11.258-2.479-8.026-1.805-11.979-2.356c-5.595-.795-8.018-2.839-10.621,2.676a33.225,33.225,0,0,0-3.021,13.313c.164,3.61-.847,7.987-2.662,13.8s-3.173,19.668-2.6,26.8.359,11.62-1.087,16.219-.6,9.768.049,14.707,2.124,8.775.189,18.215a43.465,43.465,0,0,0-.01,15.3c1.666,11.413,1.925,14.065-1.077,24.879-1.656,5.954-1.456,7.877,2.055,17.182s1.695,21.544.727,30.013a53.82,53.82,0,0,0,1.695,23.717c2.625,8.985,3.118,12,.6,20.94s-.6,8.836.847,18.034,5.206,15.367,1.575,22.154-.847,15.126.359,23.353,4.119,17.676,2.673,27.6a55.676,55.676,0,0,0,.23,19.515,72.219,72.219,0,0,1,1.3,22.615,30.794,30.794,0,0,0,2.214,16.575c1.815,4.836,2.424,14.641,1.206,21.169a22.623,22.623,0,0,0,3.151,15.011c1.575,2.789,2.534,4.354.848,9.313a7.384,7.384,0,0,0,3.312,9.449c5.3,3.43,8.7,5.047.508,8.749-5.871,2.668-2.692,3.157-.678,8.671.768,2.079,2.561,8.427,3.929,12.809a23.84,23.84,0,0,1-4.468-.165c-1.386-.239-1.626-.239-2.3-1.093a29.119,29.119,0,0,1-5.265-8.775c-1.456-4.357-2.184-5.563-2.054-11.008s-.368-6.781-1.336-17.909-4.3-36.616-5.744-50.166-4.119-22.75-4.119-35.339-.492-31.948-2.9-57.362-2.184-46.472-2.663-66.564-2.183-54.46-2.662-68.255,1.686-40.176,1.686-52.514-1.925-24.205-1.206-33.642,4.476-26.026,5.087-30.258,2.053-16.338,2.789-22.028,1.1-12.224,2.053-15.37,2.673-6.532,3.271-8.107.369-2.661,1.7-6.892,2.542-10.529,3.151-12.588,3.021-2.9,7.009-2.79l1.675.054c-2.094,5.264-1.64,10.719-3.131,13.632-2.434,4.716-3.56,9,1.336,9.786a74.763,74.763,0,0,1,7.51,1.785c13.31,3.629,38.12,9.438,47.919,11.618a115.314,115.314,0,0,0,46.508,0c9.8-2.18,34.61-7.989,47.932-11.618,2.344-.643,4.646-1.186,6.86-1.649,1.994-.424,3.051-.933,3.419-3.636.35-2.518-.587-3.4-2.084-6.286C1437.108-124.789,1437.578-130.244,1435.482-135.508Z" transform="translate(-1255.057 135.573)"/>
        <path id="Tracé_6" data-name="Tracé 6" class="cls-3" d="M1325.913-133.108c-8.834-.358-18.1-.786-22.515-.842s-11.3-.593-14.469-.558a10.9,10.9,0,0,0-5.325.873c-.787.452-1.066,1.149,1.746,1.641s9.922,1.785,13.89,2.3,7.929,1.577,14.278,3.087,14.589,2.842,22.934,4.657,15.736,3.57,21.419,4.357a49.919,49.919,0,0,0,16.952,0c5.684-.787,13.063-2.543,21.42-4.357s16.575-3.145,22.933-4.657,10.311-2.573,14.278-3.087,11.069-1.805,13.89-2.3,2.532-1.182,1.747-1.641a10.941,10.941,0,0,0-5.325-.873c-3.172-.035-10.061.492-14.479.558s-13.67.484-22.505.842C1382.1-132.091,1350.593-132.091,1325.913-133.108Z" transform="translate(-1262.493 135.301)"/>
        <path id="Tracé_7" data-name="Tracé 7" class="cls-3" d="M1274.151-107.162a7.878,7.878,0,0,1-.388,1.416l-.04.115a134.224,134.224,0,0,1,18.957,3.64c13.322,3.628,38.132,9.438,47.931,11.617a115.291,115.291,0,0,0,46.509,0c9.8-2.179,34.612-7.989,47.919-11.617a134.354,134.354,0,0,1,18.965-3.64l-.039-.115a7.257,7.257,0,0,1-.389-1.416,133.257,133.257,0,0,0-18.936,3.7c-15.725,4.29-31.939,8.063-47.854,11.6a113.235,113.235,0,0,1-45.848,0c-15.918-3.535-32.127-7.307-47.853-11.6A133.149,133.149,0,0,0,1274.151-107.162Z" transform="translate(-1260.011 128.027)"/>
        <path id="Tracé_8" data-name="Tracé 8" class="cls-3" d="M1285.535,535.536c.27.582.56,1.149.859,1.67a126.511,126.511,0,0,0,13.721.821c6.728,0,13.4.657,20.132.492,5.834-.145,12.773.364,19.045.044l.679-1.631c-6.2.311-14.2-.079-19.763.061-7.319.178-12.4-.484-20.093-.484A143.525,143.525,0,0,1,1285.535,535.536Z" transform="translate(-1263.149 -42.67)"/>
        <path id="Tracé_9" data-name="Tracé 9" class="cls-3" d="M1487.705,535.536c-.269.582-.569,1.149-.868,1.67a126.136,126.136,0,0,1-13.719.821c-6.729,0-13.393.657-20.123.492-5.834-.145-12.774.364-19.056.044l-.679-1.631c6.213.311,14.211-.079,19.765.061,7.329.178,12.4-.484,20.094-.484A143.493,143.493,0,0,0,1487.705,535.536Z" transform="translate(-1302.383 -42.67)"/>
      </g>
    </g>
    <g id="Composant_1_9" data-name="Composant 1 – 9" transform="translate(869.66 440.447)">
      <g id="Groupe_19" data-name="Groupe 19">
        <path id="Tracé_192" data-name="Tracé 192" class="cls-4" d="M4274.195,1404.3a5.671,5.671,0,0,0,.541-2.436c0-2.834-2.021-5.141-4.507-5.141s-4.506,2.307-4.506,5.141,2.021,5.141,4.506,5.141a4.328,4.328,0,0,0,3.546-1.975Zm-3.948,1.411a3.946,3.946,0,1,1,3.438-3.913A3.7,3.7,0,0,1,4270.247,1405.707Z" transform="translate(-4264.516 -1395.49)"/>
        <path id="Tracé_193" data-name="Tracé 193" class="cls-4" d="M4232.9,1358.7c0-3.5-2.547-6.339-5.687-6.339s-5.687,2.838-5.687,6.339,2.546,6.339,5.687,6.339c.17,0,.336-.01.5-.026h0l-3.578,6.19h1.3l.269-.466a.81.81,0,0,1-.387-.69.8.8,0,0,1,.793-.8.781.781,0,0,1,.393.105l3.778-6.573a4.346,4.346,0,0,1-3.039,1.277c-2.583,0-4.685-2.387-4.685-5.322s2.1-5.322,4.685-5.322,4.685,2.387,4.685,5.322a5.861,5.861,0,0,1-.554,2.507h0l-.01.014c-.123.26-.52.9-.52.9l-4.2,7.292a.812.812,0,0,1,.262.6.8.8,0,0,1-.794.8.765.765,0,0,1-.252-.043l-.229.395h1.235l4.91-8.718a6.246,6.246,0,0,0,.477-.847l.008-.012h0A6.885,6.885,0,0,0,4232.9,1358.7Z" transform="translate(-4221.525 -1352.364)"/>
      </g>
      <g id="Groupe_20" data-name="Groupe 20" transform="translate(3.866 16.959)">
        <path id="Tracé_194" data-name="Tracé 194" class="cls-4" d="M4396.852,1984.6c-.023,0-.044,0-.065,0l-.063.008v.365a.63.63,0,0,0,.063.008c.021,0,.042,0,.065,0,.085,0,.127-.046.127-.138v-.111C4396.979,1984.645,4396.937,1984.6,4396.852,1984.6Z" transform="translate(-4395.806 -1984.047)"/>
        <path id="Tracé_195" data-name="Tracé 195" class="cls-4" d="M4363.836,1964.692a.727.727,0,1,0,.716.727A.723.723,0,0,0,4363.836,1964.692Zm-.294,1.049a.762.762,0,0,1-.259-.037l.033-.106a.753.753,0,0,0,.1.021,1.021,1.021,0,0,0,.125.011c.115,0,.175-.037.175-.11,0-.055-.049-.092-.142-.11-.183-.019-.273-.092-.273-.222,0-.147.1-.221.306-.221a.553.553,0,0,1,.205.034l-.029.1a.575.575,0,0,0-.176-.025c-.119,0-.181.037-.181.11,0,.056.05.093.148.111.18.019.269.092.269.221Q4363.844,1965.741,4363.542,1965.741Zm.623,0a.517.517,0,0,1-.128-.017v.238l-.129.027v-.828a.766.766,0,0,1,.257-.028.223.223,0,0,1,.256.249v.11A.223.223,0,0,1,4364.166,1965.741Z" transform="translate(-4363.12 -1964.692)"/>
      </g>
    </g>
    <g id="Groupe_41" data-name="Groupe 41" transform="translate(979.878 403.708)">
      <path id="Tracé_423" data-name="Tracé 423" class="cls-4" d="M25.856,19.724c-2.458,1.04-6.313,2.234-7.924-.35-.893-1.431-.325-3.661.992-5.686A29.834,29.834,0,0,1,21.937,10c-.607.979-2.295,4.234-.075,5.856.853.627,2.375.692,4.271.2L48.671,10.1Z" transform="translate(-17.499 -9.999)"/>
    </g>
    <g id="Composant_3_21" data-name="Composant 3 – 21" transform="translate(861.788 395.835)">
      <path id="Tracé_165" data-name="Tracé 165" class="cls-4" d="M357.707,58.631c-1.141-.7-8.872-1.307-12.185-1.307s-11.044.605-12.186,1.307a2.421,2.421,0,0,0-1.414,2.5V78.871a11.753,11.753,0,0,0,.369,2.216c.55,1.651,3.359,5.123,7.48,8.305,4.139,3.194,5.053,3.454,5.751,3.454s1.612-.26,5.75-3.454c4.122-3.182,6.93-6.654,7.481-8.305a11.819,11.819,0,0,0,.368-2.216V61.133A2.42,2.42,0,0,0,357.707,58.631Z" transform="translate(-331.922 -57.324)"/>
      <g id="Groupe_12" data-name="Groupe 12" transform="translate(0.535 6.726)">
        <path id="Tracé_166" data-name="Tracé 166" class="cls-5" d="M406.684,129.711v6.329a10.925,10.925,0,0,1,3.265,1.256v-7.1A17.782,17.782,0,0,0,406.684,129.711Z" transform="translate(-395.798 -125.379)"/>
        <path id="Tracé_167" data-name="Tracé 167" class="cls-6" d="M428.337,101.356a44.173,44.173,0,0,0-6.377.225,9.81,9.81,0,0,1,2.9.954l-.729,2.494c.283-.034,1.04-.066,1.318-.09q1.006-.088,2.052-.088,4.1,0,4.1,4.369v3.5q0,4.369-4.1,4.368c-.489,0-.969-.019-1.446-.048a7.061,7.061,0,0,1,.267,1.969,8.582,8.582,0,0,1-.121,1.43,16.209,16.209,0,0,0,2.138.145,8.831,8.831,0,0,0,5.934-1.768,4.221,4.221,0,0,0,.258-.591,11.435,11.435,0,0,0,.341-2.046V103.726Q432.838,101.358,428.337,101.356Z" transform="translate(-408.74 -101.355)"/>
        <path id="Tracé_168" data-name="Tracé 168" class="cls-5" d="M404.621,255.662c1.534,1.035,2.1,1.193,2.494,1.193a3.222,3.222,0,0,0,1.609-.627v-4.692a8.677,8.677,0,0,1-4.1,1.732Z" transform="translate(-394.05 -228.594)"/>
        <path id="Tracé_169" data-name="Tracé 169" class="cls-7" d="M348.818,114.636a10.925,10.925,0,0,0-3.265-1.256,19.669,19.669,0,0,0-2.428-.4q-4.719-.874-4.718-3.5,0-3.5,5.744-3.5c.481,0,.947.016,1.4.043a17.8,17.8,0,0,1,3.265.483c.333.084.762.213,1.076.316l.233-.8.711-2.435a15.568,15.568,0,0,0-3.456-.889,23.04,23.04,0,0,0-3.231-.216q-6.53,0-8.728,3.075v7.612q2.022,2.741,7.7,3.295a10.376,10.376,0,0,1,2.428.733,3.028,3.028,0,0,1,2.086,2.762,2.984,2.984,0,0,1-2.086,2.97,9.49,9.49,0,0,1-3.454.525q-1.908-.072-3.492-.273a36.943,36.943,0,0,0,4.091,3.76,18.71,18.71,0,0,0,2.854-.273,8.679,8.679,0,0,0,4.1-1.732,5.683,5.683,0,0,0,1.965-3.546,8.576,8.576,0,0,0,.121-1.43,7.061,7.061,0,0,0-.267-1.969A5.74,5.74,0,0,0,348.818,114.636Z" transform="translate(-335.423 -102.323)"/>
      </g>
      <g id="Groupe_13" data-name="Groupe 13" transform="translate(9.317 1.622)">
        <path id="Tracé_170" data-name="Tracé 170" class="cls-7" d="M393.869,69.049a.126.126,0,0,1-.03.04.071.071,0,0,1-.042.015.107.107,0,0,1-.056-.014l-.07-.034a.671.671,0,0,0-.092-.032.356.356,0,0,0-.119-.01.26.26,0,0,0-.175.065.178.178,0,0,0-.051.143.131.131,0,0,0,.038.089.286.286,0,0,0,.09.057.8.8,0,0,0,.124.039l.141.036a1.232,1.232,0,0,1,.142.049.483.483,0,0,1,.126.076.382.382,0,0,1,.094.117.429.429,0,0,1,.044.174.57.57,0,0,1-.026.215.5.5,0,0,1-.1.18.524.524,0,0,1-.176.128.68.68,0,0,1-.245.058.792.792,0,0,1-.158-.006.916.916,0,0,1-.154-.035.83.83,0,0,1-.141-.06.6.6,0,0,1-.118-.082l.09-.169a.106.106,0,0,1,.031-.033.085.085,0,0,1,.043-.015.117.117,0,0,1,.066.019l.082.045a.64.64,0,0,0,.107.044.393.393,0,0,0,.143.014.282.282,0,0,0,.182-.067.2.2,0,0,0,.055-.168.153.153,0,0,0-.039-.1.26.26,0,0,0-.089-.06.668.668,0,0,0-.123-.037c-.046-.01-.093-.02-.141-.033a1.151,1.151,0,0,1-.142-.046.431.431,0,0,1-.125-.077.4.4,0,0,1-.094-.125.5.5,0,0,1-.045-.191.462.462,0,0,1,.025-.182.454.454,0,0,1,.1-.161.542.542,0,0,1,.167-.12.64.64,0,0,1,.235-.056.8.8,0,0,1,.28.028.623.623,0,0,1,.224.115Z" transform="translate(-392.914 -68.616)"/>
        <path id="Tracé_171" data-name="Tracé 171" class="cls-7" d="M404.586,68.362l-.485.021.059,1.384-.344.015-.059-1.384-.485.021-.012-.277,1.315-.056Z" transform="translate(-401.679 -68.063)"/>
        <path id="Tracé_172" data-name="Tracé 172" class="cls-7" d="M415.328,69.6l-.267,0a.118.118,0,0,1-.073-.021.129.129,0,0,1-.042-.054l-.115-.316-.662.006-.109.318a.13.13,0,0,1-.04.053.11.11,0,0,1-.072.024l-.269,0,.633-1.669.352,0Zm-.584-.626-.185-.507c-.011-.027-.023-.058-.035-.094s-.024-.075-.035-.117q-.015.064-.032.119c-.012.036-.022.068-.033.095l-.174.508Z" transform="translate(-410.506 -67.941)"/>
        <path id="Tracé_173" data-name="Tracé 173" class="cls-7" d="M429.06,68.885a.894.894,0,0,1-.073.333.764.764,0,0,1-.183.257.785.785,0,0,1-.275.162.94.94,0,0,1-.35.049l-.639-.023L427.6,68l.639.023a.944.944,0,0,1,.346.075.785.785,0,0,1,.262.182.768.768,0,0,1,.163.269A.881.881,0,0,1,429.06,68.885Zm-.353-.013a.755.755,0,0,0-.026-.236.5.5,0,0,0-.092-.18.426.426,0,0,0-.152-.117.529.529,0,0,0-.207-.047l-.293-.011L427.9,69.4l.293.011a.54.54,0,0,0,.21-.031.421.421,0,0,0,.161-.105.5.5,0,0,0,.1-.173A.758.758,0,0,0,428.708,68.872Z" transform="translate(-422.25 -67.991)"/>
        <path id="Tracé_174" data-name="Tracé 174" class="cls-7" d="M441.812,68.9l-.027.426.553.035-.016.26-.553-.035-.027.436.711.044-.017.269-1.057-.066.1-1.659,1.057.066-.017.269Z" transform="translate(-433.976 -68.508)"/>
      </g>
      <g id="Groupe_14" data-name="Groupe 14" transform="translate(3.306 3.9)">
        <path id="Tracé_175" data-name="Tracé 175" class="cls-7" d="M354.116,87.953a.966.966,0,0,1,.3-.011.562.562,0,0,1,.22.075.44.44,0,0,1,.146.147.589.589,0,0,1,.074.2.605.605,0,0,1,0,.228.458.458,0,0,1-.09.193.564.564,0,0,1-.183.147.93.93,0,0,1-.279.09l-.215.037.1.563-.339.059-.283-1.638Zm.141.815a.315.315,0,0,0,.22-.117.3.3,0,0,0,.038-.223.324.324,0,0,0-.038-.108.225.225,0,0,0-.071-.076.257.257,0,0,0-.1-.038.44.44,0,0,0-.14,0l-.215.037.1.558Z" transform="translate(-353.563 -87.159)"/>
        <path id="Tracé_176" data-name="Tracé 176" class="cls-7" d="M366.71,86.859a.919.919,0,0,1-.022.343.791.791,0,0,1-.141.287.8.8,0,0,1-.246.208.97.97,0,0,1-.692.081.806.806,0,0,1-.288-.146.787.787,0,0,1-.2-.247.961.961,0,0,1-.078-.671.79.79,0,0,1,.141-.287.807.807,0,0,1,.247-.208.97.97,0,0,1,.692-.081.785.785,0,0,1,.491.394A.91.91,0,0,1,366.71,86.859Zm-.35.041a.736.736,0,0,0-.061-.229.5.5,0,0,0-.119-.164.428.428,0,0,0-.169-.092.539.539,0,0,0-.212-.014.545.545,0,0,0-.2.063.425.425,0,0,0-.144.129.5.5,0,0,0-.078.187.738.738,0,0,0-.007.237.754.754,0,0,0,.061.23.492.492,0,0,0,.119.163.428.428,0,0,0,.169.091.544.544,0,0,0,.213.014.538.538,0,0,0,.2-.062.428.428,0,0,0,.143-.128.492.492,0,0,0,.078-.186A.75.75,0,0,0,366.36,86.9Z" transform="translate(-363.262 -85.61)"/>
        <path id="Tracé_177" data-name="Tracé 177" class="cls-7" d="M381.412,84.4l.143,1.656-.177.015a.158.158,0,0,1-.068-.007.165.165,0,0,1-.058-.04l-.916-.979c0,.027.008.053.012.078s.006.05.008.072l.083.958-.3.026-.143-1.656.18-.016.037,0a.083.083,0,0,1,.029.006.115.115,0,0,1,.025.014.245.245,0,0,1,.028.025l.922.983c-.006-.029-.01-.057-.014-.083s-.007-.052-.009-.077l-.082-.947Z" transform="translate(-375.956 -84.16)"/>
        <path id="Tracé_178" data-name="Tracé 178" class="cls-7" d="M394.983,83.8l-.485.031.087,1.383-.344.022-.088-1.382-.485.031-.018-.277,1.314-.083Z" transform="translate(-387.528 -83.425)"/>
        <path id="Tracé_179" data-name="Tracé 179" class="cls-7" d="M407.158,84.881l-.346.015-.072-1.661.346-.015Z" transform="translate(-398.617 -83.164)"/>
        <path id="Tracé_180" data-name="Tracé 180" class="cls-7" d="M414.55,83.183a.132.132,0,0,1-.032.039.072.072,0,0,1-.043.013.1.1,0,0,1-.055-.017l-.069-.037a.667.667,0,0,0-.09-.037.355.355,0,0,0-.118-.016.261.261,0,0,0-.178.056.177.177,0,0,0-.057.14.13.13,0,0,0,.034.09.283.283,0,0,0,.087.061.8.8,0,0,0,.122.045q.068.019.139.043a1.221,1.221,0,0,1,.14.055.489.489,0,0,1,.122.082.384.384,0,0,1,.088.122.429.429,0,0,1,.036.177.571.571,0,0,1-.036.213.5.5,0,0,1-.111.175.528.528,0,0,1-.182.119.681.681,0,0,1-.247.047.785.785,0,0,1-.158-.013.918.918,0,0,1-.152-.042.841.841,0,0,1-.138-.066.606.606,0,0,1-.114-.087l.1-.164a.1.1,0,0,1,.033-.031.084.084,0,0,1,.043-.013.119.119,0,0,1,.066.022l.08.049a.656.656,0,0,0,.1.049.39.39,0,0,0,.142.02.282.282,0,0,0,.185-.058.2.2,0,0,0,.063-.165.153.153,0,0,0-.034-.1.26.26,0,0,0-.086-.064.683.683,0,0,0-.121-.043q-.068-.018-.139-.039a1.145,1.145,0,0,1-.139-.053.423.423,0,0,1-.122-.083.4.4,0,0,1-.088-.129.5.5,0,0,1-.036-.193.46.46,0,0,1,.138-.337.54.54,0,0,1,.173-.112.638.638,0,0,1,.237-.045.8.8,0,0,1,.279.042.622.622,0,0,1,.218.125Z" transform="translate(-404.376 -82.853)"/>
        <path id="Tracé_181" data-name="Tracé 181" class="cls-7" d="M424.989,83.266a.132.132,0,0,1-.034.038.071.071,0,0,1-.043.011.105.105,0,0,1-.054-.019l-.067-.04a.653.653,0,0,0-.089-.041.353.353,0,0,0-.117-.021.262.262,0,0,0-.18.049.178.178,0,0,0-.063.138.13.13,0,0,0,.03.092.285.285,0,0,0,.084.065.791.791,0,0,0,.12.05l.137.049a1.252,1.252,0,0,1,.137.061.494.494,0,0,1,.119.087.383.383,0,0,1,.083.125.431.431,0,0,1,.028.178.57.57,0,0,1-.045.211.5.5,0,0,1-.119.17.526.526,0,0,1-.187.112.681.681,0,0,1-.249.036.8.8,0,0,1-.157-.02.917.917,0,0,1-.15-.049.852.852,0,0,1-.135-.072.605.605,0,0,1-.11-.092l.1-.16a.1.1,0,0,1,.034-.03.084.084,0,0,1,.044-.011.119.119,0,0,1,.065.025l.078.052a.64.64,0,0,0,.1.053.391.391,0,0,0,.141.027.282.282,0,0,0,.188-.05.2.2,0,0,0,.07-.162.152.152,0,0,0-.03-.1.259.259,0,0,0-.083-.068.674.674,0,0,0-.119-.048l-.137-.045a1.152,1.152,0,0,1-.137-.059.431.431,0,0,1-.118-.088.4.4,0,0,1-.082-.133.505.505,0,0,1-.028-.194.462.462,0,0,1,.153-.331.539.539,0,0,1,.177-.1.641.641,0,0,1,.239-.035.807.807,0,0,1,.276.053.623.623,0,0,1,.213.134Z" transform="translate(-413.18 -82.908)"/>
        <path id="Tracé_182" data-name="Tracé 182" class="cls-7" d="M435.724,85.181l-.266-.015a.116.116,0,0,1-.071-.025.127.127,0,0,1-.039-.057l-.095-.323-.661-.036-.13.311a.129.129,0,0,1-.043.05.11.11,0,0,1-.073.019l-.269-.015.739-1.625.351.019Zm-.542-.662L435.03,84c-.009-.027-.019-.059-.029-.1s-.019-.076-.028-.119q-.019.063-.04.117c-.014.036-.027.066-.039.093l-.206.5Z" transform="translate(-421.778 -83.373)"/>
        <path id="Tracé_183" data-name="Tracé 183" class="cls-7" d="M449.674,85.575l-.021.279-.984-.075.127-1.657.343.026-.105,1.379Z" transform="translate(-434.14 -83.927)"/>
        <path id="Tracé_184" data-name="Tracé 184" class="cls-7" d="M459.825,86.706l-.345-.032.154-1.655.345.032Z" transform="translate(-443.3 -84.688)"/>
        <path id="Tracé_185" data-name="Tracé 185" class="cls-7" d="M467.4,86.065l-.048.425.551.062-.03.258-.551-.062-.049.434.708.08-.03.268L466.9,87.41l.187-1.652,1.052.119-.031.268Z" transform="translate(-449.584 -85.314)"/>
        <path id="Tracé_186" data-name="Tracé 186" class="cls-7" d="M479.073,87.259l-.262,1.642-.175-.028a.153.153,0,0,1-.065-.024.162.162,0,0,1-.046-.053l-.652-1.172c0,.027,0,.053-.007.079s-.006.05-.01.071l-.152.949-.3-.048.262-1.642.179.029.036.008a.085.085,0,0,1,.026.012.117.117,0,0,1,.021.02.241.241,0,0,1,.02.031l.657,1.177c0-.029,0-.057.006-.084s.006-.053.01-.077l.15-.939Z" transform="translate(-458.487 -86.395)"/>
      </g>
    </g>
  </g>
</svg>
