<svg xmlns="http://www.w3.org/2000/svg" width="274.221" height="662.096" viewBox="0 0 274.221 662.096">
  <defs>
    <style>
      .cls-1 {
        fill: #25266e;
      }

      .cls-1, .cls-2, .cls-3 {
        fill-rule: evenodd;
      }

      .cls-2 {
        fill: #151650;
      }

      .cls-3 {
        fill: #060616;
      }

      .cls-4 {
        fill: #fff;
      }

      .cls-5 {
        fill: #131c56;
      }

      .cls-6 {
        fill: #c4c3c3;
      }

      .cls-7 {
        fill: #900910;
      }
    </style>
  </defs>
  <g id="Groupe_56" data-name="Groupe 56" transform="translate(-829.817 -568)">
    <g id="Groupe_2" data-name="Groupe 2" transform="translate(829.817 568)">
      <g id="Groupe_1" data-name="Groupe 1" transform="translate(0 0)">
        <path id="Tracé_1" data-name="Tracé 1" class="cls-1" d="M1336.56-134.041c-29.069-.953-42.417-1.354-47.7-1.517s-8.465.96-9.254,3.684-2.4,11.027-4.161,16.62-1.436,7.025-2.24,9.1-3.034,6.551-4.319,10.7-1.748,12.784-2.71,20.293-2.883,23.487-3.683,29.083-5.755,27.482-6.717,39.95,1.593,28.121,1.593,44.417-2.871,51.134-2.225,69.334,2.871,63.595,3.514,90.117.317,54.325,3.517,87.882,3.831,59.12,3.831,75.735,3.514,28.765,5.438,46.657,6.306,51.528,7.583,66.233,1.922,16.45,1.764,23.645.792,8.781,2.713,14.534a38.415,38.415,0,0,0,6.95,11.585c.882,1.127,1.2,1.127,3.034,1.444a59.1,59.1,0,0,0,8.952.236c6.934.078,29.305.718,36.823.8a97.628,97.628,0,0,0,10.862-.4,2.9,2.9,0,0,0,2.962-1.277c.632-1.276,4.3-9.75,5.416-13.184s1.3-11.743.723-21.732-1.517-26.682-2.166-33.873.158-39.146-.791-54.484,2.871-47.619,3.187-64.872,3.2-71.577,2.882-89.153,2.557-38.027,4.147-57.2,1.3-38.35,2.885-59.44,8.233-42.1,10.15-50.734,5.582-14.534,6.86-20.128,2.407-7.512,3.2-7.991a4.61,4.61,0,0,1,5.135,0c.792.479,1.909,2.4,3.185,7.991s4.964,11.508,6.873,20.128,8.558,29.637,10.151,50.734,1.276,40.265,2.872,59.44,4.474,39.623,4.159,57.2,2.554,71.9,2.868,89.153,4.161,49.534,3.2,64.872-.158,47.291-.791,54.484-1.605,23.89-2.167,33.873-.407,18.3.711,21.732,4.792,11.917,5.436,13.184a2.9,2.9,0,0,0,2.962,1.277,97.619,97.619,0,0,0,10.861.4c7.506-.086,29.872-.726,36.824-.8a58.665,58.665,0,0,0,8.938-.236c1.845-.317,2.167-.317,3.034-1.444a38.415,38.415,0,0,0,6.95-11.585c1.922-5.753,2.871-7.345,2.713-14.534s.486-8.953,1.764-23.645,5.662-48.343,7.583-66.233,5.438-30.037,5.438-46.657.63-42.181,3.83-75.734,2.871-61.357,3.515-87.883,2.871-71.9,3.516-90.117-2.24-53.044-2.24-69.334,2.555-31.958,1.6-44.417-5.913-34.362-6.7-39.95-2.726-21.571-3.684-29.083S1516.677-91.3,1515.4-95.45s-3.515-8.623-4.305-10.7-.488-3.514-2.239-9.1-3.358-13.9-4.16-16.62-3.989-3.831-9.268-3.684-18.617.566-47.7,1.518C1413.379-132.908,1370.953-132.908,1336.56-134.041Z" transform="translate(-1255.052 135.573)"/>
        <path id="Tracé_3" data-name="Tracé 3" class="cls-2" d="M1338.76,531.856l3.055.048a97.62,97.62,0,0,0,10.861-.4,2.9,2.9,0,0,0,2.962-1.276c.632-1.276,4.305-9.75,5.417-13.184s1.3-11.743.724-21.732-1.518-26.682-2.167-33.874.158-39.145-.792-54.483,2.871-47.619,3.188-64.873,3.2-71.576,2.882-89.152,2.556-38.027,4.146-57.2,1.3-38.351,2.884-59.441,8.233-42.1,10.151-50.733,5.582-14.534,6.859-20.128,2.408-7.512,3.2-7.991a4.611,4.611,0,0,1,5.135,0c.791.479,1.909,2.4,3.185,7.991s4.963,11.508,6.873,20.128,8.559,29.636,10.151,50.733,1.276,40.266,2.871,59.441,4.474,39.622,4.16,57.2,2.555,71.9,2.868,89.152,4.161,49.535,3.2,64.873-.158,47.291-.791,54.483-1.606,23.89-2.167,33.874-.407,18.3.71,21.732,4.792,11.917,5.436,13.184a2.894,2.894,0,0,0,2.962,1.276,97.407,97.407,0,0,0,10.862.4l3.054-.048c-2.791-7.917-6.608-20.2-4.767-27.443,2.07-8.143-.158-9.584-.959-13.895s.475-3.838,1.435-11.666-3.673-5.911-3.831-9.751,3.107-15.574,3.437-31.874,1.908-25.567,0-39.943-4.478-21.411-4.793-37.389,2.555-28.76,3.831-39-2.238-21.09-2.883-30.675-1.909-15.345-2.224-33.235A353.991,353.991,0,0,0,1437,218c-1.276-11.5-4.146-25.887-6.066-41.865s-.316-34.829-.96-47.933a193.3,193.3,0,0,0-6.24-37.233c-2.241-7.826-3.358-13.581-5.584-20.292a120.34,120.34,0,0,0-8.637-18.215c-7.385-14-22.42-13.685-29.818.323a112.208,112.208,0,0,0-7.5,17.733c-2.239,6.718-4.318,12.625-6.556,20.451a193.215,193.215,0,0,0-6.228,37.233c-.65,13.1.962,31.959-.962,47.933s-4.792,30.366-6.082,41.865a358.716,358.716,0,0,0-2.872,38.99c-.313,17.89-1.59,23.644-2.238,33.235s-4.145,20.446-2.868,30.675,4.147,23.008,3.83,39-2.884,23.006-4.792,37.389-.314,23.644,0,39.943,3.594,28.037,3.436,31.874-4.793,1.922-3.831,9.751,2.238,7.354,1.437,11.666-3.034,5.752-.962,13.895C1345.368,511.661,1341.55,523.939,1338.76,531.856Z" transform="translate(-1257.595 130.176)"/>
        <path id="Tracé_4" data-name="Tracé 4" class="cls-3" d="M1349.039,532.046c2.316-.126,3.382-.291,3.949-.291a2.9,2.9,0,0,0,2.962-1.276c.633-1.276,4.305-9.75,5.417-13.184s1.3-11.743.724-21.732-1.517-26.682-2.167-33.874.158-39.145-.791-54.483,2.871-47.619,3.187-64.872,3.2-71.577,2.882-89.153,2.556-38.027,4.147-57.2,1.3-38.35,2.883-59.441,8.233-42.1,10.151-50.733,5.582-14.534,6.859-20.128,2.408-7.512,3.2-7.991a4.665,4.665,0,0,1,5.135,0c.791.479,1.909,2.4,3.185,7.991s4.964,11.508,6.873,20.128,8.559,29.637,10.151,50.733,1.276,40.266,2.871,59.441,4.474,39.622,4.16,57.2,2.555,71.9,2.869,89.153,4.16,49.534,3.2,64.872-.158,47.291-.791,54.483-1.6,23.891-2.167,33.874-.407,18.3.711,21.732,4.792,11.917,5.436,13.184a2.894,2.894,0,0,0,2.962,1.276c.567,0,1.634.165,3.949.291-.762-4.622-4.237-9.967-6.159-15.271a14.173,14.173,0,0,1,.526-11.191c1.673-4.721,1.2-5.681-.252-9.269s-1.065-6.866,1.146-11.917a5.851,5.851,0,0,0-.63-6.845c-2.24-2.08-2.319-5.077-1.542-16.265.961-13.739.961-29.558,2.555-42.979s2.238-20.776,0-31a171.934,171.934,0,0,1-4.305-40.424c0-18.85,3.988-26.2,1.436-37.714s-1.278-17.9-3.2-31-1.434-31-1.434-42.5-2.885-24.928-3.515-34.834-3.991-29.161-3.357-41.308,3.277-30.192.723-39.3c-1.909-6.766-5.307-15.132-6.934-21.536-2.054-8.119-3.467-15.076-6.346-24.319-1.764-5.685-1.552-8.667-4.816-14.98-6.11-11.844-13.667-11.844-19.788,0-3.25,6.3-3.034,9.295-4.819,14.98-2.855,9.243-4.279,16.2-6.333,24.319-1.618,6.4-5.028,14.77-6.933,21.536-2.555,9.112.078,27.159.725,39.3s-2.712,31.4-3.357,41.308-3.515,23.328-3.515,34.834.475,29.4-1.434,42.5-.649,19.5-3.2,31,1.434,18.85,1.434,37.714a171.909,171.909,0,0,1-4.318,40.424c-2.226,10.222-1.593,17.575,0,31s1.6,29.24,2.568,42.979c.774,11.189.7,14.186-1.554,16.265a5.851,5.851,0,0,0-.62,6.845c2.212,5.042,2.581,8.307,1.133,11.917s-1.91,4.549-.237,9.269a14.173,14.173,0,0,1,.526,11.191C1353.279,522.08,1349.8,527.424,1349.039,532.046Z" transform="translate(-1257.907 129.92)"/>
        <path id="Tracé_5" data-name="Tracé 5" class="cls-2" d="M1493.265-135.488l2.2-.072c5.281-.151,8.466.96,9.27,3.684s2.4,11.026,4.16,16.62,1.434,7.024,2.238,9.1,3.034,6.55,4.305,10.7,1.764,12.784,2.713,20.293,2.882,23.486,3.684,29.083,5.753,27.482,6.7,39.95-1.594,28.121-1.594,44.417,2.883,51.134,2.24,69.334-2.872,63.594-3.517,90.116-.316,54.325-3.515,87.883-3.831,59.12-3.831,75.735-3.516,28.765-5.437,46.657-6.306,51.528-7.584,66.233-1.922,16.449-1.764,23.644-.791,8.782-2.712,14.535a38.42,38.42,0,0,1-6.952,11.585c-.881,1.127-1.2,1.127-3.033,1.443a31.174,31.174,0,0,1-5.885.217c1.8-5.786,4.175-14.166,5.174-16.911,2.671-7.28,6.873-7.926-.881-11.448-10.808-4.889-6.333-7.023.649-11.551a9.751,9.751,0,0,0,4.384-12.475c-2.236-6.548-.959-8.622,1.12-12.3a29.872,29.872,0,0,0,4.16-19.819c-1.608-8.626-.8-21.571,1.593-27.95a40.651,40.651,0,0,0,2.91-21.883,95.729,95.729,0,0,1,1.733-29.857,73.894,73.894,0,0,0,.3-25.766c-1.911-13.1,1.922-25.567,3.515-36.435s5.28-21.883.487-30.832.158-17.1,2.08-29.251,4.438-12,1.119-23.809-2.671-15.785.791-27.647a71.02,71.02,0,0,0,2.251-31.291c-1.276-11.183-3.684-27.324.96-39.627s4.9-14.825,2.712-22.685c-3.963-14.276-3.62-17.766-1.434-32.847a56.977,56.977,0,0,0,0-20.2c-2.554-12.463-.62-17.524.236-24.05s2-13.342.08-19.418-2.186-11.98-1.436-21.413-1.04-27.721-3.434-35.388-3.727-13.434-3.517-18.213a45.734,45.734,0,0,0-4.147-18.538c-3.184-6.114-9.228-3.553-16.456-2.58-5.9.8-18.616,4.87-28.832,6.953s-21.815,6.066-33.638,7.752-13.178,2.712-18.377,3.033-11.3,1.909-14.535,1.6-11.429-.884-18.945-1.437a197.882,197.882,0,0,1-30.983-5.753c-14.469-3.516-15.9-4.8-22.052-5.761s-9.676-2.074-14.864-3.272-10.6-2.383-15.816-3.111c-7.387-1.049-10.586-3.749-14.022,3.533a43.869,43.869,0,0,0-3.989,17.576c.216,4.767-1.118,10.545-3.514,18.213s-4.189,25.968-3.436,35.388.474,15.341-1.436,21.413-.79,12.9.065,19.418,2.8,11.585.25,24.05a57.379,57.379,0,0,0-.013,20.2c2.2,15.069,2.541,18.57-1.421,32.847-2.186,7.861-1.922,10.4,2.713,22.685s2.238,28.444.959,39.626a71.058,71.058,0,0,0,2.238,31.313c3.467,11.862,4.117,15.841.792,27.647s-.792,11.666,1.118,23.81,6.873,20.288,2.08,29.25-1.118,19.97.474,30.832,5.438,23.337,3.53,36.435a73.507,73.507,0,0,0,.3,25.766,95.336,95.336,0,0,1,1.723,29.858,40.66,40.66,0,0,0,2.923,21.883c2.4,6.385,3.2,19.33,1.592,27.949a29.87,29.87,0,0,0,4.161,19.819c2.08,3.683,3.345,5.748,1.12,12.3a9.749,9.749,0,0,0,4.372,12.475c7,4.529,11.484,6.663.67,11.551-7.752,3.523-3.554,4.168-.9,11.448,1.014,2.745,3.382,11.125,5.188,16.911a31.474,31.474,0,0,1-5.9-.217c-1.831-.316-2.147-.316-3.033-1.443a38.438,38.438,0,0,1-6.951-11.585c-1.922-5.753-2.884-7.345-2.712-14.534s-.486-8.953-1.764-23.645-5.672-48.344-7.583-66.233-5.438-30.037-5.438-46.657-.65-42.181-3.832-75.734-2.883-61.356-3.516-87.883-2.881-71.9-3.515-90.116,2.226-53.044,2.226-69.334-2.542-31.958-1.592-44.417,5.91-34.362,6.716-39.95,2.71-21.571,3.683-29.083,1.448-16.139,2.711-20.293,3.53-8.624,4.318-10.7.488-3.514,2.241-9.1,3.356-13.9,4.16-16.62,3.989-3.831,9.254-3.684l2.211.072c-2.764,6.95-2.166,14.153-4.133,18-3.213,6.227-4.7,11.88,1.764,12.92a98.717,98.717,0,0,1,9.915,2.357c17.573,4.791,50.329,12.461,63.267,15.338a152.244,152.244,0,0,0,61.4,0c12.939-2.878,45.7-10.548,63.284-15.338,3.094-.849,6.134-1.566,9.058-2.178,2.633-.56,4.028-1.232,4.515-4.8.461-3.324-.776-4.487-2.751-8.3C1495.412-121.335,1496.033-128.537,1493.265-135.488Z" transform="translate(-1255.053 135.573)"/>
        <path id="Tracé_6" data-name="Tracé 6" class="cls-3" d="M1339.636-132.647c-11.664-.472-23.895-1.037-29.727-1.111s-14.916-.783-19.1-.737a14.4,14.4,0,0,0-7.031,1.153c-1.039.6-1.407,1.516,2.3,2.166s13.1,2.357,18.339,3.034,10.468,2.082,18.851,4.075,19.261,3.752,30.279,6.148,20.776,4.713,28.279,5.753a65.906,65.906,0,0,0,22.381,0c7.5-1.039,17.247-3.358,28.28-5.753s21.883-4.153,30.278-6.148,13.614-3.4,18.851-4.075,14.614-2.383,18.338-3.034,3.344-1.56,2.306-2.166a14.446,14.446,0,0,0-7.031-1.153c-4.187-.046-13.284.65-19.117.737s-18.048.639-29.713,1.111C1413.821-131.3,1372.22-131.3,1339.636-132.647Z" transform="translate(-1255.903 135.542)"/>
        <path id="Tracé_7" data-name="Tracé 7" class="cls-3" d="M1274.288-107.162a10.414,10.414,0,0,1-.513,1.869l-.053.152a177.2,177.2,0,0,1,25.028,4.805c17.589,4.79,50.345,12.461,63.283,15.338a152.218,152.218,0,0,0,61.4,0c12.941-2.877,45.7-10.548,63.267-15.338a177.4,177.4,0,0,1,25.04-4.805l-.051-.152a9.574,9.574,0,0,1-.514-1.869,175.932,175.932,0,0,0-25,4.883c-20.762,5.665-42.168,10.646-63.181,15.312a149.5,149.5,0,0,1-60.533,0c-21.016-4.667-42.417-9.648-63.18-15.312A175.782,175.782,0,0,0,1274.288-107.162Z" transform="translate(-1255.619 134.71)"/>
        <path id="Tracé_8" data-name="Tracé 8" class="cls-3" d="M1285.535,535.536c.355.769.739,1.516,1.133,2.205a167.088,167.088,0,0,0,18.116,1.084c8.883,0,17.692.867,26.58.65,7.7-.191,16.864.481,25.145.058l.9-2.153c-8.189.41-18.748-.1-26.093.08-9.663.236-16.378-.639-26.528-.639A189.479,189.479,0,0,1,1285.535,535.536Z" transform="translate(-1255.978 115.188)"/>
        <path id="Tracé_9" data-name="Tracé 9" class="cls-3" d="M1505.143,535.536c-.355.769-.751,1.516-1.146,2.205a166.573,166.573,0,0,1-18.113,1.084c-8.884,0-17.682.867-26.568.65-7.7-.191-16.866.481-25.16.058l-.9-2.153c8.2.41,18.764-.1,26.1.08,9.677.236,16.376-.639,26.529-.639A189.443,189.443,0,0,0,1505.143,535.536Z" transform="translate(-1260.465 115.188)"/>
      </g>
    </g>
    <g id="Groupe_36" data-name="Groupe 36" transform="translate(868.562 768.954)">
      <g id="Groupe_29" data-name="Groupe 29">
        <g id="Composant_1_8" data-name="Composant 1 – 8" transform="translate(174.928 34.647)">
          <g id="Groupe_19" data-name="Groupe 19">
            <path id="Tracé_192" data-name="Tracé 192" class="cls-4" d="M4276.908,1406.722a7.487,7.487,0,0,0,.714-3.216c0-3.742-2.67-6.788-5.95-6.788s-5.949,3.045-5.949,6.788,2.669,6.787,5.949,6.787a5.716,5.716,0,0,0,4.682-2.607Zm-5.214,1.863c-2.508,0-4.537-2.313-4.537-5.167s2.029-5.167,4.537-5.167,4.54,2.313,4.54,5.167S4274.2,1408.585,4271.694,1408.585Z" transform="translate(-4264.129 -1395.097)"/>
            <path id="Tracé_193" data-name="Tracé 193" class="cls-4" d="M4236.541,1360.733c0-4.622-3.362-8.369-7.509-8.369s-7.508,3.747-7.508,8.369,3.361,8.369,7.508,8.369c.224,0,.443-.013.662-.034h0l-4.723,8.172h1.715l.355-.616a1.068,1.068,0,0,1-.511-.911,1.056,1.056,0,0,1,1.047-1.062,1.029,1.029,0,0,1,.518.139l4.989-8.678a5.738,5.738,0,0,1-4.013,1.687c-3.411,0-6.186-3.152-6.186-7.026s2.774-7.026,6.186-7.026,6.185,3.152,6.185,7.026a7.737,7.737,0,0,1-.73,3.311h0l-.012.019c-.163.343-.687,1.194-.687,1.194l-5.549,9.627a1.069,1.069,0,0,1,.345.789,1.056,1.056,0,0,1-1.047,1.063,1.006,1.006,0,0,1-.333-.057l-.3.521h1.631l6.482-11.51a8.376,8.376,0,0,0,.629-1.118l.011-.017,0,0A9.086,9.086,0,0,0,4236.541,1360.733Z" transform="translate(-4221.524 -1352.364)"/>
          </g>
          <g id="Groupe_20" data-name="Groupe 20" transform="translate(5.104 22.391)">
            <path id="Tracé_194" data-name="Tracé 194" class="cls-4" d="M4396.893,1984.6a.818.818,0,0,0-.086,0c-.027,0-.055.006-.085.011v.482c.03,0,.058.008.085.01s.056,0,.086,0q.167,0,.167-.182v-.146Q4397.06,1984.6,4396.893,1984.6Z" transform="translate(-4395.51 -1983.87)"/>
            <path id="Tracé_195" data-name="Tracé 195" class="cls-4" d="M4364.064,1964.692a.959.959,0,1,0,.945.959A.954.954,0,0,0,4364.064,1964.692Zm-.388,1.384a1.021,1.021,0,0,1-.342-.048l.044-.141a.9.9,0,0,0,.132.028,1.364,1.364,0,0,0,.166.015c.152,0,.23-.048.23-.146,0-.073-.064-.122-.187-.146-.242-.024-.362-.122-.362-.293,0-.194.133-.292.405-.292a.729.729,0,0,1,.271.045l-.039.134a.75.75,0,0,0-.231-.033c-.158,0-.239.048-.239.146,0,.074.066.123.2.146.237.024.354.122.354.292C4364.074,1965.979,4363.942,1966.077,4363.677,1966.077Zm.822,0a.669.669,0,0,1-.169-.022v.314l-.169.037v-1.094a.988.988,0,0,1,.338-.038.3.3,0,0,1,.339.329v.146A.3.3,0,0,1,4364.5,1966.077Z" transform="translate(-4363.118 -1964.692)"/>
          </g>
        </g>
        <g id="Composant_2_7" data-name="Composant 2 – 7" transform="translate(0 47.57)">
          <path id="Tracé_187" data-name="Tracé 187" class="cls-4" d="M2305.068,3.53h-2.406V1.644l6.376,0V3.532h-2.431l0,10.449h-1.541Z" transform="translate(-2302.662 -1.644)"/>
          <path id="Tracé_188" data-name="Tracé 188" class="cls-4" d="M2408.918,8.548h-3.183l0,3.623,3.56,0V14.02l-5.1,0,0-12.334,4.913,0V3.534h-3.37V6.717h3.182Z" transform="translate(-2396.83 -1.681)"/>
          <path id="Tracé_189" data-name="Tracé 189" class="cls-4" d="M2489.506,14.053l-.9-2.453c-.361-.952-.6-1.611-.851-2.324h-.023c-.2.714-.428,1.372-.767,2.324l-.839,2.452h-1.769l2.509-6.239-2.415-6.095h1.778l.914,2.544c.274.769.476,1.373.688,2.068h.039c.225-.768.4-1.317.664-2.068l.9-2.543h1.767l-2.472,6.02,2.566,6.314Z" transform="translate(-2471.177 -1.711)"/>
          <path id="Tracé_190" data-name="Tracé 190" class="cls-4" d="M2588.568,3.643h-2.406V1.757l6.378,0V3.645h-2.43l0,10.449h-1.541Z" transform="translate(-2565.6 -1.748)"/>
          <path id="Tracé_191" data-name="Tracé 191" class="cls-4" d="M2692.42,8.661h-3.184v3.623l3.559,0v1.848l-5.1,0,0-12.334,4.911,0V3.648l-3.37,0,0,3.184h3.183Z" transform="translate(-2659.768 -1.785)"/>
        </g>
        <g id="Composant_3_15" data-name="Composant 3 – 15" transform="translate(2.504)">
          <path id="Tracé_165" data-name="Tracé 165" class="cls-5" d="M356.522,58.571c-1.088-.67-8.465-1.247-11.625-1.247s-10.537.577-11.626,1.247a2.309,2.309,0,0,0-1.349,2.387V77.881A11.218,11.218,0,0,0,332.274,80c.525,1.575,3.2,4.888,7.137,7.924,3.949,3.048,4.821,3.3,5.486,3.3s1.538-.248,5.486-3.3c3.932-3.036,6.612-6.348,7.137-7.924a11.275,11.275,0,0,0,.351-2.114V60.958A2.309,2.309,0,0,0,356.522,58.571Z" transform="translate(-331.922 -57.324)"/>
          <g id="Groupe_12" data-name="Groupe 12" transform="translate(0.51 6.417)">
            <path id="Tracé_166" data-name="Tracé 166" class="cls-6" d="M406.684,129.711v6.039a10.424,10.424,0,0,1,3.115,1.2v-6.776A16.969,16.969,0,0,0,406.684,129.711Z" transform="translate(-396.298 -125.578)"/>
            <path id="Tracé_167" data-name="Tracé 167" class="cls-7" d="M428.044,101.356a42.148,42.148,0,0,0-6.084.215,9.359,9.359,0,0,1,2.765.911l-.7,2.38c.27-.033.992-.063,1.257-.086q.959-.084,1.957-.084,3.915,0,3.915,4.169v3.335q0,4.168-3.915,4.168c-.467,0-.925-.018-1.379-.046a6.734,6.734,0,0,1,.255,1.878,8.182,8.182,0,0,1-.115,1.364,15.466,15.466,0,0,0,2.039.138,8.426,8.426,0,0,0,5.662-1.686,4.027,4.027,0,0,0,.246-.563,10.9,10.9,0,0,0,.325-1.952V103.617Q432.338,101.358,428.044,101.356Z" transform="translate(-409.347 -101.355)"/>
            <path id="Tracé_168" data-name="Tracé 168" class="cls-6" d="M404.621,255.472c1.464.988,2,1.139,2.38,1.139a3.075,3.075,0,0,0,1.535-.6v-4.477a8.279,8.279,0,0,1-3.915,1.653Z" transform="translate(-394.536 -229.648)"/>
            <path id="Tracé_169" data-name="Tracé 169" class="cls-4" d="M348.2,114.078a10.422,10.422,0,0,0-3.115-1.2,18.763,18.763,0,0,0-2.316-.377q-4.5-.833-4.5-3.335,0-3.335,5.48-3.335c.459,0,.9.015,1.337.041a16.975,16.975,0,0,1,3.115.461c.318.08.727.2,1.027.3l.222-.762.678-2.323a14.853,14.853,0,0,0-3.3-.848,21.983,21.983,0,0,0-3.083-.206q-6.23,0-8.327,2.934v7.262q1.929,2.616,7.349,3.143a9.9,9.9,0,0,1,2.316.7,2.889,2.889,0,0,1,1.99,2.635,2.847,2.847,0,0,1-1.99,2.833,9.055,9.055,0,0,1-3.3.5q-1.82-.069-3.332-.26a35.237,35.237,0,0,0,3.9,3.587,17.846,17.846,0,0,0,2.723-.261A8.28,8.28,0,0,0,349,123.919a5.421,5.421,0,0,0,1.875-3.383,8.169,8.169,0,0,0,.115-1.364,6.739,6.739,0,0,0-.255-1.879A5.477,5.477,0,0,0,348.2,114.078Z" transform="translate(-335.423 -102.331)"/>
          </g>
          <g id="Groupe_13" data-name="Groupe 13" transform="translate(8.889 1.547)">
            <path id="Tracé_170" data-name="Tracé 170" class="cls-4" d="M393.825,69.035a.121.121,0,0,1-.029.039.068.068,0,0,1-.04.014.1.1,0,0,1-.053-.013l-.067-.032a.64.64,0,0,0-.087-.031.341.341,0,0,0-.114-.01.248.248,0,0,0-.167.062.169.169,0,0,0-.048.136.125.125,0,0,0,.037.085.272.272,0,0,0,.086.054.759.759,0,0,0,.118.037l.135.035a1.184,1.184,0,0,1,.136.047.469.469,0,0,1,.12.072.369.369,0,0,1,.089.112.412.412,0,0,1,.042.166.543.543,0,0,1-.024.2.483.483,0,0,1-.1.172.5.5,0,0,1-.168.122.648.648,0,0,1-.233.056.756.756,0,0,1-.151-.006.872.872,0,0,1-.147-.033.774.774,0,0,1-.135-.057.579.579,0,0,1-.113-.078l.086-.161a.1.1,0,0,1,.03-.031.08.08,0,0,1,.041-.014.112.112,0,0,1,.063.018l.078.043a.611.611,0,0,0,.1.042.375.375,0,0,0,.136.013.27.27,0,0,0,.174-.064.192.192,0,0,0,.053-.16.146.146,0,0,0-.037-.1.25.25,0,0,0-.085-.057.637.637,0,0,0-.117-.036l-.135-.031a1.089,1.089,0,0,1-.135-.044.41.41,0,0,1-.12-.073.387.387,0,0,1-.089-.119.484.484,0,0,1-.043-.182.442.442,0,0,1,.024-.174.436.436,0,0,1,.093-.154.512.512,0,0,1,.16-.114.61.61,0,0,1,.224-.054.767.767,0,0,1,.267.027.6.6,0,0,1,.214.109Z" transform="translate(-392.914 -68.622)"/>
            <path id="Tracé_171" data-name="Tracé 171" class="cls-4" d="M404.525,68.349l-.463.02.056,1.32-.329.014-.056-1.32-.463.02-.011-.264,1.255-.053Z" transform="translate(-401.751 -68.064)"/>
            <path id="Tracé_172" data-name="Tracé 172" class="cls-4" d="M415.252,69.521l-.255,0a.112.112,0,0,1-.07-.02.123.123,0,0,1-.041-.051l-.11-.3-.632.006-.1.3a.124.124,0,0,1-.038.05.1.1,0,0,1-.069.023l-.257,0,.6-1.592.336,0Zm-.557-.6-.176-.484c-.01-.025-.021-.055-.033-.089s-.023-.071-.033-.111c-.01.041-.02.079-.031.113s-.021.065-.031.091l-.166.485Z" transform="translate(-410.652 -67.941)"/>
            <path id="Tracé_173" data-name="Tracé 173" class="cls-4" d="M428.99,68.844a.853.853,0,0,1-.07.317.727.727,0,0,1-.174.245.75.75,0,0,1-.262.154.9.9,0,0,1-.334.047l-.61-.022L427.6,68l.609.022a.9.9,0,0,1,.33.071.749.749,0,0,1,.25.174.737.737,0,0,1,.156.257A.846.846,0,0,1,428.99,68.844Zm-.336-.012a.717.717,0,0,0-.025-.225.473.473,0,0,0-.088-.172.408.408,0,0,0-.145-.111.505.505,0,0,0-.2-.044l-.28-.01-.039,1.072.28.01a.514.514,0,0,0,.2-.029.4.4,0,0,0,.153-.1.479.479,0,0,0,.1-.165A.723.723,0,0,0,428.654,68.832Z" transform="translate(-422.493 -67.991)"/>
            <path id="Tracé_174" data-name="Tracé 174" class="cls-4" d="M441.793,68.887l-.026.407.528.033-.015.248-.528-.033-.026.416L442.4,70l-.016.256-1.008-.063.1-1.583,1.008.063-.016.256Z" transform="translate(-434.316 -68.512)"/>
          </g>
          <g id="Groupe_14" data-name="Groupe 14" transform="translate(3.154 3.721)">
            <path id="Tracé_175" data-name="Tracé 175" class="cls-4" d="M354.091,87.952a.923.923,0,0,1,.284-.01.535.535,0,0,1,.21.072.42.42,0,0,1,.139.141.562.562,0,0,1,.071.2.577.577,0,0,1,0,.218.436.436,0,0,1-.086.184.537.537,0,0,1-.174.141.887.887,0,0,1-.266.085l-.2.035.093.538-.323.056-.27-1.563Zm.134.778a.3.3,0,0,0,.21-.112.281.281,0,0,0,.036-.212.309.309,0,0,0-.036-.1.215.215,0,0,0-.068-.073.246.246,0,0,0-.1-.036.419.419,0,0,0-.134,0l-.2.035.092.532Z" transform="translate(-353.563 -87.195)"/>
            <path id="Tracé_176" data-name="Tracé 176" class="cls-4" d="M366.632,86.824a.876.876,0,0,1-.021.327.754.754,0,0,1-.134.274.765.765,0,0,1-.235.2.926.926,0,0,1-.66.077.771.771,0,0,1-.275-.139.751.751,0,0,1-.194-.236.917.917,0,0,1-.075-.64.754.754,0,0,1,.135-.274.766.766,0,0,1,.236-.2.925.925,0,0,1,.66-.077.75.75,0,0,1,.468.376A.869.869,0,0,1,366.632,86.824Zm-.333.039a.7.7,0,0,0-.058-.218.475.475,0,0,0-.113-.156.41.41,0,0,0-.161-.088.563.563,0,0,0-.4.046.4.4,0,0,0-.137.123.478.478,0,0,0-.074.178.7.7,0,0,0-.007.226.719.719,0,0,0,.059.219.469.469,0,0,0,.114.156.408.408,0,0,0,.161.087.562.562,0,0,0,.4-.046.409.409,0,0,0,.137-.122.467.467,0,0,0,.074-.178A.712.712,0,0,0,366.3,86.863Z" transform="translate(-363.342 -85.633)"/>
            <path id="Tracé_177" data-name="Tracé 177" class="cls-4" d="M381.347,84.4l.137,1.58-.169.015a.15.15,0,0,1-.065-.007.157.157,0,0,1-.055-.039l-.874-.934c0,.025.008.05.011.075s.006.047.007.069l.079.914-.289.025-.137-1.58.172-.015h.036a.08.08,0,0,1,.027.005.107.107,0,0,1,.024.014.226.226,0,0,1,.026.024l.88.938c-.005-.027-.01-.054-.013-.08s-.007-.05-.009-.073l-.078-.9Z" transform="translate(-376.141 -84.171)"/>
            <path id="Tracé_178" data-name="Tracé 178" class="cls-4" d="M394.922,83.792l-.462.029.083,1.319-.328.021-.083-1.319-.462.029-.017-.264,1.254-.079Z" transform="translate(-387.809 -83.43)"/>
            <path id="Tracé_179" data-name="Tracé 179" class="cls-4" d="M407.138,84.8l-.33.014-.069-1.585.33-.014Z" transform="translate(-398.99 -83.166)"/>
            <path id="Tracé_180" data-name="Tracé 180" class="cls-4" d="M414.5,83.168a.126.126,0,0,1-.031.037.069.069,0,0,1-.041.012.1.1,0,0,1-.052-.016l-.066-.036a.635.635,0,0,0-.086-.035.338.338,0,0,0-.113-.015.249.249,0,0,0-.17.054.169.169,0,0,0-.055.134.125.125,0,0,0,.033.086.27.27,0,0,0,.083.058.759.759,0,0,0,.116.043l.133.041a1.147,1.147,0,0,1,.133.053.466.466,0,0,1,.117.078.366.366,0,0,1,.084.116.413.413,0,0,1,.034.168.55.55,0,0,1-.034.2.48.48,0,0,1-.106.167.5.5,0,0,1-.174.114.65.65,0,0,1-.236.045.749.749,0,0,1-.151-.013.865.865,0,0,1-.145-.04.8.8,0,0,1-.132-.063.577.577,0,0,1-.109-.083l.094-.157a.1.1,0,0,1,.031-.03.08.08,0,0,1,.041-.012.114.114,0,0,1,.063.021l.076.047a.624.624,0,0,0,.1.046.372.372,0,0,0,.135.02.269.269,0,0,0,.177-.056.191.191,0,0,0,.06-.157.145.145,0,0,0-.033-.1.25.25,0,0,0-.082-.061.649.649,0,0,0-.116-.041l-.133-.038a1.1,1.1,0,0,1-.133-.05.4.4,0,0,1-.116-.079.384.384,0,0,1-.084-.123.477.477,0,0,1-.034-.184.438.438,0,0,1,.132-.322.513.513,0,0,1,.165-.107.609.609,0,0,1,.226-.043.763.763,0,0,1,.266.04.594.594,0,0,1,.208.119Z" transform="translate(-404.797 -82.853)"/>
            <path id="Tracé_181" data-name="Tracé 181" class="cls-4" d="M424.94,83.25a.128.128,0,0,1-.032.036.068.068,0,0,1-.041.01.1.1,0,0,1-.051-.018l-.064-.038a.634.634,0,0,0-.085-.039.335.335,0,0,0-.112-.02.25.25,0,0,0-.172.046.17.17,0,0,0-.06.131.124.124,0,0,0,.029.088.27.27,0,0,0,.081.062.759.759,0,0,0,.114.048l.131.047a1.216,1.216,0,0,1,.131.059.478.478,0,0,1,.113.083.364.364,0,0,1,.079.12.41.41,0,0,1,.027.17.547.547,0,0,1-.043.2.481.481,0,0,1-.113.162.5.5,0,0,1-.178.106.652.652,0,0,1-.238.034.759.759,0,0,1-.15-.019.867.867,0,0,1-.143-.046.81.81,0,0,1-.129-.069.574.574,0,0,1-.1-.088l.1-.153a.1.1,0,0,1,.032-.028.08.08,0,0,1,.042-.01.114.114,0,0,1,.062.023l.074.05a.6.6,0,0,0,.1.051.373.373,0,0,0,.135.025.269.269,0,0,0,.179-.048.192.192,0,0,0,.067-.155.144.144,0,0,0-.029-.1.245.245,0,0,0-.08-.064.639.639,0,0,0-.114-.046l-.131-.043a1.093,1.093,0,0,1-.131-.056.41.41,0,0,1-.113-.084.385.385,0,0,1-.078-.127.484.484,0,0,1-.026-.185.44.44,0,0,1,.04-.171.434.434,0,0,1,.106-.145.513.513,0,0,1,.169-.1.61.61,0,0,1,.228-.034.77.77,0,0,1,.264.051.6.6,0,0,1,.2.128Z" transform="translate(-413.673 -82.909)"/>
            <path id="Tracé_182" data-name="Tracé 182" class="cls-4" d="M435.649,85.1l-.254-.014a.112.112,0,0,1-.068-.024.123.123,0,0,1-.037-.054l-.09-.308-.631-.034-.124.3a.123.123,0,0,1-.041.048.1.1,0,0,1-.07.019l-.257-.014.705-1.55.335.018Zm-.517-.631-.145-.494c-.009-.026-.018-.056-.027-.091s-.018-.072-.026-.113q-.018.06-.038.111c-.013.034-.025.063-.037.088l-.2.473Z" transform="translate(-422.342 -83.378)"/>
            <path id="Tracé_183" data-name="Tracé 183" class="cls-4" d="M449.628,85.508l-.021.266-.938-.072.121-1.581.327.025-.1,1.316Z" transform="translate(-434.807 -83.936)"/>
            <path id="Tracé_184" data-name="Tracé 184" class="cls-4" d="M459.809,86.629l-.329-.031.147-1.579.329.03Z" transform="translate(-444.043 -84.703)"/>
            <path id="Tracé_185" data-name="Tracé 185" class="cls-4" d="M467.375,86.051l-.046.405.526.059-.028.247-.526-.06-.047.414.676.077-.029.255-1-.114.179-1.576,1,.114-.029.255Z" transform="translate(-450.379 -85.335)"/>
            <path id="Tracé_186" data-name="Tracé 186" class="cls-4" d="M479,87.248l-.25,1.566-.167-.027a.147.147,0,0,1-.062-.023.158.158,0,0,1-.044-.051l-.622-1.118c0,.026,0,.051-.007.075s-.006.047-.009.068l-.145.906-.286-.046.25-1.566.171.027.035.007a.079.079,0,0,1,.025.012.106.106,0,0,1,.02.019.234.234,0,0,1,.02.03l.626,1.123c0-.028,0-.055.006-.08s.006-.05.01-.073l.143-.9Z" transform="translate(-459.355 -86.425)"/>
          </g>
        </g>
      </g>
      <g id="Groupe_42" data-name="Groupe 42" transform="translate(162.842 6.929)">
        <path id="Tracé_423" data-name="Tracé 423" class="cls-4" d="M28.532,22.839c-3.245,1.373-8.335,2.95-10.462-.463-1.179-1.89-.429-4.834,1.309-7.508A39.388,39.388,0,0,1,23.358,10c-.8,1.293-3.03,5.59-.1,7.731,1.126.827,3.136.914,5.639.265l29.757-7.868Z" transform="translate(-17.499 -9.999)"/>
      </g>
    </g>
  </g>
</svg>
