<svg xmlns="http://www.w3.org/2000/svg" width="576.265" height="467.01" viewBox="0 0 576.265 467.01">
  <defs>
    <style>
      .cls-1, .cls-14 {
        fill: #25266e;
      }

      .cls-1, .cls-10, .cls-2, .cls-3, .cls-4, .cls-5, .cls-6, .cls-8, .cls-9 {
        fill-rule: evenodd;
      }

      .cls-2 {
        fill: #151650;
      }

      .cls-3 {
        fill: #060616;
      }

      .cls-4 {
        fill: #ebecec;
      }

      .cls-5 {
        fill: #d9dada;
      }

      .cls-6 {
        fill: #fefefe;
      }

      .cls-7, .cls-8 {
        fill: #9d9e9e;
      }

      .cls-9 {
        fill: #c5c6c6;
      }

      .cls-10 {
        fill: #b2b3b3;
      }

      .cls-11 {
        fill: #fff;
      }

      .cls-12 {
        fill: #c4c3c3;
      }

      .cls-13 {
        fill: #900910;
      }
    </style>
  </defs>
  <g id="Groupe_52" data-name="Groupe 52" transform="translate(-544.304 -278.894)">
    <g id="Groupe_16" data-name="Groupe 16" transform="translate(544.304 278.894)">
      <g id="Groupe_9" data-name="Groupe 9" transform="translate(0 0)">
        <path id="Tracé_36" data-name="Tracé 36" class="cls-1" d="M840.906-82.221c3.348-.554,34.685-3.518,64.189-4.881s71.288,0,110.32.916c44.64,1.044,93.863,1.044,138.523,0,39.032-.916,80.8-2.281,110.3-.916,29.527,1.363,60.841,4.327,64.187,4.881,2.348.405,4.906,1.578,5.371,4.05a47.347,47.347,0,0,1,.621,10c4.114,6.159,5.158,27.518,2.984,31.291,1.194,2.687,1.235,7.164.747,10.042,11.895,12.621,13.833,20.85,18.141,37.477,1.6,6.118,2.494,11.34,6.373,22.917,3.859,11.576,7.483,37.69,8.378,54.7.917,17.032-1.812,19.293.234,29.738s1.6,27.928,1.152,34.28c-.469,6.352-1.152,9.529-1.386,20.89-.213,11.342.47,19.293-2.707,32.915s-.916,31.1.682,49.48c1.578,18.4.213,24.3-.233,37.69s-.9,27.01-.9,37.67a74.745,74.745,0,0,1-3.751,22.191c-2.174,7.034-3.285,12.066-10.426,15.754-6.565,3.369-17.777,5.713-37.37,8.143-32.892,4.093-89.216,1.812-108.509.447s-47.2-9.529-65.827-19.74c-18.611-10.211-46.2-22.937-48.348-24.174-2.155-1.257-1.578-2.728-1.578-4.327,0-1.578.447-2.494,1.47-8.271,1.024-5.8,1.024-4.776,1.129-10.681.128-5.9,1.194-37.67,1.26-38.586a7.21,7.21,0,0,0-1.024-4.306c-1.024-1.535-5.351-8.015-6.821-10.17-1.963-2.877-4.863-2.877-6.844,0-1.473,2.155-5.777,8.635-6.8,10.17a7.2,7.2,0,0,0-1.024,4.306c.065.916,1.132,32.681,1.235,38.586.13,5.9.13,4.881,1.154,10.681,1.024,5.777,1.47,6.693,1.47,8.271,0,1.6.554,3.069-1.6,4.327-2.151,1.237-29.738,13.963-48.346,24.174s-46.539,18.377-65.831,19.74-75.592,3.646-108.509-.447c-19.568-2.43-30.8-4.774-37.347-8.143-7.142-3.688-8.271-8.72-10.424-15.754a74.675,74.675,0,0,1-3.752-22.191c0-10.66-.449-24.282-.918-37.67-.447-13.388-1.812-19.293-.213-37.69,1.578-18.377,3.86-35.856.683-49.48s-2.513-21.572-2.728-32.915c-.236-11.361-.916-14.538-1.365-20.89s-.916-23.833,1.129-34.28-.68-12.705.236-29.738c.916-17.012,4.54-43.126,8.4-54.7s4.776-16.8,6.354-22.917c4.3-16.627,6.267-24.857,18.162-37.477-.492-2.877-.47-7.355.747-10.042-2.174-3.773-1.152-25.132,2.962-31.291a48.269,48.269,0,0,1,.639-10C836-80.643,838.563-81.815,840.906-82.221Z" transform="translate(-796.538 87.679)"/>
        <path id="Tracé_37" data-name="Tracé 37" class="cls-2" d="M1035.121-.374c-7.609-31.742-19.847-49.223-35.345-4.093C994.6,10.648,992.955,28.555,988.883.265c-8.143-56.47-37.926-43.552-50.332,1.75-5.2,19.057-7.93,15.88-8.166-9.082-.234-25.518-9.785-52.143-32.487-20.679-12.813,17.736-13.624,10.575-9.51-7.93,2.689-12.044-9.657-10.681-17.566-1.406-22.083,25.86-24.151,48.795-40.652,79.238-10.424,19.229-23.79,47.26-33.618,62.717a114.741,114.741,0,0,1,1.491-18.61,37.375,37.375,0,0,0,.79-7.866c1.876-2.664,3.646-5.011,5.074-6.7,6.566-7.653,15.862-24.346,19.144-39.649,4.368-20.34,2.708-16.885,13.622-36.071,5.03-8.869,10.317-18.844,12.939-26.116,2.11-5.859,2.579-10.445-2.9-8.59-7.781,2.643-8.271-1.109-9.87-6.1-1.7-5.371-5.349-9.593-12.043-6.118a73.676,73.676,0,0,1,5.84-7.034c9.614,1.088,28.011,3.133,33.639,3.644,7.717.683,56.109,4.817,69.519,6.29,13.388,1.471,58,5.16,69.794,6.01,58.475,4.244,103.348,4.2,162.12,0,11.791-.831,56.429-4.54,69.817-6.01s61.8-5.607,69.517-6.29c5.607-.511,24-2.556,33.618-3.644a77.79,77.79,0,0,1,5.861,7.034c-11.084-5.735-10.4,4.989-10.486,11.746-.087,8.4-2.474,8.763-7.206,6.652-5.948-2.687-5.586,1.065-4.136,4.966,1.493,4.052,7.037,17.717,11.171,26.116,9.208,18.823,7.953,12.705,12.408,33.512,3.282,15.3,12.577,32,19.144,39.649,1.427,1.684,3.2,4.031,5.074,6.7a37.292,37.292,0,0,0,.765,7.866,112.31,112.31,0,0,1,1.516,18.61c-9.828-15.456-23.194-43.488-33.62-62.717-14.709-27.115-19.25-55.213-41.25-77.085-8.888-8.869-20.7-17.522-16.989-.747,4.112,18.5,3.3,25.665-9.487,7.93-22.7-31.465-32.276-4.84-32.489,20.679-.233,24.962-2.961,28.139-8.186,9.082-9.934-36.243-39.4-59.84-48.348-13.622-4.306,22.255-3.177,38.82-10,16.116-15.628-52.123-23.514-43.362-39.033-6.544-7.676,18.2-11.961,22.555-22.706-4.521-16.9-42.549-44.871-28.863-61.31,6.567C1042.5,14.848,1041.58,26.486,1035.121-.374Z" transform="translate(-796.525 119.413)"/>
        <path id="Tracé_38" data-name="Tracé 38" class="cls-2" d="M992.325,99.313c1.47,2.155,5.8,8.635,6.821,10.17a7.21,7.21,0,0,1,1.024,4.306c-.066.916-1.131,32.681-1.259,38.586-.105,5.9-.105,4.881-1.129,10.681-1.024,5.777-1.47,6.693-1.47,8.271,0,1.6-.577,3.069,1.578,4.327,2.153,1.237,29.738,13.963,48.348,24.174,12.7,6.972,29.738,12.983,45.384,16.542-16.285-15.965-47.837-47.794-60.052-66.766-16.8-26.114-29.5-37.457-10.445-29.525,19.078,7.953,27.457,9.08,6.821-9.977-20.678-19.08-37.924-42.23-10.445-25.645,87.465,52.762,52.42,21.467,6.8-8.186-31.082-20.209-41.57-22.832-70.8,0-33.3,26.027-60.522,48.818,6.822,8.186,27.457-16.586,10.209,6.565-10.447,25.645-20.656,19.057-12.259,17.93,6.8,9.977,19.08-7.932,6.375,3.411-10.424,29.525-12.215,18.972-43.767,50.8-60.073,66.766,15.667-3.56,32.7-9.57,45.386-16.542,18.608-10.211,46.195-22.937,48.346-24.174,2.155-1.258,1.6-2.728,1.6-4.327,0-1.578-.447-2.494-1.47-8.271-1.024-5.8-1.024-4.776-1.154-10.681-.1-5.9-1.171-37.67-1.235-38.586a7.2,7.2,0,0,1,1.024-4.306c1.024-1.535,5.328-8.015,6.8-10.17C987.463,96.436,990.362,96.436,992.325,99.313Z" transform="translate(-700.775 245.565)"/>
        <path id="Tracé_39" data-name="Tracé 39" class="cls-3" d="M935.535-48.718q.034,16.626.192,33.171.385,41.026.511,82.117c.108,26.646.406,54.977-.149,81.561-.447,21.382-.383,44.321-.149,66.915-.149.174-.277.364-.426.554-.469.685-1.216,1.812-2.068,3.071-.192-24.366-.341-54.7,0-70.754.639-29.61-.105-135.367-.362-163.1-.043-5.864-.085-17.866-.128-33.556l2.579.021Zm8.548-.021c.043,11.1.087,22.17.192,33.192q.385,41.026.534,82.117c.107,26.646.385,54.977-.172,81.561-.468,22.575-.362,46.88-.106,70.69-.875-1.322-1.686-2.494-2.174-3.22a5.787,5.787,0,0,0-.385-.511c-.192-23.7-.3-51.887.043-67.172.619-29.61-.107-135.367-.385-163.1-.043-5.843-.085-17.845-.128-33.535Z" transform="translate(-650.808 129.278)"/>
        <path id="Tracé_40" data-name="Tracé 40" class="cls-1" d="M1072.109,106.02c.108,3.071.256,3.282,1.088,8,1.024,5.777,1.471,6.693,1.471,8.271,0,1.6.554,3.069-1.6,4.327-2.151,1.237-29.738,13.963-48.346,24.174s-46.539,18.377-65.832,19.74-75.591,3.646-108.508-.447c-19.568-2.43-30.8-4.774-37.347-8.143-7.141-3.688-8.271-8.72-10.424-15.754a79.557,79.557,0,0,1-3.624-18.354,57.665,57.665,0,0,0,4.435,8.5c6.991,9.487,17.1,12.918,28.373,14.519,20.828,2.982,43.167,5.477,64.187,5.264q17.842-.192,35.688-.534c8.866-.17,17.735-.383,26.6-.7,5.971-.234,12.259-.385,18.184-1.044,12.108-1.344,26.414-4.263,36.836-10.722,1.535-.96,3.051-1.963,4.542-3.028,3.967-2.813,7.737-5.882,11.681-8.741a137.314,137.314,0,0,1,15.818-9.911C1054.03,116.788,1063.581,111.265,1072.109,106.02Z" transform="translate(-793.926 294.605)"/>
        <path id="Tracé_41" data-name="Tracé 41" class="cls-2" d="M978.958,106.02c.107,3.071.257,3.282,1.088,8,1.023,5.777,1.47,6.693,1.47,8.271,0,1.6.554,3.069-1.6,4.327-2.151,1.237-29.738,13.963-48.346,24.174-12.687,6.972-29.719,12.983-45.386,16.542,4.732-4.647,10.763-10.614,17.223-17.223a64.911,64.911,0,0,0,16.735-6.993c1.534-.96,3.051-1.963,4.542-3.028,3.967-2.813,7.738-5.882,11.682-8.741a137.272,137.272,0,0,1,15.818-9.911C960.879,116.788,970.43,111.265,978.958,106.02Z" transform="translate(-700.775 294.605)"/>
        <path id="Tracé_42" data-name="Tracé 42" class="cls-1" d="M942,106.02c-.085,3.071-.234,3.282-1.065,8-1.024,5.777-1.47,6.693-1.47,8.271,0,1.6-.577,3.069,1.578,4.327,2.153,1.237,29.738,13.963,48.348,24.174,18.631,10.211,46.534,18.377,65.827,19.74s75.616,3.646,108.509-.447c19.593-2.43,30.8-4.774,37.369-8.143,7.142-3.688,8.253-8.72,10.427-15.754a79.685,79.685,0,0,0,3.623-18.354,58.051,58.051,0,0,1-4.455,8.5c-6.97,9.487-17.076,12.918-28.352,14.519-20.851,2.982-43.171,5.477-64.189,5.264q-17.845-.192-35.686-.534c-8.869-.17-17.736-.383-26.6-.7-5.969-.234-12.259-.385-18.184-1.044-12.11-1.344-26.433-4.263-36.838-10.722-1.555-.96-3.047-1.963-4.54-3.028-3.965-2.813-7.76-5.882-11.679-8.741a139.3,139.3,0,0,0-15.82-9.911C960.078,116.788,950.529,111.265,942,106.02Z" transform="translate(-643.929 294.605)"/>
        <path id="Tracé_43" data-name="Tracé 43" class="cls-2" d="M942,106.02c-.085,3.071-.234,3.282-1.065,8-1.024,5.777-1.47,6.693-1.47,8.271,0,1.6-.577,3.069,1.578,4.327,2.153,1.237,29.738,13.963,48.348,24.174,12.7,6.972,29.738,12.983,45.384,16.542-4.732-4.647-10.745-10.614-17.2-17.223a64.662,64.662,0,0,1-16.734-6.993c-1.555-.96-3.047-1.963-4.54-3.028-3.965-2.813-7.76-5.882-11.679-8.741a139.3,139.3,0,0,0-15.82-9.911C960.078,116.788,950.529,111.265,942,106.02Z" transform="translate(-643.929 294.605)"/>
        <path id="Tracé_44" data-name="Tracé 44" class="cls-3" d="M940.751,104.917c-.041,1.9-.064,3.028-.126,3.944,8.782,5.435,17.8,10.683,26.859,15.518a137.037,137.037,0,0,1,15.82,9.915c3.919,2.856,7.715,5.9,11.679,8.738,1.494,1.047,2.985,2.07,4.54,3.028,10.406,6.439,24.728,9.359,36.838,10.7,5.926.662,12.215.831,18.185,1.045,8.868.319,17.735.534,26.6.726q17.842.351,35.686.532c21.018.215,43.339-2.281,64.189-5.264,11.276-1.622,21.382-5.032,28.352-14.517a39.481,39.481,0,0,0,4.284-8.337,57.162,57.162,0,0,0,.3-5.775c0-1.77,0-3.646.021-5.566-1.984,6.352-4.734,14.135-7.334,17.653-4.775,6.48-11.81,11.127-26.114,13.173s-41.655,5.458-63.676,5.225-67.877-.918-80.134-2.281-25.878-4.308-35.409-10.213-16.114-13.152-32.232-21.785C957.55,115.194,946.23,108.33,940.751,104.917Z" transform="translate(-642.615 293.426)"/>
        <path id="Tracé_45" data-name="Tracé 45" class="cls-3" d="M1072.154,104.917c.043,1.9.064,3.028.128,3.944-8.784,5.435-17.821,10.683-26.861,15.518a135.115,135.115,0,0,0-15.818,9.915c-3.944,2.856-7.715,5.9-11.682,8.738-1.491,1.047-3.007,2.07-4.542,3.028-10.422,6.439-24.729,9.359-36.836,10.7-5.926.662-12.213.831-18.184,1.045-8.867.319-17.736.534-26.6.726q-17.845.351-35.688.532c-21.02.215-43.359-2.281-64.187-5.264-11.276-1.622-21.382-5.032-28.373-14.517a40.381,40.381,0,0,1-4.285-8.337c-.17-1.9-.277-3.816-.277-5.775,0-1.77-.022-3.646-.043-5.566,1.984,6.352,4.753,14.135,7.355,17.653,4.753,6.48,11.789,11.127,26.094,13.173s41.655,5.458,63.676,5.225,67.875-.918,80.134-2.281,25.878-4.308,35.407-10.213c9.552-5.9,16.118-13.152,32.234-21.785C1055.356,115.194,1066.655,108.33,1072.154,104.917Z" transform="translate(-794.014 293.426)"/>
        <path id="Tracé_46" data-name="Tracé 46" class="cls-4" d="M917.654,77.393c-.511.321-.641.767-.747,1.7-.172,1.344.339,11.512.213,15.092-.107,3.562,1.491,5.332,3.924,5.671,2.451.341,6.629-.405,6.629-4.137,0-3.75.064-14.195.064-15.667,0-1.9-.3-2.621-1.854-3.113.426-5.882,1.363-14.689,2.662-26.242,1.793-15.69,2.112-63.186,2.774-70.924,1.065-12.344,1.981-26.9.211-39.415-1.874-2.263-6.244-2.643-8.612-1.578-.958,7.268-3.047,14.219-4.582,21.4-2.494,11.6.17,16.16-.277,38.073a249.664,249.664,0,0,1-5.371,45.982c-1.473,7.313-.236,17.843,1.681,24.515A70.484,70.484,0,0,0,917.654,77.393Z" transform="translate(-673.153 115.343)"/>
        <path id="Tracé_47" data-name="Tracé 47" class="cls-4" d="M961.6,14.782c.513.321.639.767.747,1.706.17,1.365-.341,11.51-.234,15.092.126,3.562-1.471,5.33-3.9,5.669-2.45.343-6.649-.4-6.649-4.134,0-3.752-.043-14.2-.043-15.669,0-1.874.3-2.621,1.855-3.113-.428-5.882-1.365-14.687-2.687-26.24-1.365-12.215-1.491-35.879.192-47.73,1.855-2.263,6.244-2.643,8.592-1.578,1.406,10.507,4.989,32.422,7.1,42.869,1.469,7.311.234,17.841-1.686,24.493A68.892,68.892,0,0,1,961.6,14.782Z" transform="translate(-632.983 115.343)"/>
        <path id="Tracé_48" data-name="Tracé 48" class="cls-3" d="M1045.19-56.294c3.88,10.935,21.936,56.812,27.864,71.863,6.586,16.691,32.872,65,39.2,77.383q1.279,2.494,2.495,4.989c.192,4.689.192,9.423.107,13.367-4.65-8.166-9.189-16.373-11.448-23.152-4.05-12.128-25.56-45.279-30.356-56.919-4.817-11.618-22.767-52.847-27.076-63.974-2.833-7.355-5.775-16.329-8.035-22.385Z" transform="translate(-538.652 121.207)"/>
        <path id="Tracé_49" data-name="Tracé 49" class="cls-3" d="M866.256-56.294C862.4-45.359,844.343.518,838.415,15.569c-6.587,16.691-32.894,65-39.2,77.383-.852,1.663-1.684,3.326-2.517,4.989-.188,4.689-.188,9.423-.085,13.367,4.629-8.166,9.189-16.373,11.45-23.152,4.05-12.128,25.539-45.279,30.356-56.919,4.8-11.618,22.747-52.847,27.051-63.974,2.835-7.355,5.8-16.329,8.037-22.385Z" transform="translate(-796.539 121.207)"/>
        <path id="Tracé_50" data-name="Tracé 50" class="cls-1" d="M823.287-82.221c3.348-.554,34.685-3.518,64.189-4.881s71.287,0,110.32.916c44.64,1.044,93.863,1.044,138.523,0,39.032-.916,80.8-2.281,110.3-.916,29.527,1.363,60.841,4.327,64.187,4.881,2.347.405,4.906,1.578,5.353,4.05a46.649,46.649,0,0,1,.639,10c4.114,6.137,5.158,27.518,2.985,31.291,1.193,2.687,1.235,7.164.747,10.042l.532.6c-9.615,1.088-28.011,3.133-33.618,3.644-7.717.683-56.131,4.817-69.517,6.29s-58.026,5.179-69.817,6.01c-58.772,4.223-103.646,4.265-162.12,0-11.789-.85-56.406-4.54-69.794-6.01-13.411-1.473-61.8-5.607-69.519-6.29-5.628-.511-24.025-2.556-33.639-3.644l.554-.6c-.492-2.877-.469-7.355.747-10.042-2.174-3.773-1.152-25.154,2.962-31.291a48.259,48.259,0,0,1,.639-10C818.385-80.643,820.943-81.815,823.287-82.221Z" transform="translate(-778.919 87.679)"/>
        <path id="Tracé_51" data-name="Tracé 51" class="cls-1" d="M1031.885-62.1c-12.153,0-36.669-1.129-45.068-1.94-8.4-.788-43.36-3.857-62.419-6.223-19.08-2.389-50.969-5.351-65.145-6.374-14.2-1-34.259-2.581-34.259-2.581s-2.089-.211-5.566-.616c-3.452-.385.343-1.812,4.437-2.217,4.093-.383,11.063-1.3,15.028-1.578,3.988-.3,23.258-1.686,28.416-1.963s27.246-1.191,34.726-1.258c7.483-.041,26.094.577,35.409.79,9.317.234,58.241,1.152,68.346,1.706,29.93,1.684,81.794,1.684,111.747,0,10.1-.554,59.029-1.473,68.324-1.706,9.316-.213,27.926-.831,35.43-.79,7.483.066,29.568.98,34.727,1.258s24.43,1.665,28.4,1.963c3.986.277,10.958,1.2,15.051,1.578,4.093.405,7.886,1.833,4.412,2.217-3.454.405-5.563.616-5.563.616s-20.06,1.578-34.236,2.581c-14.2,1.024-46.087,3.986-65.147,6.374-19.08,2.366-54.042,5.435-62.439,6.223-8.379.811-32.917,1.94-45.045,1.94Z" transform="translate(-773.527 88.559)"/>
        <path id="Tracé_52" data-name="Tracé 52" class="cls-2" d="M1001.128-67.761c-12.153,0-36.668-1.129-45.068-1.94-8.4-.788-43.359-3.857-62.418-6.223-12.875-1.622-31.591-3.5-46.77-4.84,1.491-.085,2.985-.149,4.455-.215,29.5-1.363,71.287-.019,110.32.9,44.64,1.044,93.863,1.044,138.523,0,39.032-.916,80.8-2.261,110.3-.9,1.493.066,2.964.13,4.455.215-15.156,1.342-33.872,3.218-46.75,4.84-19.08,2.366-54.042,5.435-62.439,6.223-8.379.811-32.917,1.94-45.045,1.94Z" transform="translate(-742.77 94.216)"/>
        <g id="Groupe_7" data-name="Groupe 7" transform="translate(38.271 11.443)">
          <path id="Tracé_53" data-name="Tracé 53" class="cls-3" d="M815.043-37.566c0-4.67.364-6.952.641-11.425.277-4.5.916-14.435,2.387-18.739s1.642-6.352,2.666-10.383c1.6-6.246,2.215-4.478,1.343.149-.788,4.052-2.066,8.995-2.366,12.449-.342,3.967-2.408,14.966-2.643,22.983-.085,3.324-.042,3.282-.064,5.051C816.878-32.449,815.043-32.9,815.043-37.566Z" transform="translate(-815.043 82.146)"/>
          <path id="Tracé_54" data-name="Tracé 54" class="cls-3" d="M822.985-78.507c-.193,1.152-.385,2.581-.469,3.859-.193,2.792-2.9,9.975-3.285,14.027-.405,4.029-1.257,13.152-1.6,16.842-.277,3-.426,4.134-.49,5.924-.149,5.9,1.28,4.542,1.665-.3.255-3.413.424-8.294.809-11.363.534-3.859,1.491-11.576,1.938-14.581s1.984-5.605,2.623-10.041c.172-1.32.321-2.728.405-3.965C824.9-83.453,823.58-82.516,822.985-78.507Z" transform="translate(-812.813 82.498)"/>
          <path id="Tracé_55" data-name="Tracé 55" class="cls-3" d="M825.973-78.749c-.747,3.305-2.281,9.979-2.964,13.6-.894,4.943-2.536,14.708-2.772,18.78-.234,4.093-.788,4.157-.852,7.334s.534,7.5,1.429.958c.894-6.521,2.048-13.045,2.494-16.393s3.005-14.538,3.411-18.269c.383-3.75.554-3.75.831-5.862C828.105-82.607,826.8-82.307,825.973-78.749Z" transform="translate(-810.409 82.825)"/>
          <path id="Tracé_56" data-name="Tracé 56" class="cls-3" d="M821.076-38.1c.385-2.836.962-6.906,1.365-8.889.621-3.156,3.39-15.094,4.306-18.546.9-3.454,1.408-8.5,2.153-12.025.724-3.539,1.6-4.666,1.3-1.535-.277,3.113-.447,8.956-1.131,12.025s-3.2,13.707-4.112,17.971c-.917,4.242-1.982,7.886-2.559,11.1C821.653-33.666,820.419-33.325,821.076-38.1Z" transform="translate(-808.797 83.449)"/>
          <path id="Tracé_57" data-name="Tracé 57" class="cls-3" d="M823.565-36.078c.257-2.751.854-8.825,1.408-12.3.745-4.606,3.069-13.622,3.857-18.631.788-4.989.916-7.655,1.363-10.724.449-3.049,2.153-5.371,1.984-1.578s-1.258,12.023-2.045,16.35c-.788,4.308-2.879,12.813-3.454,17.247-.575,4.412-1.131,7.95-1.535,9.7C824.5-33.16,823.311-33.263,823.565-36.078Z" transform="translate(-805.977 83.069)"/>
          <path id="Tracé_58" data-name="Tracé 58" class="cls-3" d="M826.725-38.7c.405-2.451.939-5.841,1.237-8.122.469-3.837,2.984-16.776,3.6-20.53.639-3.752,1.045-6.929,1.578-10.337.531-3.39,1.981-4.755,1.62-1.3-.362,3.475-1.514,12.087-1.876,14.646-.385,2.558-2.366,12.193-2.794,15.2-.424,3.028-1.086,6.821-1.832,10.445C827.28-33.885,825.766-32.967,826.725-38.7Z" transform="translate(-802.891 83.368)"/>
          <path id="Tracé_59" data-name="Tracé 59" class="cls-3" d="M829.659-36.012c0-4.67.362-6.97.662-11.448.277-4.476.9-14.412,2.366-18.716,1.491-4.329,1.661-6.354,2.664-10.383,1.6-6.267,2.24-4.5,1.344.149-.769,4.029-2.07,9-2.347,12.449-.339,3.967-2.428,14.945-2.641,22.983-.107,3.324-.043,3.262-.087,5.051C831.514-30.895,829.659-31.342,829.659-36.012Z" transform="translate(-799.429 83.79)"/>
          <path id="Tracé_60" data-name="Tracé 60" class="cls-3" d="M837.587-76.975c-.169,1.175-.362,2.579-.447,3.88-.192,2.792-2.9,9.977-3.305,14.006-.383,4.027-1.235,13.175-1.576,16.861-.277,3.007-.447,4.116-.49,5.9-.172,5.907,1.257,4.563,1.64-.277.277-3.431.426-8.312.831-11.361.511-3.859,1.473-11.574,1.92-14.581.469-3.005,2-5.628,2.623-10.062.192-1.322.339-2.73.424-3.965C839.53-81.921,838.187-80.963,837.587-76.975Z" transform="translate(-797.19 84.143)"/>
          <path id="Tracé_61" data-name="Tracé 61" class="cls-3" d="M840.576-77.2c-.747,3.284-2.281,9.979-2.941,13.6-.918,4.925-2.558,14.687-2.771,18.78-.236,4.093-.809,4.137-.852,7.334-.064,3.154.513,7.481,1.407.937.9-6.523,2.045-13.045,2.494-16.391s3.005-14.519,3.411-18.271.575-3.752.852-5.841C842.729-81.073,841.408-80.774,840.576-77.2Z" transform="translate(-794.785 84.469)"/>
          <path id="Tracé_62" data-name="Tracé 62" class="cls-3" d="M835.689-36.031c.405-2.9.98-7.08,1.365-9.1.616-3.262,3.411-15.5,4.306-19.039.916-3.56,1.427-8.741,2.174-12.341.726-3.624,1.576-4.8,1.3-1.578-.3,3.2-.467,9.187-1.15,12.341-.68,3.135-3.2,14.071-4.093,18.441-.916,4.35-2,8.081-2.559,11.4C836.266-31.47,835.05-31.129,835.689-36.031Z" transform="translate(-793.179 84.471)"/>
          <path id="Tracé_63" data-name="Tracé 63" class="cls-3" d="M838.193-34.542c.259-2.751.831-8.825,1.409-12.3.724-4.583,3.047-13.622,3.859-18.608.788-4.991.9-7.655,1.365-10.726.447-3.069,2.151-5.392,1.981-1.6a163.023,163.023,0,0,1-2.047,16.35c-.811,4.306-2.9,12.811-3.475,17.247-.552,4.434-1.129,7.951-1.514,9.721C839.111-31.622,837.916-31.708,838.193-34.542Z" transform="translate(-790.356 84.709)"/>
          <path id="Tracé_64" data-name="Tracé 64" class="cls-3" d="M841.338-37.166c.426-2.43.96-5.82,1.237-8.1.469-3.857,2.987-16.8,3.625-20.55.619-3.731,1.042-6.906,1.553-10.317.536-3.413,2-4.776,1.642-1.324-.383,3.477-1.534,12.11-1.9,14.668-.362,2.536-2.366,12.195-2.771,15.2-.426,3.005-1.109,6.8-1.855,10.445C841.916-32.327,840.381-31.433,841.338-37.166Z" transform="translate(-787.276 85.009)"/>
          <path id="Tracé_65" data-name="Tracé 65" class="cls-3" d="M844.4-35.114c0-4.668.364-6.949.662-11.425.277-4.5.9-14.432,2.387-18.739,1.47-4.308,1.64-6.354,2.664-10.383,1.578-6.246,2.219-4.478,1.324.17-.769,4.031-2.048,8.976-2.348,12.43-.339,3.965-2.428,14.964-2.643,22.981-.1,3.346-.042,3.282-.085,5.051C846.251-30,844.4-30.446,844.4-35.114Z" transform="translate(-783.684 84.768)"/>
          <path id="Tracé_66" data-name="Tracé 66" class="cls-3" d="M852.329-76.057c-.172,1.15-.364,2.577-.449,3.857-.193,2.792-2.9,10-3.283,14.027-.4,4.029-1.257,13.152-1.6,16.842-.277,3.005-.447,4.135-.49,5.926-.172,5.9,1.258,4.542,1.64-.3.277-3.413.426-8.294.833-11.34.511-3.882,1.489-11.6,1.94-14.6s1.981-5.605,2.6-10.042c.192-1.322.339-2.728.426-3.965C854.269-81,852.926-80.044,852.329-76.057Z" transform="translate(-781.444 85.123)"/>
          <path id="Tracé_67" data-name="Tracé 67" class="cls-3" d="M855.338-76.294c-.767,3.3-2.281,9.975-2.964,13.6-.9,4.947-2.537,14.71-2.771,18.8-.236,4.072-.79,4.137-.852,7.313s.511,7.5,1.408.958c.914-6.523,2.045-13.045,2.513-16.391.449-3.349,2.984-14.542,3.39-18.269.405-3.754.575-3.754.852-5.864C857.469-80.154,856.149-79.854,855.338-76.294Z" transform="translate(-779.039 85.446)"/>
          <path id="Tracé_68" data-name="Tracé 68" class="cls-3" d="M850.427-35.648c.4-2.836.98-6.906,1.365-8.869.618-3.2,3.408-15.113,4.306-18.569.914-3.452,1.427-8.5,2.174-12.021.726-3.539,1.576-4.668,1.3-1.535-.277,3.111-.47,8.954-1.127,12.021-.685,3.071-3.22,13.711-4.116,17.973-.916,4.242-1.981,7.886-2.559,11.107C851-31.214,849.789-30.874,850.427-35.648Z" transform="translate(-777.434 86.07)"/>
          <path id="Tracé_69" data-name="Tracé 69" class="cls-3" d="M852.929-33.625c.256-2.751.854-8.825,1.409-12.3.747-4.6,3.069-13.622,3.857-18.61.79-5.009.9-7.675,1.365-10.745.447-3.049,2.155-5.371,1.983-1.578s-1.26,12.023-2.048,16.35c-.788,4.308-2.9,12.813-3.475,17.247-.554,4.412-1.129,7.95-1.512,9.7C853.868-30.7,852.675-30.812,852.929-33.625Z" transform="translate(-774.607 85.689)"/>
          <path id="Tracé_70" data-name="Tracé 70" class="cls-3" d="M856.079-36.249c.424-2.451.958-5.82,1.235-8.1.47-3.857,2.985-16.8,3.624-20.55.62-3.75,1.046-6.927,1.578-10.337.511-3.39,1.981-4.755,1.619-1.3-.362,3.475-1.535,12.087-1.9,14.643s-2.346,12.195-2.77,15.223c-.428,3.005-1.109,6.8-1.834,10.424C856.654-31.432,855.117-30.535,856.079-36.249Z" transform="translate(-771.53 85.988)"/>
          <path id="Tracé_71" data-name="Tracé 71" class="cls-3" d="M859.023-33.559c0-4.67.364-6.97.641-11.448.3-4.478.916-14.412,2.387-18.716,1.472-4.329,1.642-6.352,2.666-10.383,1.576-6.267,2.238-4.5,1.342.149-.788,4.029-2.066,8.995-2.366,12.449-.341,3.967-2.41,14.945-2.643,22.983-.085,3.324-.042,3.262-.085,5.051C860.858-28.442,859.023-28.891,859.023-33.559Z" transform="translate(-768.06 86.411)"/>
          <path id="Tracé_72" data-name="Tracé 72" class="cls-3" d="M866.942-74.5c-.169,1.152-.341,2.581-.428,3.859-.188,2.792-2.9,9.975-3.3,14.006s-1.255,13.173-1.6,16.863c-.277,3.005-.426,4.112-.49,5.9-.149,5.928,1.28,4.563,1.663-.277.256-3.433.426-8.314.831-11.363.513-3.859,1.47-11.576,1.917-14.581s1.984-5.628,2.623-10.06c.172-1.3.321-2.73.406-3.967C868.88-79.469,867.56-78.511,866.942-74.5Z" transform="translate(-765.83 86.765)"/>
          <path id="Tracé_73" data-name="Tracé 73" class="cls-3" d="M869.952-74.746c-.767,3.284-2.281,9.979-2.941,13.6-.917,4.945-2.558,14.687-2.794,18.78-.211,4.093-.788,4.137-.853,7.334-.043,3.154.534,7.483,1.429.958s2.046-13.067,2.494-16.414,3-14.517,3.411-18.269c.383-3.729.554-3.729.852-5.841C872.084-78.6,870.783-78.326,869.952-74.746Z" transform="translate(-763.425 87.093)"/>
          <path id="Tracé_74" data-name="Tracé 74" class="cls-3" d="M865.056-33.582c.385-2.9.982-7.078,1.365-9.1.62-3.262,3.39-15.5,4.306-19.039.918-3.56,1.429-8.741,2.153-12.364.747-3.6,1.578-4.755,1.3-1.555s-.447,9.187-1.132,12.344c-.68,3.133-3.2,14.068-4.112,18.439-.9,4.37-1.986,8.079-2.559,11.4C865.633-29.019,864.4-28.68,865.056-33.582Z" transform="translate(-761.814 87.095)"/>
          <path id="Tracé_75" data-name="Tracé 75" class="cls-3" d="M867.545-32.071c.257-2.771.854-8.848,1.406-12.323.747-4.581,3.072-13.622,3.859-18.608s.917-7.655,1.365-10.724,2.151-5.394,1.981-1.578a163.1,163.1,0,0,1-2.025,16.329c-.811,4.306-2.9,12.834-3.475,17.247-.575,4.432-1.131,7.951-1.535,9.7C868.484-29.171,867.291-29.256,867.545-32.071Z" transform="translate(-758.993 87.332)"/>
          <path id="Tracé_76" data-name="Tracé 76" class="cls-3" d="M870.575-34.236c.405-2.451.939-5.841,1.216-8.1.469-3.882,3.005-16.819,3.624-20.55.616-3.752,1.044-6.929,1.578-10.341.511-3.409,1.982-4.751,1.62-1.3s-1.514,12.087-1.9,14.646c-.364,2.556-2.346,12.195-2.774,15.2s-1.108,6.821-1.832,10.447C871.13-29.417,869.6-28.5,870.575-34.236Z" transform="translate(-756.055 88.133)"/>
          <path id="Tracé_77" data-name="Tracé 77" class="cls-3" d="M873.793-32.392c0-4.668.362-6.949.641-11.448.3-4.478.916-14.41,2.387-18.716,1.493-4.308,1.642-6.354,2.687-10.383,1.576-6.246,2.217-4.478,1.321.151-.765,4.05-2.068,8.995-2.366,12.449-.319,3.965-2.408,14.964-2.623,22.979-.105,3.326-.043,3.284-.085,5.053C875.648-27.275,873.793-27.724,873.793-32.392Z" transform="translate(-752.281 87.674)"/>
          <path id="Tracé_78" data-name="Tracé 78" class="cls-3" d="M881.724-73.33c-.192,1.15-.364,2.577-.449,3.857-.193,2.794-2.9,9.977-3.3,14.027-.385,4.008-1.237,13.152-1.578,16.842-.277,3.005-.447,4.134-.488,5.926-.171,5.9,1.258,4.542,1.64-.3.279-3.413.426-8.294.831-11.363.513-3.859,1.47-11.576,1.917-14.581.47-3.007,1.986-5.628,2.625-10.039.19-1.324.341-2.728.4-3.988C883.662-78.278,882.32-77.339,881.724-73.33Z" transform="translate(-750.041 88.025)"/>
          <path id="Tracé_79" data-name="Tracé 79" class="cls-3" d="M884.709-73.574c-.743,3.282-2.279,9.975-2.939,13.6-.916,4.947-2.559,14.71-2.794,18.782-.213,4.093-.788,4.157-.83,7.334-.066,3.175.511,7.483,1.4.96s2.048-13.047,2.5-16.393c.467-3.369,3.005-14.54,3.408-18.269.407-3.754.577-3.754.854-5.864C886.844-77.433,885.543-77.133,884.709-73.574Z" transform="translate(-747.636 88.352)"/>
          <path id="Tracé_80" data-name="Tracé 80" class="cls-3" d="M879.823-32.944c.385-2.815.982-6.908,1.365-8.869.619-3.175,3.411-15.092,4.306-18.546.916-3.475,1.427-8.507,2.153-12.046.747-3.516,1.6-4.647,1.3-1.535-.277,3.133-.449,8.974-1.129,12.044s-3.2,13.711-4.114,17.951c-.9,4.263-1.984,7.888-2.538,11.129C880.4-28.489,879.184-28.15,879.823-32.944Z" transform="translate(-746.032 88.973)"/>
          <path id="Tracé_81" data-name="Tracé 81" class="cls-3" d="M882.325-30.9c.257-2.774.834-8.825,1.407-12.323.726-4.581,3.051-13.6,3.839-18.61.809-4.987.916-7.653,1.386-10.722.447-3.049,2.151-5.394,1.981-1.578A164.272,164.272,0,0,1,888.892-57.8c-.809,4.3-2.9,12.834-3.475,17.266-.554,4.412-1.132,7.93-1.535,9.7C883.244-27.979,882.071-28.086,882.325-30.9Z" transform="translate(-743.204 88.591)"/>
          <path id="Tracé_82" data-name="Tracé 82" class="cls-3" d="M885.474-33.528c.406-2.451.96-5.841,1.237-8.12.47-3.839,2.985-16.8,3.624-20.532.619-3.75,1.043-6.927,1.557-10.337.532-3.39,2-4.755,1.64-1.3-.385,3.452-1.535,12.089-1.9,14.643s-2.366,12.195-2.794,15.2c-.4,3.005-1.088,6.821-1.812,10.445C886.049-28.709,884.514-27.814,885.474-33.528Z" transform="translate(-740.127 88.895)"/>
          <path id="Tracé_83" data-name="Tracé 83" class="cls-3" d="M888.409-30.836c0-4.689.385-6.97.662-11.448s.917-14.41,2.387-18.716c1.47-4.329,1.642-6.374,2.664-10.4,1.578-6.246,2.217-4.478,1.323.17-.769,4.029-2.047,8.976-2.345,12.428-.343,3.988-2.409,14.966-2.643,23-.085,3.324-.043,3.262-.085,5.051C890.264-25.719,888.409-26.168,888.409-30.836Z" transform="translate(-736.667 89.316)"/>
          <path id="Tracé_84" data-name="Tracé 84" class="cls-3" d="M896.338-71.8c-.17,1.171-.362,2.577-.447,3.855-.193,2.815-2.9,10-3.284,14.029-.4,4.029-1.255,13.152-1.6,16.863-.277,3.005-.426,4.112-.492,5.9-.17,5.9,1.258,4.563,1.642-.277.277-3.431.428-8.315.831-11.363.511-3.859,1.493-11.576,1.942-14.6.447-3.005,1.981-5.605,2.6-10.037.19-1.324.339-2.73.424-3.967C898.278-76.747,896.936-75.787,896.338-71.8Z" transform="translate(-734.429 89.671)"/>
          <path id="Tracé_85" data-name="Tracé 85" class="cls-3" d="M899.35-72.038c-.77,3.3-2.281,10-2.966,13.6-.893,4.947-2.536,14.712-2.769,18.8s-.79,4.135-.854,7.309.533,7.506,1.429.962c.9-6.525,2.025-13.049,2.494-16.4.447-3.346,3.005-14.517,3.413-18.269.381-3.752.552-3.752.829-5.841C901.48-75.9,900.181-75.6,899.35-72.038Z" transform="translate(-732.024 89.994)"/>
          <path id="Tracé_86" data-name="Tracé 86" class="cls-3" d="M894.453-30.856c.385-2.9.959-7.078,1.342-9.1.618-3.26,3.413-15.5,4.329-19.057.9-3.537,1.406-8.72,2.153-12.344.724-3.6,1.578-4.774,1.3-1.557-.277,3.2-.448,9.189-1.131,12.346-.683,3.133-3.2,14.068-4.114,18.418-.916,4.37-1.981,8.1-2.558,11.427C895.03-26.3,893.793-25.954,894.453-30.856Z" transform="translate(-730.411 89.997)"/>
          <path id="Tracé_87" data-name="Tracé 87" class="cls-3" d="M896.941-29.37c.257-2.749.853-8.825,1.407-12.3.747-4.6,3.069-13.622,3.859-18.61.788-5.009.916-7.675,1.365-10.722.447-3.071,2.151-5.394,1.981-1.6a164.038,164.038,0,0,1-2.048,16.352c-.788,4.3-2.9,12.811-3.454,17.245-.573,4.432-1.15,7.953-1.534,9.7C897.878-26.448,896.685-26.535,896.941-29.37Z" transform="translate(-727.59 90.237)"/>
          <path id="Tracé_88" data-name="Tracé 88" class="cls-3" d="M900.084-31.993c.426-2.451.962-5.818,1.237-8.1.469-3.859,2.984-16.8,3.625-20.55.616-3.731,1.042-6.929,1.576-10.319.513-3.413,1.981-4.776,1.619-1.322-.362,3.473-1.514,12.108-1.9,14.646-.362,2.556-2.345,12.213-2.771,15.22s-1.108,6.8-1.833,10.445C900.662-27.173,899.146-26.257,900.084-31.993Z" transform="translate(-724.51 90.536)"/>
          <path id="Tracé_89" data-name="Tracé 89" class="cls-3" d="M903.148-29.939c0-4.668.385-6.949.662-11.427.277-4.5.916-14.43,2.387-18.739s1.64-6.352,2.664-10.381c1.6-6.246,2.219-4.476,1.342.151-.788,4.027-2.066,8.995-2.366,12.449-.339,3.963-2.407,14.964-2.643,22.979-.085,3.328-.042,3.284-.064,5.055C905-24.824,903.148-25.271,903.148-29.939Z" transform="translate(-720.922 90.295)"/>
          <path id="Tracé_90" data-name="Tracé 90" class="cls-3" d="M911.1-70.879c-.192,1.15-.385,2.579-.469,3.857-.193,2.794-2.9,10-3.282,14-.406,4.031-1.237,13.177-1.6,16.865-.254,3.005-.428,4.137-.49,5.926-.171,5.9,1.278,4.54,1.663-.3.254-3.411.426-8.294.809-11.363.511-3.857,1.493-11.576,1.942-14.581s1.981-5.628,2.62-10.039c.172-1.324.319-2.73.4-3.967C913.019-75.826,911.695-74.887,911.1-70.879Z" transform="translate(-718.683 90.647)"/>
          <path id="Tracé_91" data-name="Tracé 91" class="cls-3" d="M914.086-71.12c-.747,3.282-2.281,9.975-2.943,13.6-.916,4.947-2.558,14.712-2.792,18.782-.213,4.093-.79,4.157-.852,7.332-.042,3.177.531,7.483,1.427.962s2.048-13.049,2.494-16.4,3.007-14.538,3.411-18.29c.385-3.731.554-3.731.831-5.841C916.217-74.979,914.916-74.682,914.086-71.12Z" transform="translate(-716.276 90.973)"/>
          <path id="Tracé_92" data-name="Tracé 92" class="cls-3" d="M910.079-30.169c.236-2.836.618-6.929.916-8.91.469-3.2,2.666-15.243,3.39-18.761.747-3.5,1-8.569,1.578-12.108.554-3.562,1.342-4.734,1.214-1.6s0,8.974-.534,12.066-2.535,13.855-3.239,18.139c-.683,4.308-1.6,7.975-2,11.235C910.869-25.758,909.653-25.352,910.079-30.169Z" transform="translate(-713.613 91.528)"/>
          <path id="Tracé_93" data-name="Tracé 93" class="cls-3" d="M912.262-28.269c.215-2.751.7-8.848,1.193-12.323.662-4.6,2.856-13.665,3.562-18.677s.765-7.671,1.173-10.743,2.066-5.435,1.959-1.622a162.039,162.039,0,0,1-1.766,16.373c-.726,4.329-2.689,12.877-3.177,17.289-.492,4.455-1,7.975-1.365,9.744C913.242-25.372,912.049-25.457,912.262-28.269Z" transform="translate(-711.212 91.27)"/>
          <path id="Tracé_94" data-name="Tracé 94" class="cls-3" d="M915.163-30.853c.319-2.472.7-5.882.9-8.164.3-3.859,2.281-16.9,2.771-20.658.469-3.793.745-6.97,1.129-10.4.385-3.409,1.791-4.838,1.578-1.363-.234,3.475-1.024,12.13-1.281,14.71-.277,2.556-1.855,12.279-2.151,15.305s-.811,6.844-1.388,10.511C915.93-26.057,914.439-25.1,915.163-30.853Z" transform="translate(-708.293 91.443)"/>
          <path id="Tracé_95" data-name="Tracé 95" class="cls-3" d="M918.369-28.927c-.277-4.67-.042-6.97-.042-11.448.021-4.5.062-14.453,1.3-18.846,1.214-4.391,1.257-6.437,2.045-10.53,1.216-6.333,1.963-4.606,1.343.085-.554,4.072-1.535,9.1-1.62,12.557-.108,3.986-1.535,15.072-1.3,23.109.105,3.324.151,3.262.236,5.03C920.5-23.94,918.646-24.259,918.369-28.927Z" transform="translate(-704.806 90.989)"/>
          <path id="Tracé_96" data-name="Tracé 96" class="cls-3" d="M923.834-70.281c-.126,1.173-.213,2.6-.234,3.88-.021,2.813-2.3,10.149-2.451,14.176-.172,4.052-.469,13.218-.6,16.927-.107,3.028-.213,4.157-.149,5.948.192,5.9,1.534,4.455,1.62-.405.085-3.411-.043-8.292.169-11.382.277-3.882.788-11.64,1.065-14.668s1.665-5.735,2-10.19c.13-1.322.192-2.751.192-3.986C925.453-75.332,924.2-74.31,923.834-70.281Z" transform="translate(-702.511 91.219)"/>
          <path id="Tracé_97" data-name="Tracé 97" class="cls-3" d="M926.861-70.667c-.577,3.346-1.7,10.1-2.155,13.748-.6,4.989-1.681,14.836-1.661,18.929s-.554,4.18-.428,7.355.962,7.442,1.493.875c.492-6.565,1.258-13.154,1.514-16.521s2.153-14.666,2.325-18.439c.17-3.754.339-3.773.511-5.884C928.757-74.657,927.479-74.272,926.861-70.667Z" transform="translate(-700.144 91.374)"/>
          <path id="Tracé_98" data-name="Tracé 98" class="cls-3" d="M925.056-28.854c.062-2.922.213-7.144.362-9.189.277-3.326,1.727-15.775,2.259-19.4.511-3.624.469-8.848.811-12.513s1.065-4.9,1.129-1.706c.064,3.218.534,9.208.213,12.408-.341,3.2-1.684,14.323-2.13,18.759-.426,4.434-1.088,8.271-1.3,11.618C926.121-24.378,924.926-23.911,925.056-28.854Z" transform="translate(-697.528 91.385)"/>
          <path id="Tracé_99" data-name="Tracé 99" class="cls-3" d="M927.859-26.944c-.043-2.813-.107-9.018.063-12.577.233-4.732,1.578-14.091,1.834-19.208.255-5.136.085-7.845.192-10.978.126-3.156,1.576-5.692,1.812-1.832s.041,12.279-.277,16.734c-.321,4.432-1.493,13.26-1.578,17.777-.085,4.544-.277,8.145-.469,9.979C929.094-24.11,927.9-24.065,927.859-26.944Z" transform="translate(-694.576 91.393)"/>
          <path id="Tracé_100" data-name="Tracé 100" class="cls-3" d="M930.629-29.171c.108-2.558.192-6.1.192-8.463-.041-4.008.809-17.587.98-21.51.128-3.9.149-7.227.236-10.788.085-3.537,1.363-5.136,1.448-1.535.064,3.582.022,12.579-.021,15.245s-.788,12.788-.811,15.924c-.041,3.133-.233,7.119-.49,10.935C931.8-24.288,930.4-23.181,930.629-29.171Z" transform="translate(-691.592 91.382)"/>
          <path id="Tracé_101" data-name="Tracé 101" class="cls-3" d="M933.166-29.187c.044-2.558.106-6.1.044-8.443-.085-4.006.575-17.566.66-21.467.087-3.921.044-7.227.064-10.765.043-3.539,1.3-5.158,1.427-1.557.13,3.562.215,12.536.236,15.179,0,2.664-.6,12.79-.575,15.9,0,3.135-.13,7.121-.341,10.916C934.426-24.37,933.038-23.22,933.166-29.187Z" transform="translate(-688.863 91.441)"/>
        </g>
        <g id="Groupe_8" data-name="Groupe 8" transform="translate(291.271 11.443)">
          <path id="Tracé_102" data-name="Tracé 102" class="cls-2" d="M1060.5-37.566c0-4.67-.362-6.952-.66-11.425-.277-4.5-.9-14.435-2.368-18.739s-1.661-6.352-2.662-10.383c-1.6-6.246-2.24-4.478-1.342.149.765,4.052,2.045,8.995,2.343,12.449.341,3.967,2.43,14.966,2.644,22.983.105,3.324.041,3.282.087,5.051C1058.65-32.449,1060.5-32.9,1060.5-37.566Z" transform="translate(-813.771 82.146)"/>
          <path id="Tracé_103" data-name="Tracé 103" class="cls-2" d="M1052.6-78.507c.172,1.152.362,2.581.447,3.859.193,2.792,2.9,9.975,3.305,14.027.383,4.029,1.237,13.152,1.576,16.842.279,3,.449,4.134.492,5.924.17,5.9-1.258,4.542-1.642-.3-.277-3.413-.426-8.294-.832-11.363-.511-3.859-1.471-11.576-1.94-14.581-.449-3.005-1.984-5.605-2.6-10.041-.192-1.32-.342-2.728-.4-3.965C1050.657-83.453,1052-82.516,1052.6-78.507Z" transform="translate(-816.033 82.498)"/>
          <path id="Tracé_104" data-name="Tracé 104" class="cls-2" d="M1050.029-78.749c.747,3.305,2.281,9.979,2.943,13.6.916,4.943,2.559,14.708,2.769,18.78.236,4.093.813,4.157.855,7.334.062,3.175-.511,7.5-1.407.958-.9-6.521-2.048-13.045-2.494-16.393s-3.008-14.538-3.413-18.269c-.4-3.75-.573-3.75-.85-5.862C1047.876-82.607,1049.2-82.307,1050.029-78.749Z" transform="translate(-818.859 82.825)"/>
          <path id="Tracé_105" data-name="Tracé 105" class="cls-2" d="M1055.476-38.1c-.405-2.836-.98-6.906-1.365-8.889-.618-3.156-3.39-15.094-4.3-18.546s-1.431-8.5-2.155-12.025c-.747-3.539-1.6-4.666-1.322-1.535.3,3.113.47,8.956,1.15,12.025s3.2,13.707,4.093,17.971c.919,4.242,2,7.886,2.561,11.1C1054.9-33.666,1056.115-33.325,1055.476-38.1Z" transform="translate(-821.021 83.449)"/>
          <path id="Tracé_106" data-name="Tracé 106" class="cls-2" d="M1052.6-36.078c-.254-2.751-.832-8.825-1.409-12.3-.724-4.606-3.046-13.622-3.857-18.631-.788-4.989-.9-7.655-1.344-10.724-.468-3.049-2.174-5.371-2-1.578s1.259,12.023,2.048,16.35c.811,4.308,2.9,12.813,3.477,17.247.555,4.412,1.127,7.95,1.512,9.7C1051.663-33.16,1052.88-33.263,1052.6-36.078Z" transform="translate(-823.478 83.069)"/>
          <path id="Tracé_107" data-name="Tracé 107" class="cls-2" d="M1049.328-38.7c-.426-2.451-.958-5.841-1.235-8.122-.469-3.837-2.984-16.776-3.6-20.53-.639-3.752-1.065-6.929-1.576-10.337-.532-3.39-2-4.755-1.643-1.3.385,3.475,1.535,12.087,1.9,14.646s2.366,12.193,2.769,15.2c.428,3.028,1.109,6.821,1.835,10.445C1048.753-33.885,1050.288-32.967,1049.328-38.7Z" transform="translate(-826.429 83.368)"/>
          <path id="Tracé_108" data-name="Tracé 108" class="cls-2" d="M1045.891-36.012c0-4.67-.385-6.97-.662-11.448s-.9-14.412-2.389-18.716c-1.471-4.329-1.64-6.354-2.664-10.383-1.576-6.267-2.217-4.5-1.321.149.765,4.029,2.045,9,2.345,12.449.339,3.967,2.409,14.945,2.643,22.983.085,3.324.043,3.262.085,5.051C1044.036-30.895,1045.891-31.342,1045.891-36.012Z" transform="translate(-829.385 83.79)"/>
          <path id="Tracé_109" data-name="Tracé 109" class="cls-2" d="M1037.99-76.975c.172,1.175.364,2.579.448,3.88.193,2.792,2.9,9.977,3.283,14.006.405,4.027,1.258,13.175,1.6,16.861.277,3.007.446,4.116.488,5.9.151,5.907-1.258,4.563-1.64-.277-.279-3.431-.426-8.312-.831-11.361-.513-3.859-1.491-11.574-1.94-14.581s-1.981-5.628-2.6-10.062c-.19-1.322-.341-2.73-.426-3.965C1036.052-81.921,1037.373-80.963,1037.99-76.975Z" transform="translate(-831.656 84.143)"/>
          <path id="Tracé_110" data-name="Tracé 110" class="cls-2" d="M1035.4-77.2c.765,3.284,2.282,9.979,2.941,13.6.916,4.925,2.558,14.687,2.794,18.78s.788,4.137.85,7.334c.043,3.154-.531,7.481-1.427.937-.9-6.523-2.027-13.045-2.492-16.391s-3.007-14.519-3.413-18.271c-.385-3.752-.554-3.752-.854-5.841C1033.269-81.073,1034.57-80.774,1035.4-77.2Z" transform="translate(-834.481 84.469)"/>
          <path id="Tracé_111" data-name="Tracé 111" class="cls-2" d="M1040.838-36.031c-.383-2.9-.959-7.08-1.342-9.1-.639-3.262-3.41-15.5-4.329-19.039-.894-3.56-1.4-8.741-2.151-12.341-.747-3.624-1.578-4.8-1.3-1.578.277,3.2.446,9.187,1.129,12.341.682,3.135,3.218,14.071,4.113,18.441.917,4.35,1.984,8.081,2.559,11.4C1040.263-31.47,1041.5-31.129,1040.838-36.031Z" transform="translate(-836.635 84.471)"/>
          <path id="Tracé_112" data-name="Tracé 112" class="cls-2" d="M1037.984-34.542c-.254-2.751-.852-8.825-1.4-12.3-.747-4.583-3.071-13.622-3.86-18.608s-.916-7.655-1.365-10.726-2.153-5.392-1.981-1.6a157.11,157.11,0,0,0,2.045,16.35c.79,4.306,2.879,12.811,3.454,17.247s1.129,7.951,1.532,9.721C1037.048-31.622,1038.241-31.708,1037.984-34.542Z" transform="translate(-839.09 84.709)"/>
          <path id="Tracé_113" data-name="Tracé 113" class="cls-2" d="M1034.693-37.166c-.405-2.43-.939-5.82-1.216-8.1-.469-3.857-2.984-16.8-3.624-20.55-.618-3.731-1.046-6.906-1.578-10.317-.511-3.413-1.981-4.776-1.62-1.324.362,3.477,1.512,12.11,1.876,14.668.383,2.536,2.364,12.195,2.792,15.2.406,3.005,1.111,6.8,1.835,10.445C1034.138-32.327,1035.65-31.433,1034.693-37.166Z" transform="translate(-842.042 85.009)"/>
          <path id="Tracé_114" data-name="Tracé 114" class="cls-2" d="M1031.161-35.114c0-4.668-.385-6.949-.662-11.425-.3-4.5-.919-14.432-2.389-18.739s-1.642-6.354-2.664-10.383c-1.578-6.246-2.238-4.478-1.344.17.79,4.031,2.071,8.976,2.366,12.43.341,3.965,2.411,14.964,2.646,22.981.085,3.346.043,3.282.062,5.051C1029.3-30,1031.161-30.446,1031.161-35.114Z" transform="translate(-845.14 84.768)"/>
          <path id="Tracé_115" data-name="Tracé 115" class="cls-2" d="M1023.251-76.057c.174,1.15.344,2.577.451,3.857.17,2.792,2.877,10,3.28,14.027s1.26,13.152,1.578,16.842c.3,3.005.447,4.135.511,5.926.151,5.9-1.276,4.542-1.64-.3-.277-3.413-.449-8.294-.853-11.34-.492-3.882-1.472-11.6-1.919-14.6s-1.981-5.605-2.622-10.042c-.17-1.322-.321-2.728-.406-3.965C1021.313-81,1022.634-80.044,1023.251-76.057Z" transform="translate(-847.401 85.123)"/>
          <path id="Tracé_116" data-name="Tracé 116" class="cls-2" d="M1020.662-76.294c.767,3.3,2.281,9.975,2.941,13.6.919,4.947,2.559,14.71,2.792,18.8.215,4.072.788,4.137.854,7.313.041,3.175-.536,7.5-1.429.958-.9-6.523-2.046-13.045-2.492-16.391s-3.007-14.542-3.413-18.269c-.385-3.754-.554-3.754-.852-5.864C1018.53-80.154,1019.831-79.854,1020.662-76.294Z" transform="translate(-850.225 85.446)"/>
          <path id="Tracé_117" data-name="Tracé 117" class="cls-2" d="M1026.1-35.648c-.385-2.836-.98-6.906-1.365-8.869-.617-3.2-3.39-15.113-4.306-18.569s-1.406-8.5-2.153-12.021c-.744-3.539-1.578-4.668-1.3-1.535.279,3.111.449,8.954,1.132,12.021s3.2,13.711,4.116,17.973c.893,4.242,1.981,7.886,2.556,11.107C1025.526-31.214,1026.762-30.874,1026.1-35.648Z" transform="translate(-852.381 86.07)"/>
          <path id="Tracé_118" data-name="Tracé 118" class="cls-2" d="M1023.246-33.625c-.255-2.751-.85-8.825-1.4-12.3-.747-4.6-3.071-13.622-3.859-18.61-.788-5.009-.918-7.675-1.365-10.745-.447-3.049-2.153-5.371-1.981-1.578a164.374,164.374,0,0,0,2.025,16.35c.811,4.308,2.9,12.813,3.472,17.247.577,4.412,1.132,7.95,1.537,9.7C1022.311-30.7,1023.5-30.812,1023.246-33.625Z" transform="translate(-854.836 85.689)"/>
          <path id="Tracé_119" data-name="Tracé 119" class="cls-2" d="M1019.954-36.249c-.407-2.451-.939-5.82-1.216-8.1-.469-3.857-3.005-16.8-3.624-20.55-.639-3.75-1.045-6.927-1.578-10.337-.533-3.39-1.983-4.755-1.619-1.3.362,3.475,1.514,12.087,1.876,14.643.383,2.561,2.366,12.195,2.792,15.223.406,3.005,1.109,6.8,1.835,10.424C1019.4-31.432,1020.912-30.535,1019.954-36.249Z" transform="translate(-857.788 85.988)"/>
          <path id="Tracé_120" data-name="Tracé 120" class="cls-2" d="M1016.523-33.559c0-4.67-.362-6.97-.657-11.448-.277-4.478-.9-14.412-2.389-18.716-1.47-4.329-1.642-6.352-2.666-10.383-1.578-6.267-2.218-4.5-1.32.149.766,4.029,2.067,8.995,2.344,12.449.342,3.967,2.43,14.945,2.643,22.983.108,3.324.041,3.262.087,5.051C1014.67-28.442,1016.523-28.891,1016.523-33.559Z" transform="translate(-860.755 86.411)"/>
          <path id="Tracé_121" data-name="Tracé 121" class="cls-2" d="M1008.617-74.5c.17,1.152.362,2.581.447,3.859.193,2.792,2.9,9.975,3.305,14.006.385,4.029,1.237,13.173,1.576,16.863.279,3.005.451,4.112.492,5.9.169,5.928-1.258,4.563-1.642-.277-.277-3.433-.426-8.314-.831-11.363-.511-3.859-1.471-11.576-1.919-14.581-.47-3.005-2-5.628-2.621-10.06-.193-1.3-.341-2.73-.4-3.967C1006.677-79.469,1008.021-78.511,1008.617-74.5Z" transform="translate(-863.016 86.765)"/>
          <path id="Tracé_122" data-name="Tracé 122" class="cls-2" d="M1006.031-74.746c.766,3.284,2.3,9.979,2.962,13.6.916,4.945,2.558,14.687,2.771,18.78.234,4.093.811,4.137.852,7.334.062,3.154-.511,7.483-1.406.958s-2.048-13.067-2.517-16.414c-.447-3.346-3.005-14.517-3.388-18.269-.405-3.729-.575-3.729-.852-5.841C1003.9-78.6,1005.218-78.326,1006.031-74.746Z" transform="translate(-865.843 87.093)"/>
          <path id="Tracé_123" data-name="Tracé 123" class="cls-2" d="M1011.473-33.582c-.362-2.9-.958-7.078-1.342-9.1-.618-3.262-3.411-15.5-4.306-19.039-.916-3.56-1.429-8.741-2.153-12.364-.747-3.6-1.6-4.755-1.322-1.555s.469,9.187,1.129,12.344c.682,3.133,3.22,14.068,4.114,18.439.918,4.37,2,8.079,2.558,11.4C1010.921-29.019,1012.135-28.68,1011.473-33.582Z" transform="translate(-868.004 87.095)"/>
          <path id="Tracé_124" data-name="Tracé 124" class="cls-2" d="M1008.622-32.071c-.254-2.771-.854-8.848-1.408-12.323-.724-4.581-3.047-13.622-3.857-18.608-.79-4.989-.893-7.655-1.363-10.724-.449-3.071-2.155-5.394-1.983-1.578.172,3.8,1.258,12.025,2.045,16.329s2.9,12.834,3.454,17.247c.577,4.432,1.15,7.951,1.535,9.7C1007.705-29.171,1008.878-29.256,1008.622-32.071Z" transform="translate(-870.46 87.332)"/>
          <path id="Tracé_125" data-name="Tracé 125" class="cls-2" d="M1005.474-34.236c-.4-2.451-.937-5.841-1.235-8.1-.47-3.882-2.984-16.819-3.6-20.55-.639-3.752-1.042-6.929-1.576-10.341s-2-4.751-1.62-1.3c.362,3.454,1.512,12.087,1.876,14.646s2.366,12.195,2.792,15.2c.406,3.005,1.086,6.821,1.833,10.447C1004.9-29.417,1006.434-28.5,1005.474-34.236Z" transform="translate(-873.261 88.133)"/>
          <path id="Tracé_126" data-name="Tracé 126" class="cls-2" d="M1001.756-32.392c0-4.668-.385-6.949-.662-11.448-.278-4.478-.918-14.41-2.387-18.716s-1.642-6.354-2.666-10.383c-1.578-6.246-2.217-4.478-1.322.151.768,4.05,2.048,8.995,2.346,12.449.341,3.965,2.409,14.964,2.645,22.979.085,3.326.042,3.284.085,5.053C999.9-27.275,1001.756-27.724,1001.756-32.392Z" transform="translate(-876.534 87.674)"/>
          <path id="Tracé_127" data-name="Tracé 127" class="cls-2" d="M993.855-73.33c.172,1.15.362,2.577.449,3.857.192,2.794,2.9,9.977,3.282,14.027.4,4.008,1.258,13.152,1.6,16.842.277,3.005.447,4.134.49,5.926.17,5.9-1.258,4.542-1.642-.3-.277-3.413-.424-8.294-.831-11.363-.511-3.859-1.491-11.576-1.94-14.581s-1.981-5.628-2.6-10.039c-.192-1.324-.341-2.728-.426-3.988C991.916-78.278,993.258-77.339,993.855-73.33Z" transform="translate(-878.803 88.025)"/>
          <path id="Tracé_128" data-name="Tracé 128" class="cls-2" d="M991.259-73.574c.767,3.282,2.281,9.975,2.964,13.6.9,4.947,2.536,14.71,2.77,18.782.236,4.093.79,4.157.854,7.334s-.51,7.483-1.427.96c-.9-6.525-2.027-13.047-2.5-16.393-.447-3.369-3.006-14.54-3.409-18.269-.385-3.754-.554-3.754-.831-5.864C989.128-77.433,990.429-77.133,991.259-73.574Z" transform="translate(-881.621 88.352)"/>
          <path id="Tracé_129" data-name="Tracé 129" class="cls-2" d="M996.7-32.944c-.383-2.815-.958-6.908-1.342-8.869-.618-3.175-3.411-15.092-4.327-18.546-.9-3.475-1.409-8.507-2.155-12.046-.724-3.516-1.576-4.647-1.3-1.535.277,3.133.448,8.974,1.129,12.044s3.2,13.711,4.116,17.951c.916,4.263,1.981,7.888,2.558,11.129C996.13-28.489,997.365-28.15,996.7-32.944Z" transform="translate(-883.783 88.973)"/>
          <path id="Tracé_130" data-name="Tracé 130" class="cls-2" d="M993.852-30.9c-.255-2.774-.852-8.825-1.406-12.323-.747-4.581-3.07-13.6-3.857-18.61-.79-4.987-.918-7.653-1.365-10.722-.447-3.049-2.155-5.394-1.983-1.578.172,3.8,1.26,12.023,2.048,16.331s2.9,12.834,3.452,17.266c.577,4.412,1.129,7.93,1.535,9.7C992.915-27.979,994.108-28.086,993.852-30.9Z" transform="translate(-886.239 88.591)"/>
          <path id="Tracé_131" data-name="Tracé 131" class="cls-2" d="M990.557-33.528c-.406-2.451-.937-5.841-1.215-8.12-.469-3.839-2.984-16.8-3.624-20.532-.621-3.75-1.046-6.927-1.578-10.337-.511-3.39-1.984-4.755-1.62-1.3s1.512,12.089,1.9,14.643c.362,2.558,2.344,12.195,2.77,15.2s1.108,6.821,1.834,10.445C990-28.709,991.54-27.814,990.557-33.528Z" transform="translate(-889.19 88.895)"/>
          <path id="Tracé_132" data-name="Tracé 132" class="cls-2" d="M987.129-30.836c0-4.689-.362-6.97-.639-11.448-.3-4.478-.916-14.41-2.389-18.716-1.471-4.329-1.64-6.374-2.664-10.4-1.6-6.246-2.238-4.478-1.342.17.788,4.029,2.066,8.976,2.366,12.428.339,3.988,2.409,14.966,2.643,23,.085,3.324.02,3.262.064,5.051C985.3-25.719,987.129-26.168,987.129-30.836Z" transform="translate(-892.157 89.316)"/>
          <path id="Tracé_133" data-name="Tracé 133" class="cls-2" d="M979.219-71.8c.192,1.171.362,2.577.449,3.855.19,2.815,2.9,10,3.3,14.029.385,4.029,1.239,13.152,1.578,16.863.277,3.005.449,4.112.511,5.9.151,5.9-1.278,4.563-1.661-.277-.256-3.431-.428-8.315-.831-11.363-.513-3.859-1.47-11.576-1.919-14.6-.467-3.005-2-5.605-2.621-10.037-.192-1.324-.343-2.73-.407-3.967C977.3-76.747,978.624-75.787,979.219-71.8Z" transform="translate(-894.418 89.671)"/>
          <path id="Tracé_134" data-name="Tracé 134" class="cls-2" d="M976.652-72.038c.747,3.3,2.281,10,2.941,13.6.916,4.947,2.559,14.712,2.794,18.8.211,4.093.788,4.135.85,7.309.043,3.177-.531,7.506-1.427.962-.9-6.525-2.046-13.049-2.494-16.4s-3.006-14.517-3.411-18.269-.575-3.752-.854-5.841C974.52-75.9,975.821-75.6,976.652-72.038Z" transform="translate(-897.242 89.994)"/>
          <path id="Tracé_135" data-name="Tracé 135" class="cls-2" d="M982.1-30.856c-.383-2.9-.98-7.078-1.363-9.1-.621-3.26-3.39-15.5-4.308-19.057-.916-3.537-1.427-8.72-2.151-12.344-.746-3.6-1.6-4.774-1.323-1.557.3,3.2.469,9.189,1.152,12.346.683,3.133,3.2,14.068,4.114,18.418.9,4.37,1.983,8.1,2.536,11.427C981.524-26.3,982.759-25.954,982.1-30.856Z" transform="translate(-899.408 89.997)"/>
          <path id="Tracé_136" data-name="Tracé 136" class="cls-2" d="M979.238-29.37c-.256-2.749-.854-8.825-1.406-12.3-.747-4.6-3.071-13.622-3.859-18.61-.811-5.009-.917-7.675-1.365-10.722-.447-3.071-2.174-5.394-1.982-1.6a164.512,164.512,0,0,0,2.023,16.352c.813,4.3,2.9,12.811,3.477,17.245.554,4.432,1.129,7.953,1.534,9.7C978.3-26.448,979.492-26.535,979.238-29.37Z" transform="translate(-901.853 90.237)"/>
          <path id="Tracé_137" data-name="Tracé 137" class="cls-2" d="M975.946-31.993c-.406-2.451-.939-5.818-1.237-8.1-.469-3.859-2.985-16.8-3.6-20.55-.639-3.731-1.065-6.929-1.578-10.319-.532-3.413-2-4.776-1.62-1.322.362,3.473,1.512,12.108,1.876,14.646.362,2.556,2.366,12.213,2.771,15.22.426,3.005,1.109,6.8,1.855,10.445C975.369-27.173,976.906-26.257,975.946-31.993Z" transform="translate(-904.807 90.536)"/>
          <path id="Tracé_138" data-name="Tracé 138" class="cls-2" d="M972.39-29.939c0-4.668-.362-6.949-.662-11.427-.277-4.5-.894-14.43-2.366-18.739-1.491-4.3-1.663-6.352-2.664-10.381-1.6-6.246-2.238-4.476-1.344.151.769,4.027,2.068,8.995,2.345,12.449.343,3.963,2.432,14.964,2.643,22.979.107,3.328.043,3.284.085,5.055C970.535-24.824,972.39-25.271,972.39-29.939Z" transform="translate(-907.903 90.295)"/>
          <path id="Tracé_139" data-name="Tracé 139" class="cls-2" d="M964.485-70.879c.169,1.15.362,2.579.446,3.857.193,2.794,2.9,10,3.3,14,.385,4.031,1.239,13.177,1.578,16.865.277,3.005.449,4.137.492,5.926.17,5.9-1.259,4.54-1.642-.3-.277-3.411-.428-8.294-.831-11.363-.513-3.857-1.471-11.576-1.94-14.581-.449-3.007-1.984-5.628-2.6-10.039-.192-1.324-.342-2.73-.407-3.967C962.545-75.826,963.887-74.887,964.485-70.879Z" transform="translate(-910.166 90.647)"/>
          <path id="Tracé_140" data-name="Tracé 140" class="cls-2" d="M961.893-71.12c.77,3.282,2.3,9.975,2.966,13.6.894,4.947,2.556,14.712,2.769,18.782.236,4.093.811,4.157.854,7.332.062,3.177-.513,7.483-1.409.962s-2.045-13.049-2.492-16.4c-.469-3.344-3.007-14.538-3.413-18.29-.4-3.731-.577-3.731-.852-5.841C959.763-74.979,961.084-74.682,961.893-71.12Z" transform="translate(-912.991 90.973)"/>
          <path id="Tracé_141" data-name="Tracé 141" class="cls-2" d="M965.356-30.169c-.254-2.836-.639-6.929-.916-8.91-.469-3.2-2.664-15.243-3.41-18.761-.724-3.5-.981-8.569-1.556-12.108-.554-3.562-1.365-4.734-1.239-1.6s.023,8.974.554,12.066,2.538,13.855,3.22,18.139c.7,4.308,1.6,7.975,2.025,11.235C964.568-25.758,965.782-25.352,965.356-30.169Z" transform="translate(-915.088 91.528)"/>
          <path id="Tracé_142" data-name="Tracé 142" class="cls-2" d="M963.543-28.269c-.215-2.751-.705-8.848-1.216-12.323-.638-4.6-2.835-13.665-3.539-18.677S958-66.94,957.6-70.012s-2.068-5.435-1.961-1.622c.1,3.8,1.065,12.046,1.768,16.373.724,4.329,2.687,12.877,3.175,17.289.513,4.455,1.024,7.975,1.388,9.744C962.561-25.372,963.754-25.457,963.543-28.269Z" transform="translate(-917.857 91.27)"/>
          <path id="Tracé_143" data-name="Tracé 143" class="cls-2" d="M959.925-30.853c-.3-2.472-.7-5.882-.875-8.164-.318-3.859-2.3-16.9-2.769-20.658-.469-3.793-.769-6.97-1.15-10.4-.385-3.409-1.793-4.838-1.557-1.363.211,3.475,1.022,12.13,1.278,14.71.256,2.556,1.855,12.279,2.133,15.305.3,3.028.831,6.844,1.406,10.511C959.158-26.057,960.651-25.1,959.925-30.853Z" transform="translate(-920.082 91.443)"/>
          <path id="Tracé_144" data-name="Tracé 144" class="cls-2" d="M955.92-28.927c.277-4.67.043-6.97.02-11.448-.02-4.5-.062-14.453-1.278-18.846s-1.258-6.437-2.048-10.53c-1.214-6.333-1.961-4.606-1.342.085.531,4.072,1.535,9.1,1.619,12.557C953-53.124,954.429-42.038,954.17-34c-.1,3.324-.147,3.262-.211,5.03C953.767-23.94,955.643-24.259,955.92-28.927Z" transform="translate(-922.749 90.989)"/>
          <path id="Tracé_145" data-name="Tracé 145" class="cls-2" d="M950.49-70.281c.105,1.173.213,2.6.213,3.88.044,2.813,2.3,10.149,2.474,14.176.149,4.052.469,13.218.6,16.927.085,3.028.193,4.157.128,5.948-.17,5.9-1.512,4.455-1.619-.405-.064-3.411.064-8.292-.151-11.382-.3-3.882-.809-11.64-1.065-14.668-.277-3.028-1.663-5.735-2.025-10.19-.105-1.322-.17-2.751-.17-3.986C948.847-75.332,950.128-74.31,950.49-70.281Z" transform="translate(-925.079 91.219)"/>
          <path id="Tracé_146" data-name="Tracé 146" class="cls-2" d="M947.875-70.667c.577,3.346,1.707,10.1,2.153,13.748.62,4.989,1.686,14.836,1.686,18.929-.023,4.093.531,4.18.4,7.355s-.958,7.442-1.469.875-1.28-13.154-1.516-16.521c-.277-3.369-2.151-14.666-2.343-18.439-.172-3.754-.342-3.773-.493-5.884C945.979-74.657,947.28-74.272,947.875-70.667Z" transform="translate(-927.879 91.374)"/>
          <path id="Tracé_147" data-name="Tracé 147" class="cls-2" d="M949.164-28.854c-.064-2.922-.192-7.144-.362-9.189-.279-3.326-1.727-15.775-2.24-19.4-.533-3.624-.467-8.848-.829-12.513-.344-3.667-1.069-4.9-1.132-1.706-.064,3.218-.533,9.208-.192,12.408s1.686,14.323,2.112,18.759c.447,4.434,1.108,8.271,1.32,11.618C948.117-24.378,949.313-23.911,949.164-28.854Z" transform="translate(-929.976 91.385)"/>
          <path id="Tracé_148" data-name="Tracé 148" class="cls-2" d="M945.926-26.944c.062-2.813.128-9.018-.064-12.577-.236-4.732-1.579-14.091-1.835-19.208-.233-5.136-.062-7.845-.192-10.978-.126-3.156-1.555-5.692-1.789-1.832a164.948,164.948,0,0,0,.256,16.734c.339,4.432,1.491,13.26,1.578,17.777.1,4.544.278,8.145.488,9.979C944.689-24.11,945.883-24.065,945.926-26.944Z" transform="translate(-932.495 91.393)"/>
          <path id="Tracé_149" data-name="Tracé 149" class="cls-2" d="M942.589-29.171c-.107-2.558-.211-6.1-.192-8.463.023-4.008-.832-17.587-.98-21.51-.149-3.9-.149-7.227-.234-10.788-.085-3.537-1.386-5.136-1.45-1.535-.085,3.582-.044,12.579,0,15.245s.788,12.788.832,15.924c.021,3.133.213,7.119.49,10.935C941.416-24.288,942.8-23.181,942.589-29.171Z" transform="translate(-934.893 91.382)"/>
          <path id="Tracé_150" data-name="Tracé 150" class="cls-2" d="M939.8-29.187c-.062-2.558-.107-6.1-.062-8.443.085-4.006-.554-17.566-.641-21.467-.085-3.921-.043-7.227-.085-10.765s-1.278-5.158-1.429-1.557c-.126,3.562-.213,12.536-.213,15.179,0,2.664.6,12.79.575,15.9-.019,3.135.128,7.121.321,10.916C938.54-24.37,939.926-23.22,939.8-29.187Z" transform="translate(-937.367 91.441)"/>
        </g>
        <path id="Tracé_151" data-name="Tracé 151" class="cls-3" d="M1038.958-58.53c-8.464-.105-17.14-.747-25.6-1.3q-19.248-1.278-38.5-2.877c-17.269-1.429-34.642-2.9-51.846-4.9-15.646-1.835-31.465-3.071-47.153-4.308q-30.156-2.4-60.437-4.391l-.788-.064a10.793,10.793,0,0,1,.958-1.874s76.533,5.071,107.635,8.7S1022.2-60.7,1039-60.47c17.33.236,35.366.236,52.7,0,16.8-.234,84.674-5.458,115.776-9.082,31.082-3.624,107.613-8.7,107.613-8.7a9.624,9.624,0,0,1,.98,1.874l-.79.064Q1285-74.3,1254.843-71.918c-15.69,1.237-31.527,2.474-47.155,4.308-17.2,2-34.575,3.473-51.864,4.9q-19.222,1.567-38.5,2.877c-8.443.554-17.142,1.2-25.6,1.3C1074.326-58.3,1056.375-58.3,1038.958-58.53Z" transform="translate(-777.211 97.755)"/>
        <path id="Tracé_152" data-name="Tracé 152" class="cls-5" d="M922.123-66.442s-4.689,1.493-5.754,3.369-3.452,5.607-2.41,8.889c1.047,3.3,4.732,6.949,7.953,7.442s8.7-1.665,10.316-3.8c1.642-2.108,2.666-10.017-.4-12.534S924.789-67.423,922.123-66.442Z" transform="translate(-671.377 110.079)"/>
        <path id="Tracé_153" data-name="Tracé 153" class="cls-6" d="M923.019-65.848a8.4,8.4,0,0,1,8.4,8.4,8.386,8.386,0,0,1-8.4,8.4,8.4,8.4,0,0,1-8.4-8.4A8.416,8.416,0,0,1,923.019-65.848Z" transform="translate(-670.396 111.001)"/>
        <circle id="Ellipse_1" data-name="Ellipse 1" class="cls-7" cx="4.2" cy="4.2" r="4.2" transform="translate(248.423 49.35)"/>
        <path id="Tracé_154" data-name="Tracé 154" class="cls-5" d="M959.966-66.442s4.693,1.493,5.758,3.369c1.042,1.878,3.452,5.607,2.407,8.889-1.045,3.3-4.732,6.949-7.95,7.442s-8.7-1.665-10.34-3.8c-1.622-2.108-2.664-10.017.426-12.534C953.337-65.588,957.3-67.423,959.966-66.442Z" transform="translate(-634.437 110.079)"/>
        <path id="Tracé_155" data-name="Tracé 155" class="cls-6" d="M957.339-65.848a8.4,8.4,0,0,0-8.376,8.4,8.383,8.383,0,0,0,8.376,8.4,8.406,8.406,0,0,0,8.42-8.4A8.419,8.419,0,0,0,957.339-65.848Z" transform="translate(-633.708 111.001)"/>
        <path id="Tracé_156" data-name="Tracé 156" class="cls-8" d="M955.171-63.819a4.206,4.206,0,0,0-4.178,4.2,4.19,4.19,0,0,0,4.178,4.2,4.216,4.216,0,0,0,4.224-4.2A4.232,4.232,0,0,0,955.171-63.819Z" transform="translate(-631.539 113.169)"/>
        <path id="Tracé_157" data-name="Tracé 157" class="cls-3" d="M1017.809-38.714c-18.546-1.065-37.2-2.217-55.724-3.857q-22.35-1.986-44.683-4.093C897.493-48.5,877.5-50.546,857.585-52.1c-14.538-1.152-29.1-2.643-43.616-4.072l-.105-.021-1.386-.213c.554-.6,1.108-1.216,1.7-1.855,0,0,31.976,3.177,43.552,4.093,11.576.9,73.887,6.8,104.543,9.529,73.951,6.567,136.8,6.567,210.748,0,30.633-2.728,92.945-8.633,104.521-9.529,11.574-.916,43.575-4.093,43.575-4.093.573.639,1.15,1.258,1.684,1.855l-1.388.213-.105.021c-14.494,1.429-29.078,2.92-43.593,4.072-19.934,1.555-39.909,3.6-59.821,5.438q-22.35,2.076-44.7,4.093c-18.505,1.64-37.157,2.792-55.7,3.857A802.291,802.291,0,0,1,1017.809-38.714Z" transform="translate(-779.513 119.104)"/>
        <path id="Tracé_158" data-name="Tracé 158" class="cls-3" d="M1000.8-44.9C938.125-49.633,877.2-58.9,813.993-62.084a6.818,6.818,0,0,1-.639-2l.724.064c62.545,3.133,124.473,12.472,186.872,17.181,12.238.918,24.728,1.237,37.008,1.619,19.57.6,37.945.6,57.494,0,12.277-.383,24.771-.7,37.029-1.619,62.4-4.709,124.324-14.048,186.85-17.181l.747-.064a6.877,6.877,0,0,1-.639,2C1256.231-58.9,1195.283-49.633,1132.631-44.9A913.546,913.546,0,0,1,1000.8-44.9Z" transform="translate(-778.577 112.883)"/>
        <path id="Tracé_159" data-name="Tracé 159" class="cls-9" d="M917.028,90.7a98,98,0,0,1-5.543-15.115c-1.708-7.036-2.6-18.164-.9-25.88a280.478,280.478,0,0,0,6.8-48.584c1.127-23.15-1.386-27.947,1.47-40.183,1.769-7.632,4.073-14.943,5.266-22.619,2.385-1.129,6.755-.724,8.548,1.663,1.406,13.216.019,28.586-1.429,41.635-.918,8.164-2.73,58.326-5.009,74.89-2.261,16.583-3.688,27.752-3.9,33.21C921.93,99.629,919.521,96.326,917.028,90.7Z" transform="translate(-675.681 114.807)"/>
        <path id="Tracé_160" data-name="Tracé 160" class="cls-10" d="M915.818,19.105a111.333,111.333,0,0,1-5.011-13.154l.341-.108a19.584,19.584,0,0,1,11.214-.532c-.7,5.733-1.131,10.019-1.239,12.811C920.719,28.036,918.31,24.733,915.818,19.105Z" transform="translate(-674.471 186.4)"/>
        <path id="Tracé_161" data-name="Tracé 161" class="cls-9" d="M965.028-39.064c-1.771-7.632-4.073-14.943-5.266-22.619-2.409-1.129-6.759-.724-8.548,1.663-1.409,13.216-.023,28.586,1.427,41.635,1.216,10.914,1.812,20.613,3.5,31.719.6,3.816,1.3,8.1,2.046,11.64,2,9.359,5.779,10.873,6.991.254.492-4.517.854-19.909.982-27.349C966.371-13.717,967.5-28.447,965.028-39.064Z" transform="translate(-631.93 114.807)"/>
        <path id="Tracé_162" data-name="Tracé 162" class="cls-10" d="M953.353-25.022c.554,3.624,1.216,7.591,1.919,10.894,2,9.359,5.779,10.873,6.991.254.236-2.066.428-6.416.577-11.254A18.844,18.844,0,0,0,953.353-25.022Z" transform="translate(-629.018 153.909)"/>
        <path id="Tracé_163" data-name="Tracé 163" class="cls-5" d="M962.6-21.1c1.086.364,1.257.767,1.4,1.983.174,1.363-.339,11.533-.234,15.092.107,3.582-1.471,5.351-3.921,5.671-2.43.341-6.631-.385-6.631-4.137s-.062-14.2-.062-15.669c0-1.961.341-2.685,2.089-3.177A11.543,11.543,0,0,1,962.6-21.1Z" transform="translate(-629.227 158.026)"/>
        <path id="Tracé_164" data-name="Tracé 164" class="cls-5" d="M912.9,9.314c-1.086.362-1.235.747-1.4,1.981-.151,1.365.339,11.514.234,15.094s1.471,5.33,3.922,5.671c2.43.339,6.629-.407,6.629-4.137,0-3.752.064-14.2.064-15.667,0-1.963-.341-2.689-2.089-3.177A11.542,11.542,0,0,0,912.9,9.314Z" transform="translate(-673.769 190.52)"/>
      </g>
    </g>
    <g id="Groupe_26" data-name="Groupe 26" transform="translate(606.678 584.028)">
      <g id="Groupe_25" data-name="Groupe 25">
        <g id="Groupe_19" data-name="Groupe 19">
          <path id="Tracé_192" data-name="Tracé 192" class="cls-11" d="M4286.354,1414.905a13.488,13.488,0,0,0,1.314-5.847c0-6.8-4.923-12.339-10.974-12.339s-10.973,5.536-10.973,12.339,4.923,12.339,10.973,12.339a10.579,10.579,0,0,0,8.636-4.74Zm-9.616,3.387c-4.623,0-8.371-4.206-8.371-9.394s3.748-9.394,8.371-9.394,8.37,4.206,8.37,9.394S4281.359,1418.292,4276.737,1418.292Z" transform="translate(-4262.784 -1393.771)"/>
          <path id="Tracé_193" data-name="Tracé 193" class="cls-11" d="M4249.216,1367.578c0-8.4-6.2-15.214-13.847-15.214s-13.845,6.812-13.845,15.214,6.2,15.214,13.845,15.214c.412,0,.817-.023,1.22-.062l0,0-8.713,14.856h3.164l.651-1.119a1.932,1.932,0,0,1,.993-3.588,1.913,1.913,0,0,1,.953.253l9.2-15.777a10.672,10.672,0,0,1-7.4,3.067c-6.288,0-11.406-5.73-11.406-12.774s5.118-12.774,11.406-12.774,11.409,5.73,11.409,12.774a13.923,13.923,0,0,1-1.349,6.019h0l-.021.035c-.3.624-1.27,2.169-1.27,2.169l-10.232,17.5a1.931,1.931,0,0,1-1.911,3.264l-.552.946h3.008l11.954-20.924a15.678,15.678,0,0,0,1.165-2.033l.014-.03,0,0A16.363,16.363,0,0,0,4249.216,1367.578Z" transform="translate(-4221.524 -1352.364)"/>
        </g>
        <g id="Groupe_20" data-name="Groupe 20" transform="translate(9.413 40.706)">
          <path id="Tracé_194" data-name="Tracé 194" class="cls-11" d="M4397.034,1984.6c-.054,0-.105,0-.155.007s-.1.011-.156.02v.875c.052.009.105.016.156.02s.1.007.155.007c.206,0,.311-.111.311-.332v-.265C4397.345,1984.708,4397.24,1984.6,4397.034,1984.6Z" transform="translate(-4394.489 -1983.275)"/>
          <path id="Tracé_195" data-name="Tracé 195" class="cls-11" d="M4364.863,1964.692a1.744,1.744,0,1,0,1.744,1.744A1.744,1.744,0,0,0,4364.863,1964.692Zm-.713,2.517a1.912,1.912,0,0,1-.635-.087l.08-.255a1.97,1.97,0,0,0,.246.051c.092.012.193.021.309.026.277,0,.421-.089.421-.265q0-.2-.344-.265-.671-.066-.671-.531c0-.354.251-.531.749-.531a1.381,1.381,0,0,1,.5.081l-.072.246a1.378,1.378,0,0,0-.429-.061q-.438,0-.437.266c0,.132.12.221.359.265q.655.067.654.531Q4364.882,1967.21,4364.15,1967.209Zm1.515,0a1.246,1.246,0,0,1-.312-.039v.57l-.312.066v-1.989a1.856,1.856,0,0,1,.624-.067q.624,0,.624.6v.266Q4366.289,1967.209,4365.665,1967.209Z" transform="translate(-4363.119 -1964.692)"/>
        </g>
      </g>
    </g>
    <g id="Composant_3_20" data-name="Composant 3 – 20" transform="translate(601.929 653.765)">
      <path id="Tracé_165" data-name="Tracé 165" class="cls-11" d="M368,59.153c-1.6-.982-12.412-1.829-17.047-1.829s-15.451.847-17.048,1.829a3.387,3.387,0,0,0-1.978,3.5V87.469a16.432,16.432,0,0,0,.516,3.1c.769,2.309,4.7,7.167,10.465,11.619,5.79,4.469,7.069,4.832,8.045,4.832s2.255-.364,8.045-4.832c5.766-4.452,9.7-9.309,10.466-11.619a16.545,16.545,0,0,0,.515-3.1V62.653A3.386,3.386,0,0,0,368,59.153Z" transform="translate(-331.922 -57.324)"/>
      <g id="Groupe_12" data-name="Groupe 12" transform="translate(0.748 9.41)">
        <path id="Tracé_166" data-name="Tracé 166" class="cls-12" d="M406.684,129.711v8.855a15.285,15.285,0,0,1,4.568,1.758v-9.936A24.875,24.875,0,0,0,406.684,129.711Z" transform="translate(-391.454 -123.651)"/>
        <path id="Tracé_167" data-name="Tracé 167" class="cls-13" d="M430.881,101.357a61.8,61.8,0,0,0-8.921.315,13.726,13.726,0,0,1,4.054,1.335l-1.02,3.49c.4-.048,1.455-.093,1.844-.126q1.407-.123,2.87-.123,5.74,0,5.74,6.113v4.891q0,6.112-5.74,6.111c-.685,0-1.356-.027-2.022-.067a9.88,9.88,0,0,1,.374,2.755,12,12,0,0,1-.169,2,22.672,22.672,0,0,0,2.99.2q5.442,0,8.3-2.473a5.868,5.868,0,0,0,.36-.826,15.985,15.985,0,0,0,.477-2.863V104.673Q437.178,101.36,430.881,101.357Z" transform="translate(-403.465 -101.355)"/>
        <path id="Tracé_168" data-name="Tracé 168" class="cls-12" d="M404.621,257.308c2.146,1.449,2.939,1.67,3.489,1.67a4.508,4.508,0,0,0,2.251-.878v-6.564a12.141,12.141,0,0,1-5.741,2.424Z" transform="translate(-389.832 -219.439)"/>
        <path id="Tracé_169" data-name="Tracé 169" class="cls-14" d="M354.162,119.479a15.285,15.285,0,0,0-4.568-1.758,27.513,27.513,0,0,0-3.4-.553q-6.6-1.222-6.6-4.891,0-4.89,8.036-4.89c.673,0,1.324.022,1.961.06a24.9,24.9,0,0,1,4.568.676c.467.117,1.066.3,1.506.443l.326-1.117.994-3.406a21.782,21.782,0,0,0-4.835-1.243,32.234,32.234,0,0,0-4.52-.3q-9.135,0-12.211,4.3v10.649q2.829,3.835,10.776,4.609a14.514,14.514,0,0,1,3.4,1.025q2.916,1.357,2.919,3.864a4.175,4.175,0,0,1-2.919,4.155,13.277,13.277,0,0,1-4.832.734q-2.669-.1-4.885-.382a51.7,51.7,0,0,0,5.724,5.26,26.167,26.167,0,0,0,3.993-.382,12.141,12.141,0,0,0,5.74-2.424,7.95,7.95,0,0,0,2.749-4.961,12,12,0,0,0,.169-2,9.88,9.88,0,0,0-.374-2.755A8.03,8.03,0,0,0,354.162,119.479Z" transform="translate(-335.423 -102.254)"/>
      </g>
      <g id="Groupe_13" data-name="Groupe 13" transform="translate(13.035 2.269)">
        <path id="Tracé_170" data-name="Tracé 170" class="cls-14" d="M394.25,69.174a.18.18,0,0,1-.042.057.1.1,0,0,1-.059.021.149.149,0,0,1-.078-.02c-.028-.015-.061-.031-.1-.048a.942.942,0,0,0-.128-.045.5.5,0,0,0-.167-.014.364.364,0,0,0-.245.09.249.249,0,0,0-.071.2.183.183,0,0,0,.054.124.4.4,0,0,0,.126.079,1.114,1.114,0,0,0,.173.055q.1.023.2.051a1.726,1.726,0,0,1,.2.068.679.679,0,0,1,.176.106.537.537,0,0,1,.131.164.6.6,0,0,1,.062.244.8.8,0,0,1-.036.3.7.7,0,0,1-.144.252.733.733,0,0,1-.246.179.952.952,0,0,1-.342.082,1.11,1.11,0,0,1-.221-.008,1.28,1.28,0,0,1-.215-.049,1.155,1.155,0,0,1-.2-.084.84.84,0,0,1-.165-.115l.126-.236a.146.146,0,0,1,.044-.046.118.118,0,0,1,.06-.02.164.164,0,0,1,.093.026l.115.063a.89.89,0,0,0,.149.061.55.55,0,0,0,.2.019.4.4,0,0,0,.255-.094.282.282,0,0,0,.077-.235.215.215,0,0,0-.055-.139.365.365,0,0,0-.125-.084.935.935,0,0,0-.172-.052q-.1-.02-.2-.046a1.59,1.59,0,0,1-.2-.064.6.6,0,0,1-.176-.107.561.561,0,0,1-.131-.175.7.7,0,0,1-.063-.267.645.645,0,0,1,.171-.48.754.754,0,0,1,.234-.168.9.9,0,0,1,.328-.079,1.125,1.125,0,0,1,.392.04.873.873,0,0,1,.313.16Z" transform="translate(-392.914 -68.568)"/>
        <path id="Tracé_171" data-name="Tracé 171" class="cls-14" d="M405.116,68.472l-.679.029.082,1.936-.482.021-.082-1.936-.679.029-.016-.388,1.84-.078Z" transform="translate(-401.048 -68.054)"/>
        <path id="Tracé_172" data-name="Tracé 172" class="cls-14" d="M415.986,70.258l-.374,0a.164.164,0,0,1-.1-.029.179.179,0,0,1-.059-.075l-.161-.442-.926.009-.153.445a.183.183,0,0,1-.055.073.154.154,0,0,1-.1.034l-.377,0,.886-2.335.492,0Zm-.817-.875-.258-.709c-.015-.037-.032-.081-.049-.131s-.033-.1-.049-.163c-.014.06-.029.115-.045.166s-.031.1-.046.133l-.243.711Z" transform="translate(-409.24 -67.941)"/>
        <path id="Tracé_173" data-name="Tracé 173" class="cls-14" d="M429.667,69.238a1.251,1.251,0,0,1-.1.465,1.069,1.069,0,0,1-.256.359,1.1,1.1,0,0,1-.384.226,1.314,1.314,0,0,1-.49.069l-.894-.033L427.625,68l.893.033a1.32,1.32,0,0,1,.484.1,1.1,1.1,0,0,1,.367.255,1.078,1.078,0,0,1,.228.377A1.236,1.236,0,0,1,429.667,69.238Zm-.493-.018a1.05,1.05,0,0,0-.036-.33.692.692,0,0,0-.129-.252.6.6,0,0,0-.213-.163.74.74,0,0,0-.29-.065l-.41-.015-.058,1.571.41.015a.755.755,0,0,0,.294-.043.589.589,0,0,0,.225-.147.7.7,0,0,0,.147-.243A1.064,1.064,0,0,0,429.173,69.22Z" transform="translate(-420.14 -67.987)"/>
        <path id="Tracé_174" data-name="Tracé 174" class="cls-14" d="M441.985,69.016l-.037.6.774.048-.023.363-.774-.049-.038.609.995.062-.023.376-1.478-.092.145-2.321L443,68.7l-.024.376Z" transform="translate(-431.022 -68.467)"/>
      </g>
      <g id="Groupe_14" data-name="Groupe 14" transform="translate(4.625 5.456)">
        <path id="Tracé_175" data-name="Tracé 175" class="cls-14" d="M354.337,87.96a1.352,1.352,0,0,1,.416-.015.785.785,0,0,1,.308.105.613.613,0,0,1,.2.206.82.82,0,0,1,.1.286.847.847,0,0,1,0,.319.641.641,0,0,1-.126.271.789.789,0,0,1-.256.206,1.3,1.3,0,0,1-.39.125l-.3.052.136.788-.474.082-.4-2.292Zm.2,1.14a.441.441,0,0,0,.308-.164.412.412,0,0,0,.053-.312.454.454,0,0,0-.053-.151.315.315,0,0,0-.1-.106.36.36,0,0,0-.147-.053.616.616,0,0,0-.2.006l-.3.052.135.78Z" transform="translate(-353.563 -86.849)"/>
        <path id="Tracé_176" data-name="Tracé 176" class="cls-14" d="M367.388,87.159a1.284,1.284,0,0,1-.03.48,1.106,1.106,0,0,1-.2.4,1.12,1.12,0,0,1-.344.291,1.357,1.357,0,0,1-.968.113,1.127,1.127,0,0,1-.4-.2,1.1,1.1,0,0,1-.285-.346,1.344,1.344,0,0,1-.109-.939,1.1,1.1,0,0,1,.2-.4,1.127,1.127,0,0,1,.345-.291,1.356,1.356,0,0,1,.968-.113,1.1,1.1,0,0,1,.687.551A1.27,1.27,0,0,1,367.388,87.159Zm-.489.057a1.026,1.026,0,0,0-.086-.32.693.693,0,0,0-.166-.229.6.6,0,0,0-.236-.129.825.825,0,0,0-.582.068.592.592,0,0,0-.2.18.7.7,0,0,0-.109.261,1.033,1.033,0,0,0-.01.331,1.052,1.052,0,0,0,.086.322.686.686,0,0,0,.167.228.6.6,0,0,0,.237.128.761.761,0,0,0,.3.019.753.753,0,0,0,.284-.087.6.6,0,0,0,.2-.179.687.687,0,0,0,.109-.26A1.051,1.051,0,0,0,366.9,87.216Z" transform="translate(-362.564 -85.411)"/>
        <path id="Tracé_177" data-name="Tracé 177" class="cls-14" d="M381.978,84.4l.2,2.317-.248.022a.221.221,0,0,1-.1-.01.233.233,0,0,1-.081-.057l-1.281-1.37q.009.056.017.11c0,.036.008.069.011.1l.116,1.34-.423.037-.2-2.317.253-.022.052,0a.115.115,0,0,1,.04.008.156.156,0,0,1,.035.02.337.337,0,0,1,.039.035l1.29,1.375c-.008-.04-.014-.079-.02-.117s-.01-.073-.013-.108l-.115-1.325Z" transform="translate(-374.344 -84.066)"/>
        <path id="Tracé_178" data-name="Tracé 178" class="cls-14" d="M395.515,83.915l-.678.043.122,1.934-.481.03-.122-1.934-.678.043-.025-.387,1.838-.116Z" transform="translate(-385.084 -83.384)"/>
        <path id="Tracé_179" data-name="Tracé 179" class="cls-14" d="M407.324,85.544l-.484.021-.1-2.324.483-.021Z" transform="translate(-395.375 -83.142)"/>
        <path id="Tracé_180" data-name="Tracé 180" class="cls-14" d="M414.953,83.315a.184.184,0,0,1-.045.055.1.1,0,0,1-.06.018.146.146,0,0,1-.077-.023c-.028-.016-.06-.033-.1-.052a.933.933,0,0,0-.126-.052.5.5,0,0,0-.166-.022.365.365,0,0,0-.249.079.248.248,0,0,0-.08.2.183.183,0,0,0,.048.127.4.4,0,0,0,.122.085,1.109,1.109,0,0,0,.17.063q.095.027.195.06a1.71,1.71,0,0,1,.2.078.684.684,0,0,1,.171.114.537.537,0,0,1,.123.17.6.6,0,0,1,.05.247.8.8,0,0,1-.05.3.7.7,0,0,1-.155.245.736.736,0,0,1-.255.167.953.953,0,0,1-.346.065,1.1,1.1,0,0,1-.221-.019,1.281,1.281,0,0,1-.213-.059,1.174,1.174,0,0,1-.193-.093.841.841,0,0,1-.159-.122l.137-.23a.143.143,0,0,1,.046-.043.118.118,0,0,1,.061-.018.166.166,0,0,1,.092.03c.032.021.07.044.112.069a.917.917,0,0,0,.146.068.546.546,0,0,0,.2.029.4.4,0,0,0,.259-.081.281.281,0,0,0,.088-.231.213.213,0,0,0-.048-.142.364.364,0,0,0-.121-.089.955.955,0,0,0-.17-.06c-.063-.016-.128-.035-.195-.055a1.607,1.607,0,0,1-.2-.074.594.594,0,0,1-.17-.116.564.564,0,0,1-.122-.181.7.7,0,0,1-.05-.27.643.643,0,0,1,.194-.471.757.757,0,0,1,.242-.156.893.893,0,0,1,.331-.063,1.121,1.121,0,0,1,.39.058.872.872,0,0,1,.305.175Z" transform="translate(-400.72 -82.853)"/>
        <path id="Tracé_181" data-name="Tracé 181" class="cls-14" d="M425.412,83.4a.186.186,0,0,1-.047.053.1.1,0,0,1-.06.015.148.148,0,0,1-.075-.027q-.04-.026-.094-.056a.926.926,0,0,0-.124-.057.494.494,0,0,0-.164-.029.366.366,0,0,0-.252.068.249.249,0,0,0-.088.193.182.182,0,0,0,.042.128.4.4,0,0,0,.118.09,1.115,1.115,0,0,0,.167.07c.062.021.126.044.192.068a1.763,1.763,0,0,1,.192.086.692.692,0,0,1,.166.121.536.536,0,0,1,.116.175.6.6,0,0,1,.039.249.8.8,0,0,1-.063.3.7.7,0,0,1-.166.238.736.736,0,0,1-.261.156.952.952,0,0,1-.348.05,1.109,1.109,0,0,1-.22-.028,1.28,1.28,0,0,1-.21-.068,1.193,1.193,0,0,1-.189-.1.847.847,0,0,1-.154-.129l.147-.224a.14.14,0,0,1,.048-.041.118.118,0,0,1,.061-.015.167.167,0,0,1,.09.034c.031.022.068.047.109.073a.894.894,0,0,0,.143.074.546.546,0,0,0,.2.037.4.4,0,0,0,.262-.07.282.282,0,0,0,.1-.227.212.212,0,0,0-.042-.144.364.364,0,0,0-.117-.094.944.944,0,0,0-.167-.068c-.062-.019-.126-.04-.192-.063a1.6,1.6,0,0,1-.192-.082.6.6,0,0,1-.165-.123.561.561,0,0,1-.115-.186.706.706,0,0,1-.039-.272.646.646,0,0,1,.214-.463.757.757,0,0,1,.248-.146.9.9,0,0,1,.334-.049,1.13,1.13,0,0,1,.387.075.875.875,0,0,1,.3.188Z" transform="translate(-408.89 -82.904)"/>
        <path id="Tracé_182" data-name="Tracé 182" class="cls-14" d="M436.382,85.866l-.373-.021a.163.163,0,0,1-.1-.035.178.178,0,0,1-.054-.079l-.133-.452-.925-.05-.181.435a.181.181,0,0,1-.06.07.154.154,0,0,1-.1.027l-.376-.02,1.034-2.273.491.027Zm-.759-.926-.212-.725c-.013-.038-.026-.083-.04-.134s-.027-.106-.038-.166q-.027.089-.056.163c-.019.05-.037.093-.054.13l-.288.694Z" transform="translate(-416.87 -83.336)"/>
        <path id="Tracé_183" data-name="Tracé 183" class="cls-14" d="M450.075,86.155l-.03.39-1.376-.105.177-2.319.479.037-.147,1.929Z" transform="translate(-428.343 -83.85)"/>
        <path id="Tracé_184" data-name="Tracé 184" class="cls-14" d="M459.962,87.38l-.482-.045.215-2.316.482.045Z" transform="translate(-436.844 -84.556)"/>
        <path id="Tracé_185" data-name="Tracé 185" class="cls-14" d="M467.6,86.187l-.068.594.771.087-.041.362-.771-.087-.069.607.991.112-.042.374-1.472-.167.262-2.311,1.472.167-.043.374Z" transform="translate(-442.675 -85.137)"/>
        <path id="Tracé_186" data-name="Tracé 186" class="cls-14" d="M479.739,87.348l-.367,2.3-.245-.039a.214.214,0,0,1-.09-.033.227.227,0,0,1-.064-.074l-.912-1.639c0,.037-.006.074-.01.111s-.009.069-.013.1l-.212,1.328-.419-.067.367-2.3.25.04.051.011a.118.118,0,0,1,.037.017.159.159,0,0,1,.03.028.316.316,0,0,1,.029.043l.919,1.647c0-.041.005-.08.009-.118s.009-.073.014-.107l.21-1.314Z" transform="translate(-450.937 -86.14)"/>
      </g>
    </g>
    <g id="Groupe_44" data-name="Groupe 44" transform="translate(994.768 672.122)">
      <path id="Tracé_423" data-name="Tracé 423" class="cls-11" d="M34.673,29.986c-5.052,2.138-12.974,4.591-16.285-.72-1.835-2.941-.667-7.524,2.038-11.686A61.311,61.311,0,0,1,26.619,10c-1.248,2.013-4.716,8.7-.154,12.034,1.753,1.288,4.881,1.422,8.777.412L81.561,10.2Z" transform="translate(-17.499 -9.999)"/>
    </g>
  </g>
</svg>
