<svg xmlns="http://www.w3.org/2000/svg" width="161.752" height="186.6" viewBox="0 0 161.752 186.6">
  <g id="Groupe_57" data-name="Groupe 57" transform="translate(-297 -268)">
    <g id="Composant_4_3" data-name="Composant 4 – 3" transform="translate(297 268)">
      <path id="Tracé_10" data-name="Tracé 10" d="M765.219,309.954c-.163.423-.456,1.19-.558,1.519a14.894,14.894,0,0,1-.848,2.544c-.469.936-.381,1.228-1.374,1.228a21.448,21.448,0,0,1-8.832-1.609c-4.123-1.754-10-5.7-12.953-7.4s-8.978-5.264-9.8-5.556-.673-.672-.439-1.169,1.2-2.018,1.871-3.246,2.632-5.234,3.6-6.93,3.45-8.159,6.023-14.358,5.089-10.76,6.434-14.386,1.7-4.5,3.977-7.194a23.668,23.668,0,0,1,8.948-7.193c4.327-1.93,9.825-4.035,12.691-5.673a31.726,31.726,0,0,1,6.126-2.793c.995-.292,1.959-.116,2.691-.5a5.808,5.808,0,0,1,2.6-.643c.937,0,.966-.468,2.077-1.024s1.725-1.14,4.62-.848a175.548,175.548,0,0,0,38.073,0c2.895-.292,3.509.292,4.62.848s1.14,1.024,2.076,1.024a5.809,5.809,0,0,1,2.6.643c.731.381,1.7.2,2.69.5a31.7,31.7,0,0,1,6.127,2.793c2.866,1.638,8.362,3.742,12.691,5.673A23.673,23.673,0,0,1,869.9,253.4c2.281,2.69,2.632,3.568,3.977,7.194s3.86,8.188,6.433,14.386,5.059,12.662,6.024,14.358,2.924,5.7,3.6,6.93,1.638,2.749,1.872,3.246.38.877-.439,1.169-6.843,3.86-9.8,5.556-8.831,5.644-12.954,7.4a21.443,21.443,0,0,1-8.831,1.609c-.994,0-.906-.292-1.374-1.228a14.9,14.9,0,0,1-.848-2.544c-.1-.329-.4-1.1-.559-1.519s-.3-.75-.3.056c0,.453-.1,10.761-.044,16.785s.41,11.872.117,16.082.292,9.123.526,13.159,1.228,8.539.585,12.515a59.943,59.943,0,0,0-.175,14.27c.468,5.5.906,9.62,1.2,11.843s1.7,5.439,2.34,7.954.7,6.607.994,8.714.585,4.123.673,4.592.2.642-.175.7-.673.175-2.632.409-10.512,1.594-19.109,2.589a275.345,275.345,0,0,1-59.77,0c-8.6-.995-17.151-2.354-19.11-2.589s-2.251-.351-2.631-.409-.263-.234-.175-.7.381-2.487.673-4.592.351-6.2.994-8.714,2.047-5.732,2.34-7.954.73-6.346,1.2-11.843a59.937,59.937,0,0,0-.175-14.27c-.643-3.976.351-8.48.584-12.515s.819-8.948.527-13.159.059-10.058.117-16.082-.044-16.332-.044-16.785C765.524,309.2,765.379,309.541,765.219,309.954Z" transform="translate(-730.235 -234.65)" fill="#25266e" fill-rule="evenodd"/>
      <path id="Tracé_11" data-name="Tracé 11" d="M793.151,237.087a5.693,5.693,0,0,1,.642-.114l-.059.061a2.545,2.545,0,0,0-.623,2.39,12.458,12.458,0,0,0,2.112,4.379,15.038,15.038,0,0,0,4.93,4.407,42.92,42.92,0,0,0,15.675,4.7c1.438.109,2.874.19,4.316.19s2.879-.081,4.317-.19a42.925,42.925,0,0,0,15.675-4.7,15.038,15.038,0,0,0,4.93-4.407,12.473,12.473,0,0,0,2.112-4.379,2.545,2.545,0,0,0-.623-2.39l-.059-.061a5.681,5.681,0,0,1,.641.114,3.008,3.008,0,0,1,.445,2.42,12.784,12.784,0,0,1-2.182,4.537,15.439,15.439,0,0,1-5.067,4.528,42.822,42.822,0,0,1-15.842,4.749c-1.449.109-2.895.186-4.348.186s-2.9-.077-4.347-.186a42.823,42.823,0,0,1-15.842-4.749,15.439,15.439,0,0,1-5.067-4.528,12.785,12.785,0,0,1-2.182-4.537A3.011,3.011,0,0,1,793.151,237.087Z" transform="translate(-739.269 -234.986)" fill="#25266e" fill-rule="evenodd"/>
      <path id="Tracé_12" data-name="Tracé 12" d="M792.077,237.439c.133-.056.269-.108.41-.156a4.627,4.627,0,0,0-.346,3.206,9.327,9.327,0,0,0,2.6,4.644,21.2,21.2,0,0,0,6.515,5.108,42.476,42.476,0,0,0,11.2,3.422,49.526,49.526,0,0,0,15.112,0,42.477,42.477,0,0,0,11.2-3.422,21.194,21.194,0,0,0,6.515-5.108,9.336,9.336,0,0,0,2.6-4.644,4.632,4.632,0,0,0-.347-3.206c.14.048.277.1.41.156a5.369,5.369,0,0,1,.216,3.1,9.614,9.614,0,0,1-2.669,4.781,21.361,21.361,0,0,1-6.613,5.181,43.765,43.765,0,0,1-11.272,3.442c-1.017.162-2.049.269-3.074.357a49.094,49.094,0,0,1-9.052,0c-1.025-.088-2.058-.195-3.075-.357a43.77,43.77,0,0,1-11.271-3.442,21.36,21.36,0,0,1-6.613-5.181,9.608,9.608,0,0,1-2.669-4.781A5.376,5.376,0,0,1,792.077,237.439Z" transform="translate(-739.14 -235.031)" fill="#25266e" fill-rule="evenodd"/>
      <path id="Tracé_13" data-name="Tracé 13" d="M765.354,313.783c-.163.423-.456,1.19-.558,1.519a14.894,14.894,0,0,1-.848,2.544c-.469.936-.381,1.228-1.374,1.228a22.435,22.435,0,0,1-5.947-.641c.509-.6,1.074-1.3,1.591-2.034a56.885,56.885,0,0,1-7.858-2.972c-3.742-1.609-9.386-5.644-12.077-7.164-2.051-1.159-5.561-3.133-7.115-4.007l.167-.28c1.527.859,5.092,2.862,7.165,4.034,2.69,1.521,8.334,5.556,12.076,7.164a57.259,57.259,0,0,0,7.823,2.963c.283-.415.547-.836.773-1.248-2-.512-3.717-1.189-5.425-1.8-3.128-1.111-8.948-4.708-12.252-6.7-2.644-1.592-7.534-4.6-9.383-5.745.061-.106.12-.21.178-.314,1.815,1.12,6.76,4.169,9.426,5.773,3.3,1.988,9.123,5.585,12.252,6.7,1.69.6,3.388,1.269,5.363,1.78a4.01,4.01,0,0,0,.565-2.188c-.351-2.514-3.275-4.854-5.029-10.819s-.936-4.971,1.112-.936,3.275,7.018,4.971,8.363,2.223-1.287,2.34-3.392-.175-2.047-2.106-4.621-6.14-7.369-8.13-12.983-2.982-9.942-2.982-11.053.175-1.462,1.813,3.86,4.737,11.872,7.31,15.147,5.148,3.919,2.808,0-4.269-7.953-2.456-5.5,3.918,4.328,3.041,1.754c-1.421-4.168-2.3-7.687-3.953-11.871-1.32-3.339-3.342-8.03-4.835-10.934-1.379-2.685-3.09-6.016-4.126-8.036.044-.1.088-.194.133-.289,1.029,2,2.785,5.427,4.2,8.173,1.557,3.03,3.486,7.121,5.029,10.829.917,2.2,1.656,4.517,2.614,6.677.88,1.985,1.439,2.4,1.439.042,0-3.275-.234-5.615.352-8.363s1.725-5.059,1.082,1.315a65.534,65.534,0,0,0-.147,12.135,13.815,13.815,0,0,0,2.237,7.3c.936,1.141,1.609,1.462.848,2.925s-1.462,2.6-.585,4.122.2,2.632-.146,4.124.146,2.368.381,6.579-.117,14.211-.41,18.773a51.523,51.523,0,0,1-1.224,7.375c-.015-3.668.188-8.022.231-12.472.058-6.024-.044-16.332-.044-16.785C765.659,313.033,765.514,313.37,765.354,313.783Z" transform="translate(-730.37 -238.479)" fill="#151650" fill-rule="evenodd"/>
      <path id="Tracé_14" data-name="Tracé 14" d="M817.467,247.937c-3.436-.351-9.3-1.7-11.755-2.9-3.034-1.48-6.376-3.525-7.573-6.843s1.83-3.22,4.349-2.93c1.272.146,2.792.2,5.2.482s6.448.526,8.525.57c3.04.063,6.332.063,9.372,0,2.076-.044,6.111-.292,8.525-.57s3.932-.336,5.2-.482c2.519-.29,5.548-.393,4.349,2.93s-4.538,5.363-7.572,6.843c-2.456,1.2-8.319,2.545-11.756,2.9A29.417,29.417,0,0,1,817.467,247.937Z" transform="translate(-740.028 -234.721)" fill="#25266e" fill-rule="evenodd"/>
      <path id="Tracé_15" data-name="Tracé 15" d="M817.755,248.862c-3.436-.351-9.3-1.7-11.755-2.9a18.186,18.186,0,0,1-6.14-4.368,11.357,11.357,0,0,1,2.916.059c1.272.146,2.792.2,5.2.482s6.448.527,8.525.57c3.04.064,6.332.064,9.372,0,2.076-.044,6.111-.292,8.525-.57s3.932-.336,5.2-.482a11.357,11.357,0,0,1,2.916-.059,18.182,18.182,0,0,1-6.14,4.368c-2.456,1.2-8.319,2.545-11.756,2.9A29.417,29.417,0,0,1,817.755,248.862Z" transform="translate(-740.316 -235.646)" fill="#25266e" fill-rule="evenodd"/>
      <path id="Tracé_16" data-name="Tracé 16" d="M796.659,446.679c-3.45-.116-11.462-.907-16.668-1.667-3.941-.576-11.694-1.746-15.228-2.281l.049-.346c3.582.542,11.22,1.7,15.121,2.265,5.206.76,13.217,1.551,16.668,1.668,13.391.453,25.562.453,38.953,0,3.451-.117,11.463-.907,16.667-1.668,3.9-.57,11.54-1.722,15.122-2.265l.049.346c-3.535.535-11.288,1.705-15.228,2.281-5.206.76-13.217,1.551-16.668,1.667-13.351.453-25.485.453-38.836,0Zm31.6,1.977a207.794,207.794,0,0,0,23.54-2.135c3.878-.521,12.257-1.694,15.823-2.194l-.046-.322c-3.594.5-11.916,1.668-15.777,2.187a208.01,208.01,0,0,1-23.54,2.135c-8.155.193-16.2.193-24.359,0a208.009,208.009,0,0,1-23.54-2.135c-3.861-.519-12.183-1.684-15.777-2.187l-.047.322c3.567.5,11.946,1.674,15.824,2.194a207.793,207.793,0,0,0,23.54,2.135C812.053,448.85,820.1,448.85,828.257,448.656Z" transform="translate(-735.201 -264.727)" fill="#08082c" fill-rule="evenodd"/>
      <path id="Tracé_17" data-name="Tracé 17" d="M755.327,310.152c-.724-2.072-1.9-5.449-2.929-8.547-1.638-4.912-2.34-5.439-3.158-10.293s-.468-8.246.058-4.562a60.027,60.027,0,0,0,2.983,10.469c.995,2.925,2.456,6.667,3.567,10.819C756.879,311.888,757.091,315.19,755.327,310.152Z" transform="translate(-732.916 -241.968)" fill="#25266e" fill-rule="evenodd"/>
      <path id="Tracé_18" data-name="Tracé 18" d="M761.709,272.3c2.988,9.827,4.675,11.911,3.666-.2-.058-.7-.156-3.3-.831-.643-.412,1.619-.741,2.613-1.547.848C761.095,268.149,760.69,268.948,761.709,272.3Z" transform="translate(-734.713 -239.693)" fill="#25266e" fill-rule="evenodd"/>
      <path id="Tracé_19" data-name="Tracé 19" d="M878.053,313.783c.163.423.456,1.19.559,1.519a14.9,14.9,0,0,0,.848,2.544c.468.936.381,1.228,1.374,1.228a22.435,22.435,0,0,0,5.947-.641c-.509-.6-1.074-1.3-1.591-2.034a56.83,56.83,0,0,0,7.857-2.972c3.743-1.609,9.387-5.644,12.077-7.164,2.05-1.159,5.561-3.133,7.115-4.007l-.167-.28c-1.527.859-5.093,2.862-7.165,4.034-2.691,1.521-8.334,5.556-12.077,7.164a57.207,57.207,0,0,1-7.822,2.963c-.284-.415-.547-.836-.773-1.248,2-.512,3.717-1.189,5.424-1.8,3.129-1.111,8.948-4.708,12.253-6.7,2.644-1.592,7.534-4.6,9.383-5.745-.061-.106-.121-.21-.178-.314-1.816,1.12-6.761,4.169-9.425,5.773-3.305,1.988-9.124,5.585-12.253,6.7-1.691.6-3.389,1.269-5.363,1.78a4.02,4.02,0,0,1-.566-2.188c.351-2.514,3.276-4.854,5.03-10.819s.935-4.971-1.112-.936-3.275,7.018-4.97,8.363-2.223-1.287-2.34-3.392.175-2.047,2.106-4.621,6.14-7.369,8.129-12.983,2.983-9.942,2.983-11.053-.175-1.462-1.813,3.86-4.737,11.872-7.31,15.147-5.147,3.919-2.807,0,4.269-7.953,2.455-5.5-3.742,4.971-2.865,2.4,1.7-5.79,2.807-8.246c.616-1.361.747-2.756.483-3.015,1.261-3.312,3.631-8.9,5.323-12.188,1.379-2.685,3.089-6.016,4.126-8.036-.044-.1-.088-.194-.132-.289-1.029,2-2.785,5.427-4.2,8.173a141.789,141.789,0,0,0-6.48,14.536c-1.521,4.211-2.6,6.288-2.6,3.012s.233-5.615-.351-8.363-2.281-5.849-1.639.527a91.714,91.714,0,0,1,.7,12.924,13.808,13.808,0,0,1-2.236,7.3c-.936,1.141-1.609,1.462-.848,2.925s1.462,2.6.585,4.122-.2,2.632.146,4.124-.146,2.368-.38,6.579.116,14.211.409,18.773a51.4,51.4,0,0,0,1.224,7.375c.015-3.668-.188-8.022-.231-12.472-.059-6.024.044-16.332.044-16.785C877.749,313.033,877.894,313.37,878.053,313.783Z" transform="translate(-751.285 -238.479)" fill="#151650" fill-rule="evenodd"/>
      <path id="Tracé_20" data-name="Tracé 20" d="M892.944,310.152c.725-2.072,1.9-5.449,2.93-8.547,1.638-4.912,2.34-5.439,3.158-10.293s.468-8.246-.059-4.562a60.023,60.023,0,0,1-2.982,10.469c-.995,2.925-2.456,6.667-3.567,10.819C891.394,311.888,891.182,315.19,892.944,310.152Z" transform="translate(-753.603 -241.968)" fill="#25266e" fill-rule="evenodd"/>
      <path id="Tracé_21" data-name="Tracé 21" d="M887.136,272.3c-2.988,9.827-4.675,11.911-3.666-.2.058-.7.156-3.3.83-.643.413,1.619.741,2.613,1.548.848C887.75,268.149,888.155,268.948,887.136,272.3Z" transform="translate(-752.379 -239.693)" fill="#25266e" fill-rule="evenodd"/>
      <path id="Tracé_22" data-name="Tracé 22" d="M770.521,319.381c-.163.423-.456,1.19-.558,1.519a14.894,14.894,0,0,1-.848,2.544c-.468.934-.381,1.227-1.37,1.228a22.764,22.764,0,0,0,.881-2.147c.615-1.755.585-2.047,1.053-3.334a19.922,19.922,0,0,0,.818-5.206,29.82,29.82,0,0,0-.286-3.741c-.255-1.7-.548-1.628-1.612-2.751-.5-.526-1.079-1.179-1.4-1.58-1.141-1.4.818-.147,2.222.906s1.769.365.629-1.828a24.983,24.983,0,0,1-1.594-3.509c-.672-1.638-.555-2.617.5-.57a13.388,13.388,0,0,0,2.866,4.285c.453.54.95.877.468,2.456s-.936,2.1-.234,3.918a3.267,3.267,0,0,1,.146,2.837,44.909,44.909,0,0,0-.478,5.3,38.741,38.741,0,0,1-.849,5.6c-.018-3.181-.041-5.653-.041-5.87C770.825,318.631,770.681,318.968,770.521,319.381Z" transform="translate(-735.537 -244.077)" fill="#060616" fill-rule="evenodd"/>
      <path id="Tracé_23" data-name="Tracé 23" d="M878.133,319.381c.163.423.456,1.19.559,1.519a14.9,14.9,0,0,0,.848,2.544c.467.934.381,1.227,1.37,1.228a22.554,22.554,0,0,1-.881-2.147c-.615-1.755-.585-2.047-1.053-3.334a19.924,19.924,0,0,1-.818-5.206,29.808,29.808,0,0,1,.286-3.741c.255-1.7.548-1.628,1.611-2.751.5-.526,1.08-1.179,1.405-1.58,1.141-1.4-.818-.147-2.222.906s-1.769.365-.629-1.828a24.754,24.754,0,0,0,1.593-3.509c.672-1.638.556-2.617-.5-.57a13.4,13.4,0,0,1-2.866,4.285c-.453.54-.951.877-.468,2.456s.936,2.1.234,3.918a3.269,3.269,0,0,0-.145,2.837,44.922,44.922,0,0,1,.478,5.3,38.5,38.5,0,0,0,.849,5.6c.018-3.181.041-5.653.041-5.87C877.829,318.631,877.973,318.968,878.133,319.381Z" transform="translate(-751.365 -244.077)" fill="#060616" fill-rule="evenodd"/>
    </g>
    <g id="Groupe_32" data-name="Groupe 32" transform="translate(0 10)">
      <g id="Composant_1_7" data-name="Composant 1 – 7" transform="translate(362 314.843)">
        <g id="Groupe_19" data-name="Groupe 19">
          <path id="Tracé_192" data-name="Tracé 192" d="M4289.4,1417.586a15.478,15.478,0,0,0,1.506-6.708c0-7.807-5.647-14.158-12.589-14.158s-12.59,6.351-12.59,14.158,5.648,14.158,12.59,14.158a12.133,12.133,0,0,0,9.907-5.438Zm-11.036,3.886c-5.3,0-9.6-4.826-9.6-10.778s4.3-10.778,9.6-10.778,9.6,4.825,9.6,10.778S4283.665,1421.472,4278.36,1421.472Z" transform="translate(-4262.351 -1393.336)" fill="#fff"/>
          <path id="Tracé_193" data-name="Tracé 193" d="M4253.3,1369.821c0-9.641-7.112-17.457-15.886-17.457s-15.887,7.816-15.887,17.457,7.113,17.457,15.887,17.457c.472,0,.938-.027,1.4-.071l0,0-10,17.046h3.629l.749-1.284a2.215,2.215,0,0,1,2.232-3.827l10.56-18.1a12.242,12.242,0,0,1-8.493,3.519c-7.218,0-13.089-6.575-13.089-14.657s5.872-14.657,13.089-14.657,13.088,6.575,13.088,14.657a15.97,15.97,0,0,1-1.547,6.905l0,0-.023.04c-.346.716-1.456,2.489-1.456,2.489l-11.744,20.083a2.215,2.215,0,0,1-2.19,3.746l-.634,1.085h3.45l13.719-24.008a17.826,17.826,0,0,0,1.333-2.333l.02-.035-.006,0A18.768,18.768,0,0,0,4253.3,1369.821Z" transform="translate(-4221.525 -1352.364)" fill="#fff"/>
        </g>
        <g id="Groupe_20" data-name="Groupe 20" transform="translate(10.8 46.706)">
          <path id="Tracé_194" data-name="Tracé 194" d="M4397.08,1984.6q-.091,0-.179.008c-.058.005-.118.013-.179.023v1q.092.015.179.023c.059.005.118.008.179.008q.357,0,.357-.38v-.3Q4397.437,1984.6,4397.08,1984.6Z" transform="translate(-4394.159 -1983.08)" fill="#fff"/>
          <path id="Tracé_195" data-name="Tracé 195" d="M4365.121,1964.692a2,2,0,1,0,2,2A2,2,0,0,0,4365.121,1964.692Zm-.819,2.888a2.2,2.2,0,0,1-.727-.1l.093-.292a2.159,2.159,0,0,0,.281.058,3.291,3.291,0,0,0,.354.031q.482,0,.482-.3,0-.23-.393-.3-.768-.075-.769-.609,0-.609.858-.609a1.566,1.566,0,0,1,.574.093l-.082.281a1.577,1.577,0,0,0-.492-.07q-.5,0-.5.3,0,.229.411.3.751.076.75.609Q4365.142,1967.58,4364.3,1967.58Zm1.738,0a1.435,1.435,0,0,1-.357-.046v.655l-.357.076v-2.283a2.158,2.158,0,0,1,.715-.076q.715,0,.714.685v.3Q4366.754,1967.58,4366.04,1967.58Z" transform="translate(-4363.119 -1964.692)" fill="#fff"/>
        </g>
      </g>
      <g id="Composant_2_6" data-name="Composant 2 – 6" transform="translate(350 284)">
        <path id="Tracé_187" data-name="Tracé 187" d="M2306.755,4.535l-4.093,0V1.644l10.851,0v2.89l-4.136,0-.006,16.02h-2.622Z" transform="translate(-2302.662 -1.644)" fill="#fff"/>
        <path id="Tracé_188" data-name="Tracé 188" d="M2412.234,12.208l-5.415,0,0,5.555,6.055,0V20.6l-8.677,0,.007-18.91,8.357,0V4.521l-5.735,0,0,4.882,5.415,0Z" transform="translate(-2391.665 -1.679)" fill="#fff"/>
        <path id="Tracé_189" data-name="Tracé 189" d="M2493.118,20.63l-1.533-3.76c-.618-1.459-1.022-2.469-1.448-3.564h-.042c-.342,1.094-.726,2.1-1.3,3.563l-1.43,3.759h-3.006l4.268-9.565-4.111-9.344h3.027l1.555,3.9c.468,1.178.81,2.1,1.171,3.171h.064c.384-1.178.683-2.02,1.131-3.17L2493,1.72H2496l-4.2,9.229,4.366,9.681Z" transform="translate(-2461.935 -1.708)" fill="#fff"/>
        <path id="Tracé_190" data-name="Tracé 190" d="M2590.255,4.648l-4.093,0V1.757l10.851,0v2.89l-4.136,0-.007,16.02h-2.622Z" transform="translate(-2551.178 -1.743)" fill="#fff"/>
        <path id="Tracé_191" data-name="Tracé 191" d="M2695.735,12.321l-5.415,0,0,5.555,6.055,0V20.71l-8.677,0L2687.7,1.8l8.357,0V4.634l-5.735,0,0,4.882,5.415,0Z" transform="translate(-2640.181 -1.778)" fill="#fff"/>
      </g>
    </g>
  </g>
</svg>
