<svg xmlns="http://www.w3.org/2000/svg" viewBox="0 0 605.85 121.17"><defs><style>.cls-1{fill:#292568;}.cls-2{fill:#a31a16;}</style></defs><g id="Calque_2" data-name="Calque 2"><g id="Calque_1-2" data-name="Calque 1"><path class="cls-1" d="M54.81,17.67a61.66,61.66,0,0,0-19.28-2.74q-19.62,0-19.62,11.94,0,9,16.12,11.94,29.44,3,29.44,23.88,0,23.9-32.95,23.88Q11,86.57,0,82.64L3.64,71.17a85.62,85.62,0,0,0,11,2.27,130,130,0,0,0,13.87,1.19q18.93,0,18.93-11.94,0-9-15.42-11.94Q1.89,47.83,1.89,26.87,1.89,3,35.53,3,48.85,3,58,6.63Z"/><path class="cls-1" d="M68.65,23.88q7-3,28-3,28,0,28,26.87V59.71q0,26.87-28,26.86a56.1,56.1,0,0,1-14-1.79v25.68l-14,3Zm42.06,23.89q0-14.93-14-14.93c-2.39,0-4.72.1-7,.3s-4.63.49-7,.89V73.44q3.57.6,7,.89c2.29.21,4.62.3,7,.3q14,0,14-14.92Z"/><path class="cls-1" d="M131.92,50.75q0-29.85,31.54-29.85T195,50.75v6q0,29.85-31.54,29.85T131.92,56.72Zm14,6q0,17.93,17.52,17.91T181,56.72v-6q0-17.91-17.52-17.91T145.94,50.75Z"/><path class="cls-1" d="M203.16,23.88q7.23-3,28-3a51,51,0,0,1,8.83.71l-3.15,11.83a23,23,0,0,0-5.68-.6q-3.57,0-7,.3c-2.29.2-4.63.49-7,.89V86.57h-14Z"/><path class="cls-1" d="M255.37,3l14-3V20.9h16.13V32.84H269.39V62.69q0,12,10.51,11.94a28.81,28.81,0,0,0,9.82-1.7l3.5,10.66q-5,3-13.32,3-24.52,0-24.53-23.88V32.84H244.86V20.9h10.51Z"/><path class="cls-1" d="M289.72,23.33Q295.42,21,311.89,21q8.1,0,12.86,3.36Q331,21,342.39,21q19.39,0,19.4,18.89V72.93H350.7V39.86q0-9.43-8.31-9.44a29,29,0,0,0-11.09,2.36V72.93H320.21V39.86q0-9.43-8.32-9.44c-1.88,0-3.73.08-5.54.23s-3.66.4-5.54.71V72.93H289.72Z"/><path class="cls-1" d="M369.5,2.08h11.08V13.89H369.5Zm0,18.89h11.08v52H369.5Z"/><path class="cls-1" d="M421.08,6.8l11.09-2.36V70.56q-5.55,2.37-22.18,2.37-22.17,0-22.18-21.26V42.22Q387.81,21,410,21a44.87,44.87,0,0,1,11.09,1.42Zm0,24.56q-2.83-.46-5.54-.71c-1.82-.15-3.67-.23-5.55-.23q-11.08,0-11.09,11.8v9.45q0,11.8,11.09,11.81,2.82,0,5.55-.24c1.8-.15,3.65-.39,5.54-.7Z"/><path class="cls-1" d="M442.12,24.09a54.64,54.64,0,0,1,18-3.12q22.19,0,22.18,18.89V68.2q-5.55,4.72-22.18,4.73Q438,72.93,438,56.87q0-17,33.27-17,0-9.43-11.09-9.44a53.48,53.48,0,0,0-14.8,2.12Zm29.11,25.22q-22.17,0-22.18,7.56,0,6.62,11.09,6.61,2.83,0,5.55-.24c1.81-.15,3.66-.39,5.54-.7Z"/><path class="cls-1" d="M489.89,6.8,501,4.44v18A44.39,44.39,0,0,1,512.07,21q22.17,0,22.17,21.25v9.45q0,21.26-22.17,21.26-16.64,0-22.18-2.37Zm33.26,35.42q0-11.8-11.08-11.8c-1.89,0-3.74.08-5.55.23s-3.66.4-5.54.71V62.54c1.88.31,3.73.55,5.54.7s3.66.24,5.55.24q11.08,0,11.08-11.81Z"/><path class="cls-1" d="M541.29,6.8l11.09-2.36V72.93H541.29Z"/><path class="cls-1" d="M559.28,44.59Q559.28,21,583.12,21q22.73,0,22.73,23.62,0,7.08-2.77,7.08H570.37q0,11.8,11.08,11.81,10.92,0,17.47-2.08l2.1,8.74q-5.76,2.79-19.57,2.79-22.17,0-22.17-23.62Zm35.48-1.89q0-12.29-11.64-12.28-12.75,0-12.75,12.28Z"/><path class="cls-1" d="M302.2,117.8V93.45h7.33V96.7h-3v17.88h3v3.22Z"/><path class="cls-1" d="M328.4,111.36c.25-.76.54-1.59.85-2.51s.58-1.76.81-2.52c.39-1.08.77-2.19,1.15-3.32s.77-2.25,1.16-3.33h2.91l-5.86,15.21h-2.31l-5.89-15.21h2.88c.39,1.06.77,2.16,1.16,3.31s.76,2.25,1.15,3.31l1.86,5.06Z"/><path class="cls-1" d="M344.84,99.55a6.89,6.89,0,0,1,3.07.67,5.41,5.41,0,0,1,2.17,1.88,6.36,6.36,0,0,1,.82,2,11.93,11.93,0,0,1,.27,2.65,20.26,20.26,0,0,1-.23,3.3,6.11,6.11,0,0,1-.76,2.22,5.49,5.49,0,0,1-2.32,2.07,7.62,7.62,0,0,1-3.37.72,8,8,0,0,1-3.07-.56,5,5,0,0,1-2.17-1.74,6.18,6.18,0,0,1-.91-2.27,16,16,0,0,1-.27-3.16,14.46,14.46,0,0,1,.18-2.37,6.74,6.74,0,0,1,.61-2,5.83,5.83,0,0,1,2.36-2.55A7.17,7.17,0,0,1,344.84,99.55Zm-.08,2.31a4,4,0,0,0-2.1.56,3.63,3.63,0,0,0-1.39,1.58,4.52,4.52,0,0,0-.45,1.54c-.06.56-.1,1.17-.13,1.85s0,1.28.08,1.82a4.38,4.38,0,0,0,.41,1.48,3.44,3.44,0,0,0,1.31,1.53,3.7,3.7,0,0,0,2.05.55,4.16,4.16,0,0,0,2.29-.64,3.58,3.58,0,0,0,1.45-2,6.31,6.31,0,0,0,.22-1.27c0-.48,0-1.12,0-1.94a12.35,12.35,0,0,0-.08-1.57,4.18,4.18,0,0,0-.33-1.24,3.26,3.26,0,0,0-1.35-1.67A3.83,3.83,0,0,0,344.76,101.86Z"/><path class="cls-1" d="M360.55,114.89a3.9,3.9,0,0,1-2.66-.91,3.34,3.34,0,0,1-1-2.65v-9.47H355V99.68h1.89V95.91h2.63v3.77h2.43v2.18H359.5v8.83a3,3,0,0,0,.28,1.3,1.28,1.28,0,0,0,1.28.6h1.38v2.3Z"/><path class="cls-1" d="M375.35,102.59a4.13,4.13,0,0,0-2.24-.58,3.77,3.77,0,0,0-2.6.92,3.52,3.52,0,0,0-1,2.76v9.2h-2.63V99.68h2.63v1.93h.12a4.66,4.66,0,0,1,1.86-1.62,5.51,5.51,0,0,1,2.31-.46,6.27,6.27,0,0,1,1.54.17,3.59,3.59,0,0,1,1.15.47Z"/><path class="cls-1" d="M380.38,108.14v.25a5.48,5.48,0,0,0,.25,1.69,4,4,0,0,0,.77,1.41,3.47,3.47,0,0,0,1.28.94,4.35,4.35,0,0,0,1.8.34,5.14,5.14,0,0,0,1.77-.37,5.42,5.42,0,0,0,1.81-1.07l1.7,1.8a6.73,6.73,0,0,1-2.53,1.49,9.42,9.42,0,0,1-2.88.45,9.52,9.52,0,0,1-2.42-.32,5.33,5.33,0,0,1-2.16-1.18,6,6,0,0,1-1.56-2.36,10.79,10.79,0,0,1-.59-3.87,10,10,0,0,1,.61-3.75,6.72,6.72,0,0,1,1.57-2.42,5.66,5.66,0,0,1,2.14-1.29,7.37,7.37,0,0,1,2.31-.39,6.73,6.73,0,0,1,2.47.45,5.76,5.76,0,0,1,2,1.3,6.22,6.22,0,0,1,1.37,2.1,7.65,7.65,0,0,1,.49,2.84v2Zm3.74-6.25A3.37,3.37,0,0,0,381.5,103a4.75,4.75,0,0,0-1.12,3.06h7.46a4.7,4.7,0,0,0-1.09-3.09A3.48,3.48,0,0,0,384.12,101.89Z"/><path class="cls-1" d="M411.89,114.49a7.06,7.06,0,0,1-2.91.58,8.4,8.4,0,0,1-2.68-.43,6.45,6.45,0,0,1-2.31-1.36,6.89,6.89,0,0,1-1.61-2.41,10.75,10.75,0,0,1,0-7.14,6.71,6.71,0,0,1,1.61-2.41A6.33,6.33,0,0,1,406.3,100a8.68,8.68,0,0,1,2.68-.42,6.86,6.86,0,0,1,2.88.58,8.71,8.71,0,0,1,2.3,1.53l-1.69,1.84a4.81,4.81,0,0,0-1.54-1.12,4.43,4.43,0,0,0-1.83-.41,4.51,4.51,0,0,0-3.47,1.32,5.73,5.73,0,0,0-1.23,4,5.79,5.79,0,0,0,1.23,4,4.52,4.52,0,0,0,3.47,1.33,3.92,3.92,0,0,0,1.91-.48,5.36,5.36,0,0,0,1.46-1.09l1.73,1.81A8.36,8.36,0,0,1,411.89,114.49Z"/><path class="cls-1" d="M421.72,114.89a4.82,4.82,0,0,1-2.82-.78,3.19,3.19,0,0,1-1.08-2.75V92.63h2.62v18.51c0,1,.55,1.45,1.64,1.45h.76v2.3Z"/><path class="cls-1" d="M436.14,114.89v-1.72H436a4.78,4.78,0,0,1-2,1.44,6.63,6.63,0,0,1-2.39.46,8.37,8.37,0,0,1-2.24-.29,4.48,4.48,0,0,1-1.75-.94,4.22,4.22,0,0,1-1.11-1.65,6.53,6.53,0,0,1-.4-2.42V99.68h2.62v9.13a7.93,7.93,0,0,0,.16,1.72,2.63,2.63,0,0,0,.58,1.21,2.46,2.46,0,0,0,1.12.71,5.94,5.94,0,0,0,1.79.23,3.56,3.56,0,0,0,2.63-1.06,3.81,3.81,0,0,0,1.06-2.81V99.68h2.62v15.21Z"/><path class="cls-1" d="M456.38,107.07a18.62,18.62,0,0,1-.22,2.88,7.2,7.2,0,0,1-.83,2.57,5,5,0,0,1-1.73,1.85,5.29,5.29,0,0,1-2.89.7,7.72,7.72,0,0,1-2.34-.37,3.83,3.83,0,0,1-2-1.5h-.06v1.69h-2.63V92.63h2.63v8.74h.06a5.65,5.65,0,0,1,2.1-1.45,6.46,6.46,0,0,1,2.23-.39,5.37,5.37,0,0,1,2.78.65,4.78,4.78,0,0,1,1.71,1.72,7.61,7.61,0,0,1,.89,2.41A17.93,17.93,0,0,1,456.38,107.07Zm-2.73.2a16.57,16.57,0,0,0-.11-1.86,4.88,4.88,0,0,0-.5-1.7,3,3,0,0,0-1.12-1.22A3.52,3.52,0,0,0,450,102a3.38,3.38,0,0,0-1.94.49,3.25,3.25,0,0,0-1.1,1.26,5.23,5.23,0,0,0-.5,1.71,14,14,0,0,0-.11,1.8,14.41,14.41,0,0,0,.11,1.79,5.85,5.85,0,0,0,.5,1.8,3.44,3.44,0,0,0,1.1,1.37,3.17,3.17,0,0,0,1.94.54,3.34,3.34,0,0,0,2-.52,3.2,3.2,0,0,0,1.11-1.34,6.07,6.07,0,0,0,.48-1.78A17.45,17.45,0,0,0,453.65,107.27Z"/><path class="cls-1" d="M470.79,108.14v.25a5.48,5.48,0,0,0,.25,1.69,4,4,0,0,0,.77,1.41,3.47,3.47,0,0,0,1.28.94,4.38,4.38,0,0,0,1.8.34,5.14,5.14,0,0,0,1.77-.37,5.42,5.42,0,0,0,1.81-1.07l1.7,1.8a6.73,6.73,0,0,1-2.53,1.49,9.42,9.42,0,0,1-2.88.45,9.52,9.52,0,0,1-2.42-.32,5.33,5.33,0,0,1-2.16-1.18,6.16,6.16,0,0,1-1.56-2.36,10.79,10.79,0,0,1-.59-3.87,10,10,0,0,1,.61-3.75,6.72,6.72,0,0,1,1.57-2.42,5.66,5.66,0,0,1,2.14-1.29,7.46,7.46,0,0,1,2.31-.39,6.73,6.73,0,0,1,2.47.45,5.76,5.76,0,0,1,2,1.3,6.22,6.22,0,0,1,1.37,2.1,7.65,7.65,0,0,1,.49,2.84v2Zm3.74-6.25a3.37,3.37,0,0,0-2.62,1.07,4.8,4.8,0,0,0-1.12,3.06h7.46a4.7,4.7,0,0,0-1.09-3.09A3.48,3.48,0,0,0,474.53,101.89Z"/><path class="cls-1" d="M494.9,114.89v-9.11a4.39,4.39,0,0,0-.77-2.76,3.4,3.4,0,0,0-2.85-1,3.69,3.69,0,0,0-2.65,1,3.61,3.61,0,0,0-1.06,2.76v9.11h-2.63V99.64h2.63v1.94h.1a5.51,5.51,0,0,1,2.06-1.52,6.2,6.2,0,0,1,2.52-.53,6.48,6.48,0,0,1,2.11.32,4.41,4.41,0,0,1,1.66,1,4.62,4.62,0,0,1,1.11,1.65,6.37,6.37,0,0,1,.4,2.32v10.09Z"/><path class="cls-1" d="M522.61,114.61a7.24,7.24,0,0,1-.56,3,5.57,5.57,0,0,1-1.49,2,6.13,6.13,0,0,1-2.18,1.18,9.09,9.09,0,0,1-2.63.38,9.58,9.58,0,0,1-2.72-.4,5.82,5.82,0,0,1-2.4-1.35l1.57-2a6.72,6.72,0,0,0,1.66.95,5,5,0,0,0,1.95.43,4.58,4.58,0,0,0,3-1A3.47,3.47,0,0,0,520,115v-1.76h-.06a5.49,5.49,0,0,1-2.07,1.45,6.33,6.33,0,0,1-2.26.4,5.54,5.54,0,0,1-2.79-.63,4.86,4.86,0,0,1-1.73-1.67,7.21,7.21,0,0,1-.89-2.38,14.47,14.47,0,0,1-.26-2.74,20.52,20.52,0,0,1,.21-2.93,7.37,7.37,0,0,1,.85-2.6,5,5,0,0,1,1.81-1.87,5.77,5.77,0,0,1,3.06-.73,5.7,5.7,0,0,1,2.29.5,4.12,4.12,0,0,1,1.78,1.37h0l0-1.68h2.63Zm-10-7.31a15.92,15.92,0,0,0,.11,2,4.72,4.72,0,0,0,.48,1.68,2.74,2.74,0,0,0,1.09,1.15,3.72,3.72,0,0,0,1.94.44,3.4,3.4,0,0,0,1.92-.5,3.19,3.19,0,0,0,1.13-1.26,5,5,0,0,0,.53-1.7,12.71,12.71,0,0,0,.13-1.8c0-.51,0-1.08-.08-1.7a5.32,5.32,0,0,0-.45-1.73,3.28,3.28,0,0,0-1.1-1.35,3.36,3.36,0,0,0-2-.54,3.53,3.53,0,0,0-2,.49,3.1,3.1,0,0,0-1.1,1.26,5.3,5.3,0,0,0-.48,1.7A14.77,14.77,0,0,0,512.65,107.3Z"/><path class="cls-1" d="M536.44,102.59a4.1,4.1,0,0,0-2.24-.58,3.73,3.73,0,0,0-2.59.92,3.49,3.49,0,0,0-1,2.76v9.2H528V99.68h2.62v1.93h.13a4.54,4.54,0,0,1,1.86-1.62,5.49,5.49,0,0,1,2.3-.46,6.21,6.21,0,0,1,1.54.17,3.49,3.49,0,0,1,1.15.47Z"/><path class="cls-1" d="M545.21,99.53a12.1,12.1,0,0,1,2.44.23,5.86,5.86,0,0,1,2,.78,3.87,3.87,0,0,1,1.39,1.5,5,5,0,0,1,.51,2.39v10.46H549v-1.32l0,0a3.14,3.14,0,0,1-1.6,1.11,7.94,7.94,0,0,1-2.79.43,6.19,6.19,0,0,1-4.17-1.27,4.09,4.09,0,0,1-1.46-3.24,4.67,4.67,0,0,1,.32-1.7,3.88,3.88,0,0,1,.94-1.42,4.68,4.68,0,0,1,1.57-1,6.23,6.23,0,0,1,2.23-.37h5v-1.71a2.13,2.13,0,0,0-.87-1.87,4.91,4.91,0,0,0-2.79-.61,6.37,6.37,0,0,0-2.37.35,3.7,3.7,0,0,0-1.41,1l-1.66-1.69a5.54,5.54,0,0,1,2.3-1.49A9.1,9.1,0,0,1,545.21,99.53Zm-3.81,10.88a2,2,0,0,0,.86,1.72,4.29,4.29,0,0,0,2.61.64,9.29,9.29,0,0,0,1.5-.12,4.06,4.06,0,0,0,1.31-.45,2.63,2.63,0,0,0,.93-.85A2.49,2.49,0,0,0,549,110v-1.78h-4.36a4.17,4.17,0,0,0-2.37.58A1.9,1.9,0,0,0,541.4,110.41Z"/><path class="cls-1" d="M565.94,114.89v-9.11a4.46,4.46,0,0,0-.77-2.76,3.4,3.4,0,0,0-2.85-1,3.72,3.72,0,0,0-2.66,1,3.65,3.65,0,0,0-1.06,2.76v9.11H556V99.64h2.62v1.94h.1a5.63,5.63,0,0,1,2.07-1.52,6.19,6.19,0,0,1,2.51-.53,6.44,6.44,0,0,1,2.11.32,4.37,4.37,0,0,1,1.67,1,4.47,4.47,0,0,1,1.1,1.65,6.16,6.16,0,0,1,.41,2.32v10.09Z"/><path class="cls-1" d="M582.91,114.89v-1.48l-.09,0a5.86,5.86,0,0,1-2.17,1.34,7.59,7.59,0,0,1-2.28.35,5.49,5.49,0,0,1-2.79-.62,4.35,4.35,0,0,1-1.7-1.65,6.83,6.83,0,0,1-.83-2.44,18.19,18.19,0,0,1-.23-2.92,16.38,16.38,0,0,1,.26-2.9,6.87,6.87,0,0,1,1-2.53,5.33,5.33,0,0,1,1.89-1.79,6,6,0,0,1,3.07-.69,6.24,6.24,0,0,1,2.22.38,3.71,3.71,0,0,1,1.63,1.13h.06V92.63h2.63v22.26Zm0-7.62a16.23,16.23,0,0,0-.11-1.8,5.47,5.47,0,0,0-.48-1.71,3.23,3.23,0,0,0-1.09-1.26,3.31,3.31,0,0,0-1.9-.49,3.59,3.59,0,0,0-2,.48,3.12,3.12,0,0,0-1.12,1.22,5.11,5.11,0,0,0-.51,1.7,12.92,12.92,0,0,0-.13,1.86,16.09,16.09,0,0,0,.11,2,4.89,4.89,0,0,0,.48,1.7,2.86,2.86,0,0,0,1.09,1.17,3.82,3.82,0,0,0,1.94.43,3.23,3.23,0,0,0,1.92-.53,3.45,3.45,0,0,0,1.13-1.3,5.14,5.14,0,0,0,.53-1.73A12.27,12.27,0,0,0,582.91,107.27Z"/><path class="cls-1" d="M596.91,117.8v-3.22h3V96.7h-3V93.45h7.3V117.8Z"/><rect class="cls-2" x="97.94" y="108.18" width="189.59" height="5.14"/></g></g></svg>