<svg xmlns="http://www.w3.org/2000/svg" width="568.766" height="460.932" viewBox="0 0 568.766 460.932">
  <defs>
    <style>
      .cls-1, .cls-14 {
        fill: #25266e;
      }

      .cls-1, .cls-10, .cls-2, .cls-3, .cls-4, .cls-5, .cls-6, .cls-8, .cls-9 {
        fill-rule: evenodd;
      }

      .cls-2 {
        fill: #151650;
      }

      .cls-3 {
        fill: #060616;
      }

      .cls-4 {
        fill: #ebecec;
      }

      .cls-5 {
        fill: #d9dada;
      }

      .cls-6 {
        fill: #fefefe;
      }

      .cls-7, .cls-8 {
        fill: #9d9e9e;
      }

      .cls-9 {
        fill: #c5c6c6;
      }

      .cls-10 {
        fill: #b2b3b3;
      }

      .cls-11 {
        fill: #fff;
      }

      .cls-12 {
        fill: #c4c3c3;
      }

      .cls-13 {
        fill: #900910;
      }
    </style>
  </defs>
  <g id="Groupe_55" data-name="Groupe 55" transform="translate(-544.304 -608.894)">
    <g id="Groupe_50" data-name="Groupe 50" transform="translate(544.304 608.894)">
      <g id="Groupe_9" data-name="Groupe 9">
        <path id="Tracé_36" data-name="Tracé 36" class="cls-1" d="M840.328-82.292c3.3-.547,34.234-3.472,63.354-4.818s70.36,0,108.884.9c44.059,1.031,92.641,1.031,136.721,0,38.524-.9,79.744-2.252,108.862-.9,29.142,1.345,60.049,4.271,63.352,4.818,2.317.4,4.842,1.558,5.3,4a46.713,46.713,0,0,1,.612,9.87c4.06,6.079,5.092,27.16,2.946,30.884,1.178,2.652,1.219,7.071.737,9.911,11.74,12.456,13.653,20.579,17.905,36.99,1.578,6.038,2.462,11.193,6.289,22.618,3.809,11.426,7.386,37.2,8.27,53.99.9,16.811-1.788,19.042.231,29.351s1.58,27.565,1.137,33.834c-.463,6.269-1.137,9.4-1.368,20.618-.21,11.195.464,19.042-2.672,32.486s-.9,30.7.674,48.836c1.557,18.158.211,23.986-.23,37.2s-.884,26.658-.884,37.179a73.773,73.773,0,0,1-3.7,21.9c-2.145,6.943-3.242,11.909-10.291,15.549-6.479,3.325-17.545,5.638-36.883,8.037-32.464,4.04-88.055,1.788-107.1.441s-46.582-9.4-64.97-19.483c-18.369-10.078-45.594-22.639-47.719-23.859-2.127-1.241-1.558-2.693-1.558-4.271,0-1.558.441-2.462,1.451-8.163,1.011-5.724,1.011-4.714,1.115-10.542.126-5.828,1.178-37.179,1.243-38.084a7.117,7.117,0,0,0-1.01-4.25c-1.01-1.515-5.281-7.91-6.732-10.037-1.937-2.84-4.8-2.84-6.755,0-1.454,2.127-5.7,8.523-6.712,10.037a7.1,7.1,0,0,0-1.011,4.25c.064.9,1.117,32.256,1.219,38.084.128,5.828.128,4.818,1.139,10.542,1.01,5.7,1.452,6.606,1.452,8.163,0,1.578.547,3.029-1.58,4.271-2.123,1.221-29.351,13.781-47.717,23.859S978.4,370.054,959.354,371.4s-74.608,3.6-107.1-.441c-19.313-2.4-30.4-4.711-36.861-8.037-7.049-3.64-8.163-8.606-10.289-15.549a73.7,73.7,0,0,1-3.7-21.9c0-10.521-.443-23.966-.906-37.179-.441-13.214-1.788-19.042-.21-37.2,1.558-18.138,3.809-35.389.674-48.836s-2.48-21.291-2.693-32.486c-.233-11.213-.9-14.349-1.347-20.618s-.9-23.523,1.115-33.834-.671-12.54.233-29.351c.9-16.79,4.481-42.565,8.29-53.99s4.713-16.58,6.271-22.618c4.248-16.411,6.185-24.533,17.925-36.99-.486-2.84-.464-7.259.737-9.911-2.146-3.723-1.137-24.8,2.923-30.884a47.639,47.639,0,0,1,.631-9.87C835.491-80.734,838.016-81.892,840.328-82.292Z" transform="translate(-796.538 87.679)"/>
        <path id="Tracé_37" data-name="Tracé 37" class="cls-2" d="M1032.016-1.124c-7.51-31.329-19.589-48.582-34.885-4.04C992.02,9.754,990.4,27.429,986.38-.493c-8.037-55.735-37.433-42.985-49.677,1.727-5.134,18.809-7.827,15.674-8.059-8.964-.231-25.186-9.657-51.465-32.064-20.41-12.646,17.5-13.446,10.438-9.386-7.827,2.654-11.887-9.531-10.542-17.337-1.388-21.8,25.523-23.837,48.16-40.123,78.207-10.289,18.979-23.48,46.645-33.18,61.9a113.266,113.266,0,0,1,1.472-18.368,36.893,36.893,0,0,0,.78-7.763c1.852-2.629,3.6-4.946,5.008-6.608,6.481-7.553,15.655-24.029,18.895-39.133,4.311-20.075,2.672-16.666,13.444-35.6,4.965-8.753,10.183-18.6,12.771-25.776,2.082-5.783,2.546-10.309-2.862-8.478-7.679,2.609-8.163-1.094-9.741-6.018-1.682-5.3-5.279-9.468-11.887-6.038a72.686,72.686,0,0,1,5.765-6.943c9.488,1.074,27.646,3.093,33.2,3.6,7.617.674,55.378,4.754,68.615,6.208,13.214,1.451,57.25,5.093,68.886,5.932,57.714,4.189,102,4.146,160.01,0,11.638-.821,55.694-4.481,68.908-5.932s61-5.534,68.612-6.208c5.534-.5,23.69-2.523,33.18-3.6a76.769,76.769,0,0,1,5.785,6.943c-10.94-5.661-10.266,4.924-10.35,11.593-.086,8.292-2.442,8.649-7.112,6.565-5.871-2.652-5.513,1.051-4.083,4.9,1.474,4,6.945,17.486,11.026,25.776,9.088,18.578,7.849,12.54,12.246,33.076,3.24,15.1,12.414,31.58,18.895,39.133,1.409,1.662,3.154,3.979,5.008,6.608a36.813,36.813,0,0,0,.755,7.763,110.889,110.889,0,0,1,1.5,18.368c-9.7-15.255-22.892-42.922-33.182-61.9-14.518-26.762-19-54.494-40.713-76.082-8.772-8.753-20.43-17.294-16.768-.737,4.058,18.264,3.26,25.331-9.364,7.827-22.408-31.055-31.856-4.777-32.066,20.41-.231,24.637-2.923,27.773-8.08,8.964-9.8-35.771-38.884-59.061-47.719-13.444-4.25,21.965-3.135,38.314-9.868,15.906-15.425-51.444-23.208-42.8-38.525-6.459-7.576,17.966-11.805,22.261-22.41-4.462-16.684-41.995-44.287-28.487-60.512,6.481C1039.3,13.9,1038.391,25.387,1032.016-1.124Z" transform="translate(-796.525 118.613)"/>
        <path id="Tracé_38" data-name="Tracé 38" class="cls-2" d="M990.944,98.8c1.452,2.127,5.722,8.523,6.732,10.037a7.116,7.116,0,0,1,1.01,4.25c-.065.9-1.116,32.256-1.243,38.084-.1,5.828-.1,4.818-1.115,10.542-1.01,5.7-1.451,6.606-1.451,8.163,0,1.578-.569,3.029,1.557,4.271,2.125,1.221,29.351,13.781,47.719,23.859,12.538,6.881,29.351,12.814,44.793,16.327-16.074-15.757-47.214-47.172-59.271-65.9-16.578-25.774-29.118-36.969-10.309-29.14,18.83,7.849,27.1,8.962,6.732-9.848-20.409-18.832-37.43-41.681-10.309-25.311,86.327,52.075,51.738,21.187,6.712-8.08-30.677-19.946-41.029-22.535-69.874,0-32.866,25.689-59.734,48.182,6.733,8.08,27.1-16.37,10.076,6.479-10.311,25.311-20.387,18.809-12.1,17.7,6.712,9.848,18.832-7.829,6.292,3.366-10.288,29.14-12.056,18.725-43.2,50.14-59.292,65.9,15.463-3.513,32.274-9.445,44.8-16.327,18.366-10.078,45.594-22.639,47.717-23.859,2.127-1.241,1.58-2.693,1.58-4.271,0-1.558-.441-2.462-1.451-8.163-1.011-5.724-1.011-4.714-1.139-10.542-.1-5.828-1.155-37.179-1.219-38.084a7.1,7.1,0,0,1,1.011-4.25c1.01-1.515,5.258-7.91,6.712-10.037C986.145,95.963,989.007,95.963,990.944,98.8Z" transform="translate(-703.188 241.587)"/>
        <path id="Tracé_39" data-name="Tracé 39" class="cls-3" d="M935.5-48.719q.034,16.41.19,32.739.38,40.493.5,81.048c.106,26.3.4,54.262-.147,80.5-.441,21.1-.378,43.744-.147,66.044-.147.171-.274.359-.421.547-.464.676-1.2,1.788-2.041,3.031-.19-24.049-.337-53.99,0-69.833.631-29.224-.1-133.605-.357-160.978-.042-5.787-.084-17.633-.127-33.119l2.546.02Zm8.437-.02c.043,10.96.086,21.881.19,32.76q.379,40.493.527,81.048c.106,26.3.38,54.262-.169,80.5-.461,22.281-.357,46.27-.1,69.77-.863-1.3-1.664-2.462-2.145-3.178a5.715,5.715,0,0,0-.38-.5c-.19-23.4-.3-51.212.043-66.3.61-29.224-.106-133.605-.38-160.978-.043-5.767-.083-17.613-.126-33.1Z" transform="translate(-654.48 128.23)"/>
        <path id="Tracé_40" data-name="Tracé 40" class="cls-1" d="M1068.555,106.02c.106,3.031.253,3.24,1.073,7.892,1.011,5.7,1.452,6.606,1.452,8.163,0,1.578.547,3.029-1.58,4.271-2.123,1.221-29.351,13.781-47.717,23.859s-45.933,18.138-64.975,19.483-74.608,3.6-107.1-.441c-19.313-2.4-30.4-4.711-36.861-8.037-7.049-3.64-8.163-8.606-10.288-15.549a78.517,78.517,0,0,1-3.577-18.115,56.91,56.91,0,0,0,4.377,8.394c6.9,9.364,16.874,12.75,28,14.33,20.557,2.944,42.605,5.406,63.352,5.2q17.61-.19,35.224-.527c8.751-.167,17.5-.378,26.256-.694,5.893-.231,12.1-.38,17.948-1.031,11.95-1.327,26.07-4.207,36.356-10.582,1.515-.947,3.011-1.937,4.483-2.989,3.915-2.776,7.637-5.806,11.529-8.627a135.553,135.553,0,0,1,15.612-9.782C1050.711,116.647,1060.138,111.2,1068.555,106.02Z" transform="translate(-793.992 289.391)"/>
        <path id="Tracé_41" data-name="Tracé 41" class="cls-2" d="M977.75,106.02c.106,3.031.253,3.24,1.074,7.892,1.01,5.7,1.451,6.606,1.451,8.163,0,1.578.547,3.029-1.58,4.271-2.123,1.221-29.351,13.781-47.717,23.859-12.522,6.881-29.332,12.814-44.8,16.327,4.671-4.587,10.623-10.476,17-17a64.07,64.07,0,0,0,16.517-6.9c1.514-.947,3.011-1.937,4.483-2.989,3.916-2.776,7.637-5.806,11.53-8.627a135.5,135.5,0,0,1,15.612-9.782C959.907,116.647,969.334,111.2,977.75,106.02Z" transform="translate(-703.188 289.391)"/>
        <path id="Tracé_42" data-name="Tracé 42" class="cls-1" d="M941.967,106.02c-.084,3.031-.231,3.24-1.052,7.892-1.011,5.7-1.451,6.606-1.451,8.163,0,1.578-.569,3.029,1.558,4.271,2.125,1.221,29.35,13.781,47.719,23.859,18.389,10.078,45.929,18.138,64.971,19.483s74.632,3.6,107.1-.441c19.338-2.4,30.4-4.711,36.883-8.037,7.049-3.64,8.145-8.606,10.291-15.549a78.672,78.672,0,0,0,3.576-18.115,57.281,57.281,0,0,1-4.4,8.394c-6.879,9.364-16.853,12.75-27.983,14.33-20.579,2.944-42.61,5.406-63.354,5.2q-17.613-.19-35.222-.527c-8.753-.167-17.5-.378-26.258-.694-5.892-.231-12.1-.38-17.948-1.031-11.952-1.327-26.089-4.207-36.359-10.582-1.535-.947-3.007-1.937-4.481-2.989-3.913-2.776-7.659-5.806-11.527-8.627a137.507,137.507,0,0,0-15.614-9.782C959.808,116.647,950.384,111.2,941.967,106.02Z" transform="translate(-647.775 289.391)"/>
        <path id="Tracé_43" data-name="Tracé 43" class="cls-2" d="M941.967,106.02c-.084,3.031-.231,3.24-1.052,7.892-1.011,5.7-1.451,6.606-1.451,8.163,0,1.578-.569,3.029,1.558,4.271,2.125,1.221,29.35,13.781,47.719,23.859,12.538,6.881,29.351,12.814,44.794,16.327-4.671-4.587-10.6-10.476-16.98-17a63.822,63.822,0,0,1-16.516-6.9c-1.535-.947-3.007-1.937-4.481-2.989-3.913-2.776-7.659-5.806-11.527-8.627a137.507,137.507,0,0,0-15.614-9.782C959.808,116.647,950.384,111.2,941.967,106.02Z" transform="translate(-647.775 289.391)"/>
        <path id="Tracé_44" data-name="Tracé 44" class="cls-3" d="M940.75,104.917c-.041,1.874-.063,2.989-.125,3.893,8.668,5.365,17.568,10.544,26.509,15.316a135.251,135.251,0,0,1,15.614,9.786c3.869,2.819,7.614,5.828,11.528,8.625,1.474,1.033,2.946,2.043,4.481,2.989,10.27,6.355,24.406,9.237,36.359,10.562,5.849.653,12.056.821,17.948,1.031,8.753.314,17.5.527,26.258.717q17.61.346,35.222.525c20.745.212,42.775-2.252,63.354-5.2,11.129-1.6,21.1-4.967,27.983-14.328a38.976,38.976,0,0,0,4.228-8.229,56.328,56.328,0,0,0,.3-5.7c0-1.747,0-3.6.021-5.493-1.958,6.269-4.673,13.951-7.239,17.423-4.713,6.4-11.656,10.983-25.774,13s-41.113,5.387-62.847,5.157-66.994-.906-79.091-2.252-25.541-4.252-34.948-10.08-15.9-12.981-31.813-21.5C957.329,115.061,946.157,108.285,940.75,104.917Z" transform="translate(-646.494 288.242)"/>
        <path id="Tracé_45" data-name="Tracé 45" class="cls-3" d="M1068.6,104.917c.043,1.874.063,2.989.126,3.893-8.669,5.365-17.588,10.544-26.511,15.316a133.382,133.382,0,0,0-15.612,9.786c-3.893,2.819-7.614,5.828-11.529,8.625-1.472,1.033-2.968,2.043-4.483,2.989-10.287,6.355-24.407,9.237-36.357,10.562-5.849.653-12.054.821-17.948,1.031-8.752.314-17.505.527-26.256.717q-17.613.346-35.224.525c-20.746.212-42.795-2.252-63.351-5.2-11.13-1.6-21.1-4.967-28-14.328a39.842,39.842,0,0,1-4.23-8.229c-.167-1.872-.274-3.766-.274-5.7,0-1.747-.022-3.6-.043-5.493,1.958,6.269,4.691,13.951,7.259,17.423,4.691,6.4,11.636,10.983,25.754,13s41.113,5.387,62.848,5.157,66.992-.906,79.091-2.252,25.541-4.252,34.946-10.08c9.427-5.826,15.909-12.981,31.815-21.5C1052.018,115.061,1063.17,108.285,1068.6,104.917Z" transform="translate(-794.078 288.242)"/>
        <path id="Tracé_46" data-name="Tracé 46" class="cls-4" d="M917.581,75.581c-.5.316-.633.757-.737,1.682-.169,1.327.335,11.362.21,14.9-.106,3.515,1.472,5.263,3.872,5.6,2.419.337,6.543-.4,6.543-4.083,0-3.7.063-14.01.063-15.463,0-1.872-.3-2.586-1.829-3.072.421-5.806,1.345-14.5,2.627-25.9,1.77-15.486,2.084-62.364,2.738-70,1.051-12.183,1.955-26.552.208-38.9-1.85-2.233-6.163-2.609-8.5-1.558-.945,7.173-3.007,14.034-4.522,21.124-2.462,11.446.167,15.949-.273,37.577a246.439,246.439,0,0,1-5.3,45.384c-1.454,7.218-.233,17.611,1.659,24.2A69.571,69.571,0,0,0,917.581,75.581Z" transform="translate(-676.262 114.646)"/>
        <path id="Tracé_47" data-name="Tracé 47" class="cls-4" d="M961.448,13.785c.506.316.631.757.737,1.684.168,1.347-.337,11.36-.23,14.9.124,3.515-1.452,5.261-3.852,5.6-2.419.339-6.563-.4-6.563-4.081,0-3.7-.043-14.012-.043-15.465,0-1.849.3-2.586,1.831-3.072-.423-5.806-1.347-14.5-2.652-25.9-1.347-12.056-1.471-35.412.19-47.109,1.831-2.233,6.163-2.609,8.48-1.558,1.388,10.37,4.924,32,7.006,42.311,1.45,7.216.231,17.609-1.664,24.174A68.014,68.014,0,0,1,961.448,13.785Z" transform="translate(-637.104 114.646)"/>
        <path id="Tracé_48" data-name="Tracé 48" class="cls-3" d="M1045.1-56.294c3.829,10.793,21.651,56.072,27.5,70.927,6.5,16.474,32.444,64.152,38.693,76.376q1.261,2.462,2.462,4.924c.19,4.628.19,9.3.106,13.193-4.589-8.059-9.07-16.159-11.3-22.851-4-11.971-25.227-44.69-29.961-56.178-4.754-11.466-22.471-52.159-26.723-63.141-2.8-7.259-5.7-16.117-7.931-22.094Z" transform="translate(-545.151 120.363)"/>
        <path id="Tracé_49" data-name="Tracé 49" class="cls-3" d="M865.349-56.294C861.54-45.5,843.721-.222,837.87,14.633c-6.5,16.474-32.466,64.152-38.694,76.376-.841,1.641-1.662,3.283-2.484,4.924-.186,4.628-.186,9.3-.084,13.193,4.568-8.059,9.07-16.159,11.3-22.851,4-11.971,25.207-44.69,29.961-56.178,4.734-11.466,22.451-52.159,26.7-63.141,2.8-7.259,5.724-16.117,7.932-22.094Z" transform="translate(-796.54 120.363)"/>
        <path id="Tracé_50" data-name="Tracé 50" class="cls-1" d="M823.153-82.292c3.3-.547,34.234-3.472,63.354-4.818s70.36,0,108.885.9c44.059,1.031,92.641,1.031,136.72,0,38.525-.9,79.744-2.252,108.862-.9,29.142,1.345,60.049,4.271,63.352,4.818,2.317.4,4.842,1.558,5.283,4a46.048,46.048,0,0,1,.631,9.87c4.06,6.057,5.091,27.16,2.946,30.884,1.178,2.652,1.219,7.071.737,9.911l.525.59c-9.491,1.074-27.647,3.093-33.18,3.6-7.616.674-55.4,4.754-68.613,6.208s-57.27,5.112-68.908,5.932c-58.007,4.168-102.3,4.209-160.01,0-11.636-.839-55.672-4.481-68.886-5.932-13.236-1.453-61-5.534-68.614-6.208-5.555-.5-23.712-2.523-33.2-3.6l.547-.59c-.486-2.84-.463-7.259.737-9.911-2.145-3.723-1.137-24.827,2.923-30.884a47.63,47.63,0,0,1,.631-9.87C818.315-80.734,820.84-81.892,823.153-82.292Z" transform="translate(-779.362 87.679)"/>
        <path id="Tracé_51" data-name="Tracé 51" class="cls-1" d="M1029.1-62.425c-12,0-36.192-1.115-44.481-1.915-8.288-.778-42.8-3.807-61.607-6.142-18.832-2.358-50.305-5.281-64.3-6.291-14.014-.99-33.813-2.548-33.813-2.548s-2.062-.208-5.493-.608c-3.407-.38.339-1.788,4.379-2.188,4.04-.378,10.919-1.284,14.832-1.558,3.936-.294,22.955-1.664,28.047-1.937s26.891-1.176,34.274-1.241c7.386-.041,25.754.57,34.948.78,9.2.231,57.483,1.137,67.457,1.684,29.541,1.662,80.73,1.662,110.293,0,9.972-.547,58.26-1.453,67.434-1.684,9.194-.21,27.562-.821,34.969-.78,7.385.065,29.183.968,34.275,1.241s24.113,1.643,28.026,1.937c3.934.274,10.815,1.18,14.855,1.558,4.04.4,7.784,1.809,4.354,2.188-3.409.4-5.491.608-5.491.608s-19.8,1.558-33.791,2.548c-14.012,1.01-45.488,3.934-64.3,6.291-18.831,2.335-53.339,5.365-61.627,6.142-8.27.8-32.489,1.915-44.459,1.915Z" transform="translate(-774.107 88.536)"/>
        <path id="Tracé_52" data-name="Tracé 52" class="cls-2" d="M999.121-67.94c-12,0-36.192-1.115-44.481-1.915-8.288-.778-42.795-3.807-61.606-6.142-12.707-1.6-31.18-3.452-46.161-4.777,1.472-.084,2.946-.147,4.4-.212,29.12-1.345,70.359-.018,108.884.886,44.059,1.031,92.641,1.031,136.721,0,38.524-.9,79.744-2.231,108.862-.886,1.474.065,2.925.129,4.4.212C1195.174-79.45,1176.7-77.6,1163.992-76c-18.832,2.335-53.339,5.365-61.627,6.142-8.27.8-32.489,1.915-44.459,1.915Z" transform="translate(-744.125 94.052)"/>
        <g id="Groupe_7" data-name="Groupe 7" transform="translate(37.772 11.294)">
          <path id="Tracé_53" data-name="Tracé 53" class="cls-3" d="M815.043-38.146c0-4.609.359-6.861.633-11.276.273-4.442.9-14.247,2.356-18.495s1.621-6.269,2.631-10.248c1.578-6.165,2.186-4.42,1.325.147-.778,4-2.039,8.878-2.335,12.287-.337,3.915-2.376,14.771-2.609,22.684-.084,3.28-.041,3.24-.063,4.985C816.854-33.1,815.043-33.539,815.043-38.146Z" transform="translate(-815.043 82.146)"/>
          <path id="Tracé_54" data-name="Tracé 54" class="cls-3" d="M822.908-78.551c-.19,1.137-.38,2.548-.463,3.809-.19,2.756-2.862,9.846-3.242,13.845-.4,3.977-1.241,12.981-1.578,16.623-.274,2.964-.42,4.081-.484,5.846-.147,5.828,1.264,4.483,1.643-.292.251-3.368.419-8.186.8-11.215.527-3.809,1.472-11.426,1.913-14.392s1.958-5.532,2.588-9.911c.17-1.3.317-2.693.4-3.913C824.8-83.431,823.5-82.507,822.908-78.551Z" transform="translate(-812.869 82.489)"/>
          <path id="Tracé_55" data-name="Tracé 55" class="cls-3" d="M825.887-78.785c-.737,3.262-2.252,9.85-2.925,13.426-.882,4.879-2.5,14.516-2.736,18.536-.231,4.04-.778,4.1-.841,7.239s.527,7.4,1.411.945c.882-6.436,2.021-12.875,2.462-16.18s2.966-14.349,3.366-18.031c.378-3.7.547-3.7.821-5.785C827.992-82.592,826.708-82.3,825.887-78.785Z" transform="translate(-810.526 82.808)"/>
          <path id="Tracé_56" data-name="Tracé 56" class="cls-3" d="M821.074-38.658c.38-2.8.949-6.816,1.348-8.774.612-3.115,3.346-14.9,4.25-18.3.884-3.409,1.39-8.394,2.125-11.868.715-3.493,1.58-4.605,1.284-1.515-.274,3.072-.441,8.839-1.117,11.869s-3.154,13.528-4.058,17.737c-.9,4.187-1.956,7.784-2.525,10.96C821.644-34.281,820.425-33.944,821.074-38.658Z" transform="translate(-808.955 83.416)"/>
          <path id="Tracé_57" data-name="Tracé 57" class="cls-3" d="M823.565-36.667c.253-2.715.843-8.711,1.39-12.14.735-4.546,3.029-13.444,3.807-18.389.778-4.924.9-7.555,1.345-10.584.443-3.009,2.125-5.3,1.958-1.558s-1.241,11.866-2.019,16.137c-.778,4.252-2.841,12.646-3.409,17.023-.567,4.354-1.117,7.847-1.515,9.574C824.491-33.786,823.314-33.888,823.565-36.667Z" transform="translate(-806.205 83.045)"/>
          <path id="Tracé_58" data-name="Tracé 58" class="cls-3" d="M826.721-39.253c.4-2.419.927-5.765,1.221-8.016.464-3.787,2.946-16.558,3.556-20.263.631-3.7,1.031-6.839,1.557-10.2.524-3.346,1.955-4.693,1.6-1.284-.358,3.429-1.494,11.93-1.852,14.455-.38,2.525-2.336,12.034-2.758,15-.418,2.989-1.072,6.732-1.808,10.309C827.268-34.5,825.774-33.592,826.721-39.253Z" transform="translate(-803.197 83.337)"/>
          <path id="Tracé_59" data-name="Tracé 59" class="cls-3" d="M829.659-36.592c0-4.609.357-6.879.653-11.3.274-4.418.884-14.224,2.335-18.472,1.472-4.273,1.639-6.271,2.629-10.248,1.578-6.185,2.211-4.44,1.327.147-.759,3.977-2.043,8.88-2.317,12.287-.335,3.915-2.4,14.751-2.607,22.684-.106,3.28-.043,3.219-.086,4.985C831.49-31.542,829.659-31.983,829.659-36.592Z" transform="translate(-799.823 83.749)"/>
          <path id="Tracé_60" data-name="Tracé 60" class="cls-3" d="M837.511-77.018c-.167,1.159-.357,2.546-.441,3.83-.19,2.756-2.862,9.848-3.262,13.824-.378,3.975-1.219,13-1.555,16.641-.274,2.968-.441,4.062-.484,5.828-.17,5.83,1.241,4.5,1.618-.274.274-3.387.421-8.2.821-11.213.5-3.809,1.454-11.423,1.895-14.392.464-2.966,1.978-5.555,2.588-9.931.19-1.3.335-2.695.419-3.913C839.428-81.9,838.1-80.954,837.511-77.018Z" transform="translate(-797.64 84.093)"/>
          <path id="Tracé_61" data-name="Tracé 61" class="cls-3" d="M840.491-77.232c-.737,3.242-2.252,9.85-2.9,13.426-.906,4.86-2.525,14.5-2.735,18.536-.233,4.04-.8,4.083-.841,7.239-.063,3.113.507,7.384,1.388.925.884-6.438,2.019-12.875,2.462-16.178s2.966-14.33,3.366-18.033.567-3.7.841-5.765C842.616-81.059,841.312-80.763,840.491-77.232Z" transform="translate(-795.295 84.41)"/>
          <path id="Tracé_62" data-name="Tracé 62" class="cls-3" d="M835.686-36.6c.4-2.862.968-6.988,1.347-8.984.608-3.219,3.366-15.3,4.25-18.791.9-3.513,1.409-8.627,2.145-12.181.717-3.576,1.555-4.736,1.282-1.558-.292,3.156-.461,9.068-1.135,12.181-.672,3.095-3.156,13.887-4.04,18.2-.9,4.293-1.978,7.976-2.525,11.256C836.256-32.1,835.055-31.765,835.686-36.6Z" transform="translate(-793.73 84.412)"/>
          <path id="Tracé_63" data-name="Tracé 63" class="cls-3" d="M838.193-35.13c.255-2.715.821-8.711,1.39-12.142.714-4.524,3.007-13.444,3.809-18.366.778-4.926.884-7.555,1.348-10.587.441-3.029,2.123-5.322,1.955-1.576a160.9,160.9,0,0,1-2.021,16.137c-.8,4.25-2.862,12.644-3.429,17.023-.545,4.377-1.115,7.847-1.494,9.594C839.1-32.248,837.919-32.334,838.193-35.13Z" transform="translate(-790.978 84.645)"/>
          <path id="Tracé_64" data-name="Tracé 64" class="cls-3" d="M841.335-37.717c.421-2.4.947-5.744,1.221-8,.463-3.807,2.948-16.58,3.578-20.283.61-3.683,1.029-6.816,1.533-10.182.529-3.368,1.978-4.714,1.621-1.306-.378,3.432-1.515,11.952-1.872,14.477-.357,2.5-2.335,12.036-2.735,15-.421,2.966-1.094,6.712-1.831,10.309C841.9-32.94,840.389-32.058,841.335-37.717Z" transform="translate(-787.975 84.937)"/>
          <path id="Tracé_65" data-name="Tracé 65" class="cls-3" d="M844.4-35.694c0-4.607.359-6.859.653-11.276.274-4.442.884-14.245,2.356-18.495,1.451-4.252,1.619-6.271,2.629-10.248,1.557-6.165,2.19-4.42,1.307.167-.759,3.979-2.021,8.86-2.317,12.269-.335,3.913-2.4,14.769-2.609,22.682-.1,3.3-.041,3.24-.084,4.985C846.227-30.644,844.4-31.087,844.4-35.694Z" transform="translate(-784.474 84.702)"/>
          <path id="Tracé_66" data-name="Tracé 66" class="cls-3" d="M852.253-76.1c-.169,1.135-.359,2.544-.443,3.807-.19,2.756-2.86,9.868-3.24,13.845-.4,3.977-1.241,12.981-1.578,16.623-.274,2.966-.441,4.081-.484,5.849-.169,5.828,1.241,4.483,1.619-.294.273-3.368.42-8.186.823-11.193.5-3.832,1.47-11.448,1.915-14.414s1.956-5.532,2.566-9.911c.19-1.3.335-2.693.42-3.913C854.167-80.983,852.843-80.036,852.253-76.1Z" transform="translate(-782.291 85.048)"/>
          <path id="Tracé_67" data-name="Tracé 67" class="cls-3" d="M855.252-76.33c-.757,3.26-2.252,9.846-2.925,13.422-.884,4.883-2.5,14.518-2.735,18.558-.233,4.019-.78,4.083-.841,7.218s.5,7.4,1.39.945c.9-6.438,2.019-12.875,2.48-16.178.443-3.3,2.945-14.353,3.346-18.031.4-3.705.567-3.705.841-5.787C857.355-80.14,856.052-79.844,855.252-76.33Z" transform="translate(-779.947 85.362)"/>
          <path id="Tracé_68" data-name="Tracé 68" class="cls-3" d="M850.425-36.205c.4-2.8.968-6.816,1.347-8.753.61-3.154,3.364-14.916,4.25-18.327.9-3.407,1.409-8.394,2.145-11.864.717-3.493,1.556-4.607,1.282-1.515-.274,3.07-.464,8.837-1.112,11.864-.676,3.031-3.179,13.532-4.062,17.739-.9,4.187-1.956,7.784-2.525,10.962C850.995-31.829,849.795-31.494,850.425-36.205Z" transform="translate(-778.382 85.971)"/>
          <path id="Tracé_69" data-name="Tracé 69" class="cls-3" d="M852.929-34.214c.253-2.715.843-8.711,1.39-12.14.737-4.544,3.029-13.444,3.807-18.368.78-4.944.886-7.576,1.347-10.6.441-3.009,2.127-5.3,1.958-1.558s-1.243,11.866-2.021,16.137c-.778,4.252-2.86,12.646-3.43,17.023-.547,4.354-1.114,7.847-1.492,9.572C853.855-31.331,852.678-31.437,852.929-34.214Z" transform="translate(-775.626 85.6)"/>
          <path id="Tracé_70" data-name="Tracé 70" class="cls-3" d="M856.075-36.8c.419-2.419.945-5.744,1.219-8,.464-3.807,2.946-16.578,3.577-20.283.612-3.7,1.033-6.837,1.557-10.2.5-3.346,1.955-4.693,1.6-1.284-.357,3.43-1.515,11.93-1.872,14.453s-2.315,12.036-2.734,15.024c-.422,2.966-1.094,6.712-1.811,10.288C856.643-32.045,855.126-31.159,856.075-36.8Z" transform="translate(-772.626 85.891)"/>
          <path id="Tracé_71" data-name="Tracé 71" class="cls-3" d="M859.023-34.139c0-4.609.359-6.879.633-11.3.294-4.42.9-14.224,2.355-18.472,1.453-4.273,1.621-6.269,2.631-10.248,1.556-6.185,2.209-4.44,1.325.147-.778,3.977-2.039,8.878-2.335,12.287-.337,3.915-2.378,14.751-2.609,22.684-.084,3.28-.041,3.219-.084,4.985C860.834-29.089,859.023-29.532,859.023-34.139Z" transform="translate(-769.244 86.303)"/>
          <path id="Tracé_72" data-name="Tracé 72" class="cls-3" d="M866.866-74.546c-.167,1.137-.337,2.548-.423,3.809-.186,2.756-2.86,9.845-3.26,13.824s-1.239,13-1.578,16.643c-.273,2.966-.421,4.058-.484,5.828-.147,5.851,1.264,4.5,1.641-.274.253-3.389.42-8.206.821-11.215.506-3.809,1.451-11.425,1.892-14.392s1.958-5.555,2.589-9.929c.169-1.284.316-2.695.4-3.915C868.779-79.447,867.476-78.5,866.866-74.546Z" transform="translate(-767.07 86.648)"/>
          <path id="Tracé_73" data-name="Tracé 73" class="cls-3" d="M869.866-74.782c-.757,3.242-2.252,9.85-2.9,13.426-.9,4.881-2.525,14.5-2.758,18.536-.208,4.04-.778,4.083-.841,7.239-.043,3.113.527,7.386,1.411.945s2.019-12.9,2.462-16.2S870.2-65.165,870.6-68.868c.378-3.681.547-3.681.841-5.765C871.971-78.589,870.687-78.316,869.866-74.782Z" transform="translate(-764.725 86.968)"/>
          <path id="Tracé_74" data-name="Tracé 74" class="cls-3" d="M865.054-34.153c.379-2.862.969-6.986,1.347-8.984.612-3.219,3.346-15.3,4.25-18.791.907-3.513,1.411-8.627,2.125-12.2.737-3.554,1.557-4.693,1.284-1.535s-.441,9.068-1.117,12.183c-.672,3.093-3.154,13.885-4.058,18.2-.886,4.313-1.96,7.974-2.525,11.256C865.623-29.65,864.4-29.315,865.054-34.153Z" transform="translate(-763.155 86.971)"/>
          <path id="Tracé_75" data-name="Tracé 75" class="cls-3" d="M867.545-32.66c.253-2.735.843-8.733,1.388-12.162.737-4.522,3.031-13.444,3.809-18.366s.9-7.555,1.347-10.584,2.123-5.324,1.956-1.558a161.012,161.012,0,0,1-2,16.117c-.8,4.25-2.862,12.667-3.429,17.023-.568,4.375-1.117,7.847-1.515,9.572C868.472-29.8,867.294-29.881,867.545-32.66Z" transform="translate(-760.406 87.202)"/>
          <path id="Tracé_76" data-name="Tracé 76" class="cls-3" d="M870.571-34.787c.4-2.419.927-5.765,1.2-7.994.463-3.832,2.966-16.6,3.576-20.283.608-3.7,1.031-6.839,1.558-10.207.5-3.364,1.956-4.689,1.6-1.282s-1.494,11.93-1.872,14.455c-.359,2.523-2.315,12.036-2.737,15s-1.094,6.732-1.809,10.311C871.119-30.031,869.6-29.126,870.571-34.787Z" transform="translate(-757.541 87.982)"/>
          <path id="Tracé_77" data-name="Tracé 77" class="cls-3" d="M873.793-32.972c0-4.607.357-6.859.633-11.3.294-4.42.9-14.222,2.356-18.472,1.474-4.252,1.621-6.271,2.652-10.248,1.555-6.165,2.188-4.42,1.3.149-.755,4-2.041,8.878-2.335,12.287-.315,3.913-2.376,14.769-2.589,22.68-.1,3.283-.043,3.242-.083,4.987C875.624-27.922,873.793-28.365,873.793-32.972Z" transform="translate(-753.863 87.535)"/>
          <path id="Tracé_78" data-name="Tracé 78" class="cls-3" d="M881.649-73.374c-.19,1.135-.36,2.544-.443,3.807-.19,2.758-2.862,9.848-3.262,13.845-.38,3.956-1.221,12.981-1.558,16.623-.274,2.966-.441,4.081-.482,5.848-.169,5.828,1.241,4.483,1.619-.294.276-3.368.421-8.186.821-11.215.506-3.809,1.451-11.426,1.892-14.392.464-2.968,1.96-5.555,2.591-9.909.187-1.306.337-2.693.4-3.936C883.561-78.257,882.236-77.33,881.649-73.374Z" transform="translate(-751.679 87.876)"/>
          <path id="Tracé_79" data-name="Tracé 79" class="cls-3" d="M884.624-73.609c-.733,3.24-2.25,9.846-2.9,13.422-.9,4.883-2.525,14.518-2.758,18.538-.21,4.04-.778,4.1-.819,7.239-.065,3.133.5,7.386,1.386.947s2.021-12.877,2.464-16.18c.461-3.325,2.966-14.351,3.364-18.031.4-3.705.569-3.705.843-5.787C886.731-77.419,885.447-77.123,884.624-73.609Z" transform="translate(-749.334 88.196)"/>
          <path id="Tracé_80" data-name="Tracé 80" class="cls-3" d="M879.82-33.5c.38-2.778.969-6.818,1.347-8.753.61-3.133,3.366-14.9,4.25-18.3.9-3.43,1.408-8.4,2.125-11.889.737-3.47,1.58-4.587,1.284-1.515-.274,3.093-.443,8.857-1.115,11.887s-3.156,13.532-4.06,17.717c-.884,4.207-1.958,7.786-2.5,10.985C880.389-29.1,879.189-28.769,879.82-33.5Z" transform="translate(-747.77 88.801)"/>
          <path id="Tracé_81" data-name="Tracé 81" class="cls-3" d="M882.325-31.488c.254-2.737.823-8.71,1.388-12.162.717-4.522,3.011-13.424,3.789-18.368.8-4.922.9-7.553,1.368-10.582.441-3.009,2.123-5.324,1.955-1.558a162.137,162.137,0,0,1-2.019,16.119c-.8,4.248-2.86,12.667-3.43,17.041-.547,4.354-1.117,7.827-1.515,9.572C883.231-28.605,882.074-28.711,882.325-31.488Z" transform="translate(-745.014 88.428)"/>
          <path id="Tracé_82" data-name="Tracé 82" class="cls-3" d="M885.47-34.079c.4-2.419.947-5.765,1.221-8.014.464-3.789,2.946-16.582,3.577-20.265.61-3.7,1.029-6.837,1.537-10.2.525-3.346,1.976-4.693,1.619-1.284-.38,3.407-1.515,11.932-1.872,14.453s-2.335,12.036-2.758,15c-.4,2.966-1.074,6.732-1.788,10.309C886.037-29.322,884.523-28.438,885.47-34.079Z" transform="translate(-742.015 88.725)"/>
          <path id="Tracé_83" data-name="Tracé 83" class="cls-3" d="M888.409-31.417c0-4.628.38-6.879.653-11.3s.9-14.222,2.356-18.472c1.451-4.273,1.621-6.292,2.629-10.268,1.558-6.165,2.188-4.42,1.307.167-.759,3.977-2.021,8.86-2.315,12.267-.339,3.936-2.378,14.771-2.609,22.7-.084,3.28-.043,3.219-.084,4.985C890.24-26.366,888.409-26.809,888.409-31.417Z" transform="translate(-738.642 89.135)"/>
          <path id="Tracé_84" data-name="Tracé 84" class="cls-3" d="M896.262-71.843c-.167,1.155-.357,2.544-.441,3.805-.19,2.778-2.862,9.868-3.242,13.847-.4,3.977-1.239,12.981-1.576,16.643-.273,2.966-.42,4.058-.486,5.828-.167,5.828,1.241,4.5,1.621-.274.274-3.387.422-8.206.82-11.215.5-3.809,1.474-11.425,1.917-14.414.441-2.966,1.955-5.532,2.566-9.907.188-1.306.335-2.695.419-3.915C898.177-76.726,896.852-75.779,896.262-71.843Z" transform="translate(-736.46 89.481)"/>
          <path id="Tracé_85" data-name="Tracé 85" class="cls-3" d="M899.264-72.074c-.759,3.26-2.251,9.868-2.927,13.422-.882,4.883-2.5,14.52-2.733,18.56s-.78,4.081-.843,7.214.526,7.408,1.411.949c.884-6.44,2-12.879,2.462-16.182.441-3.3,2.966-14.328,3.368-18.031.375-3.7.545-3.7.818-5.765C901.367-75.884,900.084-75.59,899.264-72.074Z" transform="translate(-734.116 89.797)"/>
          <path id="Tracé_86" data-name="Tracé 86" class="cls-3" d="M894.45-31.428c.38-2.862.947-6.986,1.325-8.986.61-3.217,3.368-15.3,4.272-18.809.884-3.491,1.388-8.606,2.125-12.183.715-3.556,1.558-4.711,1.284-1.537-.273,3.158-.443,9.07-1.116,12.185-.674,3.093-3.156,13.885-4.061,18.178-.9,4.313-1.955,7.994-2.525,11.279C895.02-26.927,893.8-26.59,894.45-31.428Z" transform="translate(-732.544 89.8)"/>
          <path id="Tracé_87" data-name="Tracé 87" class="cls-3" d="M896.941-29.958c.253-2.713.841-8.711,1.388-12.14.737-4.544,3.029-13.444,3.809-18.368.778-4.944.9-7.576,1.348-10.582.441-3.031,2.123-5.324,1.955-1.578a161.861,161.861,0,0,1-2.021,16.139c-.778,4.248-2.862,12.644-3.409,17.021-.565,4.375-1.135,7.849-1.515,9.572C897.866-27.074,896.688-27.16,896.941-29.958Z" transform="translate(-729.794 90.033)"/>
          <path id="Tracé_88" data-name="Tracé 88" class="cls-3" d="M900.081-32.543c.421-2.419.949-5.742,1.221-7.994.464-3.809,2.946-16.582,3.579-20.283.608-3.683,1.029-6.839,1.555-10.184.506-3.368,1.956-4.714,1.6-1.3-.357,3.427-1.494,11.95-1.872,14.455-.357,2.523-2.315,12.054-2.735,15.022s-1.094,6.71-1.809,10.309C900.65-27.787,899.154-26.882,900.081-32.543Z" transform="translate(-726.791 90.325)"/>
          <path id="Tracé_89" data-name="Tracé 89" class="cls-3" d="M903.148-30.519c0-4.607.38-6.859.653-11.279.274-4.438.9-14.243,2.356-18.495s1.619-6.269,2.629-10.246c1.58-6.165,2.19-4.418,1.325.149-.778,3.975-2.039,8.878-2.336,12.287-.335,3.911-2.376,14.769-2.609,22.68-.084,3.285-.041,3.242-.063,4.989C904.979-25.471,903.148-25.912,903.148-30.519Z" transform="translate(-723.294 90.089)"/>
          <path id="Tracé_90" data-name="Tracé 90" class="cls-3" d="M911.023-70.922c-.19,1.135-.38,2.546-.463,3.807-.19,2.758-2.862,9.87-3.24,13.822-.4,3.979-1.221,13.006-1.578,16.645-.251,2.966-.422,4.083-.484,5.849-.169,5.828,1.262,4.481,1.641-.294.251-3.366.421-8.186.8-11.215.5-3.807,1.474-11.426,1.917-14.392s1.955-5.555,2.586-9.909c.169-1.306.314-2.695.4-3.915C912.917-75.8,911.611-74.878,911.023-70.922Z" transform="translate(-721.111 90.432)"/>
          <path id="Tracé_91" data-name="Tracé 91" class="cls-3" d="M914-71.156c-.737,3.24-2.252,9.846-2.9,13.422-.9,4.883-2.525,14.52-2.756,18.538-.21,4.04-.78,4.1-.841,7.237-.041,3.136.525,7.386,1.408.949s2.021-12.879,2.462-16.182,2.968-14.349,3.366-18.052c.38-3.683.547-3.683.821-5.765C916.1-74.965,914.819-74.671,914-71.156Z" transform="translate(-718.765 90.75)"/>
          <path id="Tracé_92" data-name="Tracé 92" class="cls-3" d="M910.078-30.731c.233-2.8.61-6.839.9-8.794.464-3.158,2.631-15.045,3.346-18.517.737-3.452.99-8.457,1.558-11.95.547-3.515,1.325-4.673,1.2-1.578s0,8.857-.527,11.909-2.5,13.675-3.2,17.9c-.674,4.252-1.578,7.871-1.978,11.089C910.857-26.377,909.657-25.977,910.078-30.731Z" transform="translate(-716.168 91.291)"/>
          <path id="Tracé_93" data-name="Tracé 93" class="cls-3" d="M912.262-28.859c.212-2.715.694-8.733,1.178-12.162.653-4.544,2.819-13.487,3.515-18.434s.755-7.571,1.157-10.6,2.039-5.365,1.933-1.6A159.929,159.929,0,0,1,918.3-55.5c-.717,4.273-2.654,12.71-3.135,17.064-.486,4.4-.99,7.872-1.348,9.617C913.229-26,912.051-26.083,912.262-28.859Z" transform="translate(-713.829 91.04)"/>
          <path id="Tracé_94" data-name="Tracé 94" class="cls-3" d="M915.16-31.408c.315-2.439.694-5.806.884-8.057.294-3.809,2.252-16.684,2.736-20.389.463-3.744.734-6.879,1.115-10.268.38-3.364,1.767-4.775,1.557-1.345-.231,3.429-1.01,11.973-1.264,14.518-.273,2.523-1.831,12.12-2.123,15.106s-.8,6.755-1.37,10.374C915.918-26.674,914.446-25.725,915.16-31.408Z" transform="translate(-710.983 91.209)"/>
          <path id="Tracé_95" data-name="Tracé 95" class="cls-3" d="M918.367-29.512c-.273-4.609-.041-6.879-.041-11.3.02-4.44.061-14.265,1.284-18.6,1.2-4.334,1.241-6.353,2.019-10.393,1.2-6.251,1.937-4.546,1.325.084-.547,4.019-1.515,8.984-1.6,12.393-.106,3.934-1.515,14.875-1.284,22.808.1,3.28.149,3.219.233,4.965C920.472-24.59,918.64-24.9,918.367-29.512Z" transform="translate(-707.584 90.766)"/>
          <path id="Tracé_96" data-name="Tracé 96" class="cls-3" d="M923.789-70.325c-.125,1.157-.211,2.566-.231,3.83-.021,2.776-2.272,10.017-2.419,13.991-.169,4-.463,13.046-.59,16.707-.106,2.989-.21,4.1-.147,5.871.19,5.828,1.514,4.4,1.6-.4.084-3.366-.043-8.184.167-11.234.274-3.832.777-11.489,1.051-14.477S924.862-61.7,925.2-66.1c.129-1.3.19-2.715.19-3.934C925.387-75.31,924.146-74.3,923.789-70.325Z" transform="translate(-705.346 90.991)"/>
          <path id="Tracé_97" data-name="Tracé 97" class="cls-3" d="M926.805-70.7c-.569,3.3-1.682,9.97-2.127,13.569-.588,4.924-1.66,14.643-1.639,18.683s-.547,4.126-.423,7.259.949,7.345,1.474.864c.486-6.479,1.241-12.983,1.494-16.306s2.125-14.475,2.295-18.2c.167-3.705.335-3.723.5-5.808C928.677-74.642,927.416-74.262,926.805-70.7Z" transform="translate(-703.039 91.141)"/>
          <path id="Tracé_98" data-name="Tracé 98" class="cls-3" d="M925.056-29.435c.061-2.884.21-7.051.357-9.07.273-3.283,1.7-15.569,2.229-19.146.5-3.576.463-8.733.8-12.35s1.051-4.84,1.114-1.684c.063,3.176.527,9.088.21,12.246-.337,3.156-1.662,14.136-2.1,18.515-.42,4.377-1.074,8.163-1.284,11.466C926.107-25.017,924.927-24.556,925.056-29.435Z" transform="translate(-700.49 91.153)"/>
          <path id="Tracé_99" data-name="Tracé 99" class="cls-3" d="M927.859-27.55c-.043-2.776-.106-8.9.062-12.414.231-4.671,1.557-13.908,1.81-18.958.251-5.069.084-7.743.19-10.836.125-3.115,1.556-5.618,1.788-1.809s.041,12.12-.273,16.517c-.316,4.375-1.474,13.087-1.558,17.546-.084,4.485-.274,8.039-.464,9.85C929.078-24.753,927.9-24.708,927.859-27.55Z" transform="translate(-697.611 91.16)"/>
          <path id="Tracé_100" data-name="Tracé 100" class="cls-3" d="M930.629-29.748c.106-2.525.19-6.018.19-8.353-.041-3.956.8-17.358.968-21.23.126-3.85.147-7.133.233-10.648.084-3.491,1.345-5.069,1.429-1.515.063,3.536.022,12.416-.021,15.047s-.778,12.622-.8,15.716c-.041,3.093-.23,7.026-.484,10.793C931.787-24.928,930.4-23.836,930.629-29.748Z" transform="translate(-694.702 91.149)"/>
          <path id="Tracé_101" data-name="Tracé 101" class="cls-3" d="M933.166-29.763c.043-2.525.1-6.018.043-8.333-.084-3.954.567-17.337.651-21.187.085-3.87.043-7.133.063-10.625.043-3.493,1.284-5.091,1.409-1.537.129,3.515.212,12.373.233,14.982,0,2.629-.59,12.624-.567,15.694,0,3.095-.129,7.028-.337,10.774C934.409-25.008,933.039-23.873,933.166-29.763Z" transform="translate(-692.042 91.207)"/>
        </g>
        <g id="Groupe_8" data-name="Groupe 8" transform="translate(287.48 11.294)">
          <path id="Tracé_102" data-name="Tracé 102" class="cls-2" d="M1060.407-38.146c0-4.609-.358-6.861-.652-11.276-.273-4.442-.884-14.247-2.337-18.495a98.242,98.242,0,0,1-2.627-10.248c-1.58-6.165-2.211-4.42-1.325.147.755,4,2.019,8.878,2.313,12.287.337,3.915,2.4,14.771,2.609,22.684.1,3.28.041,3.24.086,4.985C1058.577-33.1,1060.407-33.539,1060.407-38.146Z" transform="translate(-816.886 82.146)"/>
          <path id="Tracé_103" data-name="Tracé 103" class="cls-2" d="M1052.576-78.551c.169,1.137.357,2.548.441,3.809.19,2.756,2.862,9.846,3.262,13.845.378,3.977,1.221,12.981,1.556,16.623.276,2.964.443,4.081.486,5.846.168,5.828-1.241,4.483-1.621-.292-.273-3.368-.421-8.186-.821-11.215-.5-3.809-1.452-11.426-1.915-14.392-.443-2.966-1.958-5.532-2.566-9.911-.19-1.3-.337-2.693-.4-3.913C1050.661-83.431,1051.988-82.507,1052.576-78.551Z" transform="translate(-819.09 82.489)"/>
          <path id="Tracé_104" data-name="Tracé 104" class="cls-2" d="M1050.007-78.785c.737,3.262,2.252,9.85,2.9,13.426.9,4.879,2.525,14.516,2.733,18.536.233,4.04.8,4.1.844,7.239.061,3.133-.5,7.4-1.389.945-.886-6.436-2.021-12.875-2.462-16.18s-2.968-14.349-3.368-18.031c-.4-3.7-.565-3.7-.839-5.785C1047.882-82.592,1049.187-82.3,1050.007-78.785Z" transform="translate(-821.845 82.808)"/>
          <path id="Tracé_105" data-name="Tracé 105" class="cls-2" d="M1055.356-38.658c-.4-2.8-.967-6.816-1.348-8.774-.61-3.115-3.345-14.9-4.248-18.3s-1.412-8.394-2.127-11.868c-.737-3.493-1.578-4.605-1.3-1.515.294,3.072.464,8.839,1.135,11.869s3.157,13.528,4.04,17.737c.907,4.187,1.978,7.784,2.527,10.96C1054.786-34.281,1055.987-33.944,1055.356-38.658Z" transform="translate(-823.953 83.416)"/>
          <path id="Tracé_106" data-name="Tracé 106" class="cls-2" d="M1052.49-36.667c-.251-2.715-.821-8.711-1.39-12.14-.714-4.546-3.007-13.444-3.807-18.389-.778-4.924-.884-7.555-1.327-10.584-.461-3.009-2.145-5.3-1.978-1.558s1.243,11.866,2.021,16.137c.8,4.252,2.862,12.646,3.431,17.023.547,4.354,1.113,7.847,1.492,9.574C1051.563-33.786,1052.764-33.888,1052.49-36.667Z" transform="translate(-826.348 83.045)"/>
          <path id="Tracé_107" data-name="Tracé 107" class="cls-2" d="M1049.223-39.253c-.421-2.419-.945-5.765-1.219-8.016-.464-3.787-2.946-16.558-3.558-20.263-.631-3.7-1.052-6.839-1.555-10.2-.525-3.346-1.978-4.693-1.621-1.284.38,3.429,1.515,11.93,1.874,14.455s2.335,12.034,2.733,15c.422,2.989,1.094,6.732,1.811,10.309C1048.655-34.5,1050.17-33.592,1049.223-39.253Z" transform="translate(-829.225 83.337)"/>
          <path id="Tracé_108" data-name="Tracé 108" class="cls-2" d="M1045.794-36.592c0-4.609-.38-6.879-.653-11.3s-.884-14.224-2.358-18.472c-1.452-4.273-1.619-6.271-2.63-10.248-1.555-6.185-2.188-4.44-1.3.147.755,3.977,2.019,8.88,2.315,12.287.335,3.915,2.378,14.751,2.609,22.684.084,3.28.043,3.219.084,4.985C1043.963-31.542,1045.794-31.983,1045.794-36.592Z" transform="translate(-832.106 83.749)"/>
          <path id="Tracé_109" data-name="Tracé 109" class="cls-2" d="M1037.968-77.018c.169,1.159.359,2.546.443,3.83.19,2.756,2.862,9.848,3.24,13.824.4,3.975,1.241,13,1.58,16.641.273,2.968.441,4.062.482,5.828.149,5.83-1.241,4.5-1.619-.274-.276-3.387-.421-8.2-.821-11.213-.506-3.809-1.472-11.423-1.915-14.392s-1.955-5.555-2.568-9.931c-.188-1.3-.337-2.695-.42-3.913C1036.055-81.9,1037.36-80.954,1037.968-77.018Z" transform="translate(-834.319 84.093)"/>
          <path id="Tracé_110" data-name="Tracé 110" class="cls-2" d="M1035.379-77.232c.755,3.242,2.252,9.85,2.9,13.426.9,4.86,2.525,14.5,2.757,18.536s.778,4.083.839,7.239c.043,3.113-.525,7.384-1.408.925-.884-6.438-2-12.875-2.46-16.178s-2.968-14.33-3.368-18.033c-.38-3.7-.547-3.7-.843-5.765C1033.275-81.059,1034.559-80.763,1035.379-77.232Z" transform="translate(-837.073 84.41)"/>
          <path id="Tracé_111" data-name="Tracé 111" class="cls-2" d="M1040.719-36.6c-.378-2.862-.947-6.988-1.325-8.984-.631-3.219-3.366-15.3-4.273-18.791-.882-3.513-1.386-8.627-2.123-12.181-.737-3.576-1.557-4.736-1.284-1.558.273,3.156.441,9.068,1.115,12.181.673,3.095,3.176,13.887,4.06,18.2.905,4.293,1.958,7.976,2.525,11.256C1040.151-32.1,1041.37-31.765,1040.719-36.6Z" transform="translate(-839.173 84.412)"/>
          <path id="Tracé_112" data-name="Tracé 112" class="cls-2" d="M1037.872-35.13c-.251-2.715-.841-8.711-1.386-12.142-.737-4.524-3.031-13.444-3.81-18.366s-.9-7.555-1.347-10.587-2.125-5.322-1.955-1.576a154.982,154.982,0,0,0,2.019,16.137c.78,4.25,2.842,12.644,3.409,17.023s1.114,7.847,1.512,9.594C1036.948-32.248,1038.125-32.334,1037.872-35.13Z" transform="translate(-841.567 84.645)"/>
          <path id="Tracé_113" data-name="Tracé 113" class="cls-2" d="M1034.587-37.717c-.4-2.4-.927-5.744-1.2-8-.463-3.807-2.945-16.58-3.576-20.283-.61-3.683-1.033-6.816-1.557-10.182-.5-3.368-1.955-4.714-1.6-1.306.358,3.432,1.492,11.952,1.852,14.477.378,2.5,2.333,12.036,2.756,15,.4,2.966,1.1,6.712,1.811,10.309C1034.04-32.94,1035.532-32.058,1034.587-37.717Z" transform="translate(-844.444 84.937)"/>
          <path id="Tracé_114" data-name="Tracé 114" class="cls-2" d="M1031.064-35.694c0-4.607-.38-6.859-.653-11.276-.3-4.442-.907-14.245-2.358-18.495s-1.621-6.271-2.63-10.248c-1.558-6.165-2.209-4.42-1.327.167.78,3.979,2.044,8.86,2.335,12.269.337,3.913,2.38,14.769,2.611,22.682.083,3.3.043,3.24.061,4.985C1029.231-30.644,1031.064-31.087,1031.064-35.694Z" transform="translate(-847.463 84.702)"/>
          <path id="Tracé_115" data-name="Tracé 115" class="cls-2" d="M1023.229-76.1c.172,1.135.339,2.544.445,3.807.167,2.756,2.839,9.868,3.238,13.845s1.243,12.981,1.558,16.623c.3,2.966.441,4.081.5,5.849.149,5.828-1.26,4.483-1.619-.294-.274-3.368-.443-8.186-.841-11.193-.486-3.832-1.453-11.448-1.895-14.414s-1.955-5.532-2.588-9.911c-.168-1.3-.317-2.693-.4-3.913C1021.316-80.983,1022.621-80.036,1023.229-76.1Z" transform="translate(-849.668 85.048)"/>
          <path id="Tracé_116" data-name="Tracé 116" class="cls-2" d="M1020.64-76.33c.757,3.26,2.251,9.846,2.9,13.422.907,4.883,2.525,14.518,2.756,18.558.212,4.019.778,4.083.843,7.218.041,3.134-.528,7.4-1.41.945-.884-6.438-2.019-12.875-2.46-16.178S1020.3-66.718,1019.9-70.4c-.38-3.705-.547-3.705-.841-5.787C1018.535-80.14,1019.819-79.844,1020.64-76.33Z" transform="translate(-852.421 85.362)"/>
          <path id="Tracé_117" data-name="Tracé 117" class="cls-2" d="M1025.981-36.205c-.38-2.8-.968-6.816-1.348-8.753-.608-3.154-3.346-14.916-4.25-18.327s-1.388-8.394-2.125-11.864c-.735-3.493-1.557-4.607-1.284-1.515.276,3.07.443,8.837,1.117,11.864s3.156,13.532,4.062,17.739c.882,4.187,1.956,7.784,2.523,10.962C1025.413-31.829,1026.634-31.494,1025.981-36.205Z" transform="translate(-854.523 85.971)"/>
          <path id="Tracé_118" data-name="Tracé 118" class="cls-2" d="M1023.133-34.214c-.251-2.715-.839-8.711-1.386-12.14-.737-4.544-3.031-13.444-3.809-18.368-.778-4.944-.906-7.576-1.347-10.6-.441-3.009-2.125-5.3-1.955-1.558a162.231,162.231,0,0,0,2,16.137c.8,4.252,2.862,12.646,3.427,17.023.57,4.354,1.117,7.847,1.517,9.572C1022.211-31.331,1023.386-31.437,1023.133-34.214Z" transform="translate(-856.915 85.6)"/>
          <path id="Tracé_119" data-name="Tracé 119" class="cls-2" d="M1019.849-36.8c-.4-2.419-.927-5.744-1.2-8-.463-3.807-2.966-16.578-3.576-20.283-.631-3.7-1.031-6.837-1.558-10.2-.526-3.346-1.957-4.693-1.6-1.284.357,3.43,1.494,11.93,1.852,14.453.378,2.527,2.335,12.036,2.756,15.024.4,2.966,1.094,6.712,1.811,10.288C1019.3-32.045,1020.794-31.159,1019.849-36.8Z" transform="translate(-859.794 85.891)"/>
          <path id="Tracé_120" data-name="Tracé 120" class="cls-2" d="M1016.427-34.139c0-4.609-.357-6.879-.649-11.3-.274-4.42-.886-14.224-2.358-18.472-1.451-4.273-1.621-6.269-2.631-10.248-1.557-6.185-2.189-4.44-1.3.147.756,3.977,2.04,8.878,2.313,12.287.337,3.915,2.4,14.751,2.609,22.684.106,3.28.041,3.219.086,4.985C1014.6-29.089,1016.427-29.532,1016.427-34.139Z" transform="translate(-862.685 86.303)"/>
          <path id="Tracé_121" data-name="Tracé 121" class="cls-2" d="M1008.6-74.546c.167,1.137.357,2.548.441,3.809.19,2.756,2.862,9.845,3.262,13.824.38,3.977,1.221,13,1.556,16.643.276,2.966.445,4.058.486,5.828.167,5.851-1.241,4.5-1.621-.274-.274-3.389-.421-8.206-.821-11.215-.5-3.809-1.452-11.425-1.894-14.392-.464-2.966-1.978-5.555-2.586-9.929-.19-1.284-.337-2.695-.4-3.915C1006.681-79.447,1008.008-78.5,1008.6-74.546Z" transform="translate(-864.89 86.648)"/>
          <path id="Tracé_122" data-name="Tracé 122" class="cls-2" d="M1006.008-74.782c.755,3.242,2.27,9.85,2.923,13.426.9,4.881,2.525,14.5,2.735,18.536.231,4.04.8,4.083.841,7.239.062,3.113-.5,7.386-1.388.945s-2.021-12.9-2.484-16.2c-.441-3.3-2.966-14.328-3.344-18.031-.4-3.681-.567-3.681-.841-5.765C1003.9-78.589,1005.206-78.316,1006.008-74.782Z" transform="translate(-867.645 86.968)"/>
          <path id="Tracé_123" data-name="Tracé 123" class="cls-2" d="M1011.353-34.153c-.357-2.862-.945-6.986-1.325-8.984-.61-3.219-3.366-15.3-4.25-18.791-.9-3.513-1.411-8.627-2.125-12.2-.737-3.554-1.578-4.693-1.3-1.535s.463,9.068,1.114,12.183c.674,3.093,3.178,13.885,4.06,18.2.906,4.313,1.978,7.974,2.525,11.256C1010.808-29.65,1012.007-29.315,1011.353-34.153Z" transform="translate(-869.752 86.971)"/>
          <path id="Tracé_124" data-name="Tracé 124" class="cls-2" d="M1008.509-32.66c-.251-2.735-.843-8.733-1.39-12.162-.714-4.522-3.007-13.444-3.807-18.366-.78-4.924-.882-7.555-1.345-10.584-.443-3.031-2.127-5.324-1.957-1.558.169,3.746,1.241,11.868,2.019,16.117s2.862,12.667,3.409,17.023c.569,4.375,1.135,7.847,1.515,9.572C1007.6-29.8,1008.762-29.881,1008.509-32.66Z" transform="translate(-872.146 87.202)"/>
          <path id="Tracé_125" data-name="Tracé 125" class="cls-2" d="M1005.369-34.787c-.4-2.419-.924-5.765-1.219-7.994-.464-3.832-2.945-16.6-3.558-20.283-.631-3.7-1.029-6.839-1.555-10.207s-1.978-4.689-1.6-1.282c.357,3.409,1.492,11.93,1.851,14.455s2.335,12.036,2.756,15c.4,2.966,1.072,6.732,1.809,10.311C1004.8-30.031,1006.316-29.126,1005.369-34.787Z" transform="translate(-874.877 87.982)"/>
          <path id="Tracé_126" data-name="Tracé 126" class="cls-2" d="M1001.66-32.972c0-4.607-.38-6.859-.653-11.3-.274-4.42-.906-14.222-2.356-18.472s-1.621-6.271-2.632-10.248c-1.557-6.165-2.188-4.42-1.3.149.758,4,2.021,8.878,2.315,12.287.337,3.913,2.378,14.769,2.611,22.68.084,3.283.041,3.242.084,4.987C999.826-27.922,1001.66-28.365,1001.66-32.972Z" transform="translate(-878.067 87.535)"/>
          <path id="Tracé_127" data-name="Tracé 127" class="cls-2" d="M993.834-73.374c.169,1.135.357,2.544.443,3.807.19,2.758,2.86,9.848,3.24,13.845.4,3.956,1.241,12.981,1.578,16.623.274,2.966.441,4.081.484,5.848.167,5.828-1.241,4.483-1.621-.294-.273-3.368-.418-8.186-.821-11.215-.5-3.809-1.472-11.426-1.915-14.392s-1.956-5.555-2.566-9.909c-.19-1.306-.337-2.693-.421-3.936C991.919-78.257,993.244-77.33,993.834-73.374Z" transform="translate(-880.279 87.876)"/>
          <path id="Tracé_128" data-name="Tracé 128" class="cls-2" d="M991.237-73.609c.757,3.24,2.251,9.846,2.925,13.422.884,4.883,2.5,14.518,2.734,18.538.233,4.04.78,4.1.843,7.239s-.5,7.386-1.409.947c-.884-6.441-2-12.877-2.464-16.18-.441-3.325-2.966-14.351-3.365-18.031-.38-3.705-.547-3.705-.821-5.787C989.134-77.419,990.418-77.123,991.237-73.609Z" transform="translate(-883.026 88.196)"/>
          <path id="Tracé_129" data-name="Tracé 129" class="cls-2" d="M996.584-33.5c-.378-2.778-.945-6.818-1.325-8.753-.61-3.133-3.366-14.9-4.271-18.3-.884-3.43-1.39-8.4-2.127-11.889-.714-3.47-1.555-4.587-1.282-1.515.273,3.093.443,8.857,1.115,11.887s3.156,13.532,4.063,17.717c.9,4.207,1.955,7.786,2.525,10.985C996.018-29.1,997.237-28.769,996.584-33.5Z" transform="translate(-885.133 88.801)"/>
          <path id="Tracé_130" data-name="Tracé 130" class="cls-2" d="M993.74-31.488c-.251-2.737-.841-8.71-1.388-12.162-.737-4.522-3.029-13.424-3.807-18.368-.78-4.922-.906-7.553-1.347-10.582-.441-3.009-2.127-5.324-1.958-1.558.169,3.746,1.243,11.866,2.021,16.119S990.12-45.373,990.668-41c.569,4.354,1.114,7.827,1.514,9.572C992.815-28.605,993.992-28.711,993.74-31.488Z" transform="translate(-887.527 88.428)"/>
          <path id="Tracé_131" data-name="Tracé 131" class="cls-2" d="M990.452-34.079c-.4-2.419-.925-5.765-1.2-8.014-.463-3.789-2.946-16.582-3.576-20.265-.613-3.7-1.033-6.837-1.557-10.2-.5-3.346-1.958-4.693-1.6-1.284s1.492,11.932,1.872,14.453c.357,2.525,2.313,12.036,2.734,15s1.094,6.732,1.811,10.309C989.9-29.322,991.422-28.438,990.452-34.079Z" transform="translate(-890.404 88.725)"/>
          <path id="Tracé_132" data-name="Tracé 132" class="cls-2" d="M987.032-31.417c0-4.628-.357-6.879-.631-11.3-.3-4.42-.9-14.222-2.358-18.472-1.452-4.273-1.619-6.292-2.629-10.268-1.578-6.165-2.209-4.42-1.325.167.778,3.977,2.039,8.86,2.336,12.267.335,3.936,2.378,14.771,2.609,22.7.083,3.28.02,3.219.063,4.985C985.223-26.366,987.032-26.809,987.032-31.417Z" transform="translate(-893.297 89.135)"/>
          <path id="Tracé_133" data-name="Tracé 133" class="cls-2" d="M979.2-71.843c.19,1.155.357,2.544.443,3.805.188,2.778,2.862,9.868,3.26,13.847.38,3.977,1.223,12.981,1.557,16.643.274,2.966.443,4.058.5,5.828.149,5.828-1.261,4.5-1.639-.274-.253-3.387-.422-8.206-.82-11.215-.506-3.809-1.451-11.425-1.894-14.414-.462-2.966-1.978-5.532-2.587-9.907-.19-1.306-.339-2.695-.4-3.915C977.305-76.726,978.61-75.779,979.2-71.843Z" transform="translate(-895.5 89.481)"/>
          <path id="Tracé_134" data-name="Tracé 134" class="cls-2" d="M976.629-72.074c.737,3.26,2.252,9.868,2.9,13.422.9,4.883,2.525,14.52,2.758,18.56.208,4.04.778,4.081.839,7.214.043,3.136-.525,7.408-1.408.949-.884-6.44-2.019-12.879-2.462-16.182s-2.966-14.328-3.366-18.031-.568-3.7-.843-5.765C974.525-75.884,975.809-75.59,976.629-72.074Z" transform="translate(-898.253 89.797)"/>
          <path id="Tracé_135" data-name="Tracé 135" class="cls-2" d="M981.98-31.428c-.378-2.862-.968-6.986-1.345-8.986-.613-3.217-3.346-15.3-4.252-18.809-.9-3.491-1.408-8.606-2.123-12.183-.737-3.556-1.58-4.711-1.306-1.537.3,3.158.463,9.07,1.137,12.185.674,3.093,3.156,13.885,4.06,18.178.884,4.313,1.958,7.994,2.5,11.279C981.412-26.927,982.631-26.59,981.98-31.428Z" transform="translate(-900.364 89.8)"/>
          <path id="Tracé_136" data-name="Tracé 136" class="cls-2" d="M979.126-29.958c-.253-2.713-.843-8.711-1.388-12.14-.737-4.544-3.031-13.444-3.809-18.368-.8-4.944-.9-7.576-1.347-10.582-.441-3.031-2.146-5.324-1.956-1.578a162.376,162.376,0,0,0,2,16.139c.8,4.248,2.864,12.644,3.432,17.021.547,4.375,1.115,7.849,1.515,9.572C978.2-27.074,979.377-27.16,979.126-29.958Z" transform="translate(-902.748 90.033)"/>
          <path id="Tracé_137" data-name="Tracé 137" class="cls-2" d="M975.841-32.543c-.4-2.419-.927-5.742-1.221-7.994-.463-3.809-2.946-16.582-3.556-20.283-.631-3.683-1.051-6.839-1.558-10.184-.525-3.368-1.978-4.714-1.6-1.3.358,3.427,1.492,11.95,1.852,14.455.357,2.523,2.335,12.054,2.735,15.022.421,2.966,1.094,6.71,1.831,10.309C975.271-27.787,976.788-26.882,975.841-32.543Z" transform="translate(-905.628 90.325)"/>
          <path id="Tracé_138" data-name="Tracé 138" class="cls-2" d="M972.293-30.519c0-4.607-.357-6.859-.653-11.279-.274-4.438-.882-14.243-2.336-18.495-1.472-4.248-1.641-6.269-2.629-10.246-1.578-6.165-2.209-4.418-1.327.149.759,3.975,2.041,8.878,2.315,12.287.339,3.911,2.4,14.769,2.609,22.68.106,3.285.043,3.242.083,4.989C970.462-25.471,972.293-25.912,972.293-30.519Z" transform="translate(-908.646 90.089)"/>
          <path id="Tracé_139" data-name="Tracé 139" class="cls-2" d="M964.464-70.922c.167,1.135.357,2.546.441,3.807.19,2.758,2.862,9.87,3.26,13.822.38,3.979,1.223,13.006,1.557,16.645.273,2.966.443,4.083.486,5.849.168,5.828-1.243,4.481-1.621-.294-.274-3.366-.422-8.186-.821-11.215-.506-3.807-1.452-11.426-1.915-14.392-.443-2.968-1.958-5.555-2.566-9.909-.19-1.306-.337-2.695-.4-3.915C962.549-75.8,963.873-74.878,964.464-70.922Z" transform="translate(-910.851 90.432)"/>
          <path id="Tracé_140" data-name="Tracé 140" class="cls-2" d="M961.871-71.156c.759,3.24,2.274,9.846,2.927,13.422.882,4.883,2.523,14.52,2.733,18.538.233,4.04.8,4.1.843,7.237.062,3.136-.506,7.386-1.39.949s-2.019-12.879-2.46-16.182c-.464-3.3-2.968-14.349-3.368-18.052-.4-3.683-.57-3.683-.841-5.765C959.768-74.965,961.073-74.671,961.871-71.156Z" transform="translate(-913.605 90.75)"/>
          <path id="Tracé_141" data-name="Tracé 141" class="cls-2" d="M965.263-30.731c-.251-2.8-.631-6.839-.9-8.794-.464-3.158-2.629-15.045-3.366-18.517-.714-3.452-.968-8.457-1.535-11.95-.547-3.515-1.348-4.673-1.223-1.578s.023,8.857.547,11.909,2.5,13.675,3.178,17.9c.694,4.252,1.578,7.871,2,11.089C964.485-26.377,965.684-25.977,965.263-30.731Z" transform="translate(-915.65 91.291)"/>
          <path id="Tracé_142" data-name="Tracé 142" class="cls-2" d="M963.44-28.859c-.212-2.715-.7-8.733-1.2-12.162-.63-4.544-2.8-13.487-3.493-18.434s-.779-7.571-1.177-10.6-2.041-5.365-1.935-1.6c.1,3.748,1.051,11.889,1.745,16.159.714,4.273,2.652,12.71,3.134,17.064.506,4.4,1.011,7.872,1.37,9.617C962.471-26,963.649-26.083,963.44-28.859Z" transform="translate(-918.349 91.04)"/>
          <path id="Tracé_143" data-name="Tracé 143" class="cls-2" d="M959.842-31.408c-.294-2.439-.694-5.806-.864-8.057-.314-3.809-2.27-16.684-2.733-20.389-.464-3.744-.759-6.879-1.135-10.268-.38-3.364-1.77-4.775-1.537-1.345.208,3.429,1.008,11.973,1.262,14.518.253,2.523,1.831,12.12,2.1,15.106.294,2.989.821,6.755,1.388,10.374C959.085-26.674,960.559-25.725,959.842-31.408Z" transform="translate(-920.517 91.209)"/>
          <path id="Tracé_144" data-name="Tracé 144" class="cls-2" d="M955.857-29.512c.273-4.609.043-6.879.02-11.3-.02-4.44-.061-14.265-1.261-18.6s-1.241-6.353-2.021-10.393c-1.2-6.251-1.935-4.546-1.325.084.524,4.019,1.515,8.984,1.6,12.393.106,3.934,1.517,14.875,1.262,22.808-.1,3.28-.145,3.219-.208,4.965C953.732-24.59,955.583-24.9,955.857-29.512Z" transform="translate(-923.117 90.766)"/>
          <path id="Tracé_145" data-name="Tracé 145" class="cls-2" d="M950.468-70.325c.1,1.157.21,2.566.21,3.83.043,2.776,2.274,10.017,2.442,13.991.147,4,.464,13.046.588,16.707.084,2.989.19,4.1.127,5.871-.167,5.828-1.492,4.4-1.6-.4-.063-3.366.063-8.184-.149-11.234-.292-3.832-.8-11.489-1.051-14.477-.274-2.989-1.641-5.661-2-10.058-.1-1.3-.167-2.715-.167-3.934C948.848-75.31,950.111-74.3,950.468-70.325Z" transform="translate(-925.388 90.991)"/>
          <path id="Tracé_146" data-name="Tracé 146" class="cls-2" d="M947.854-70.7c.57,3.3,1.684,9.97,2.125,13.569.612,4.924,1.663,14.643,1.663,18.683-.022,4.04.525,4.126.4,7.259s-.945,7.345-1.449.864-1.263-12.983-1.5-16.306c-.273-3.325-2.123-14.475-2.312-18.2-.169-3.705-.337-3.723-.486-5.808C945.983-74.642,947.266-74.262,947.854-70.7Z" transform="translate(-928.118 91.141)"/>
          <path id="Tracé_147" data-name="Tracé 147" class="cls-2" d="M949.1-29.435c-.063-2.884-.19-7.051-.357-9.07-.276-3.283-1.7-15.569-2.211-19.146-.527-3.576-.461-8.733-.819-12.35-.339-3.619-1.055-4.84-1.117-1.684-.063,3.176-.527,9.088-.19,12.246s1.664,14.136,2.084,18.515c.441,4.377,1.094,8.163,1.3,11.466C948.067-25.017,949.247-24.556,949.1-29.435Z" transform="translate(-930.162 91.153)"/>
          <path id="Tracé_148" data-name="Tracé 148" class="cls-2" d="M945.874-27.55c.061-2.776.127-8.9-.063-12.414-.233-4.671-1.558-13.908-1.811-18.958-.231-5.069-.061-7.743-.19-10.836-.125-3.115-1.535-5.618-1.766-1.809a162.861,162.861,0,0,0,.253,16.517c.335,4.375,1.472,13.087,1.557,17.546.1,4.485.274,8.039.482,9.85C944.653-24.753,945.831-24.708,945.874-27.55Z" transform="translate(-932.617 91.16)"/>
          <path id="Tracé_149" data-name="Tracé 149" class="cls-2" d="M942.551-29.748c-.106-2.525-.208-6.018-.19-8.353.022-3.956-.821-17.358-.968-21.23-.147-3.85-.147-7.133-.231-10.648-.084-3.491-1.368-5.069-1.431-1.515-.083,3.536-.043,12.416,0,15.047s.778,12.622.821,15.716c.021,3.093.21,7.026.484,10.793C941.394-24.928,942.761-23.836,942.551-29.748Z" transform="translate(-934.955 91.149)"/>
          <path id="Tracé_150" data-name="Tracé 150" class="cls-2" d="M939.766-29.763c-.061-2.525-.106-6.018-.061-8.333.084-3.954-.547-17.337-.633-21.187-.084-3.87-.043-7.133-.084-10.625s-1.261-5.091-1.41-1.537c-.124,3.515-.21,12.373-.21,14.982,0,2.629.59,12.624.568,15.694-.018,3.095.127,7.028.317,10.774C938.525-25.008,939.892-23.873,939.766-29.763Z" transform="translate(-937.367 91.207)"/>
        </g>
        <path id="Tracé_151" data-name="Tracé 151" class="cls-3" d="M1036.039-58.787c-8.354-.1-16.917-.737-25.27-1.284q-19-1.262-38-2.84c-17.043-1.411-34.191-2.86-51.171-4.838C906.157-69.559,890.544-70.78,875.061-72Q845.3-74.364,815.41-76.334l-.778-.063a10.647,10.647,0,0,1,.945-1.849s75.537,5.005,106.235,8.582,97.69,8.733,114.269,8.964c17.1.233,34.906.233,52.012,0,16.58-.231,83.572-5.387,114.27-8.964,30.678-3.576,106.212-8.582,106.212-8.582a9.507,9.507,0,0,1,.968,1.849l-.78.063q-29.889,1.987-59.649,4.334c-15.486,1.221-31.117,2.441-46.541,4.252-16.98,1.978-34.125,3.427-51.189,4.838q-18.972,1.546-38,2.84c-8.333.547-16.919,1.18-25.27,1.284C1070.946-58.556,1053.229-58.556,1036.039-58.787Z" transform="translate(-777.699 97.501)"/>
        <path id="Tracé_152" data-name="Tracé 152" class="cls-5" d="M922.013-66.446s-4.628,1.474-5.679,3.325-3.407,5.534-2.378,8.774c1.033,3.26,4.67,6.859,7.849,7.345s8.584-1.643,10.182-3.748c1.621-2.08,2.632-9.886-.4-12.371S924.644-67.413,922.013-66.446Z" transform="translate(-674.532 109.515)"/>
        <path id="Tracé_153" data-name="Tracé 153" class="cls-6" d="M922.91-65.848A8.29,8.29,0,0,1,931.2-57.56a8.277,8.277,0,0,1-8.288,8.29,8.293,8.293,0,0,1-8.29-8.29A8.306,8.306,0,0,1,922.91-65.848Z" transform="translate(-673.575 110.413)"/>
        <circle id="Ellipse_1" data-name="Ellipse 1" class="cls-7" cx="4.145" cy="4.145" r="4.145" transform="translate(245.19 48.708)"/>
        <path id="Tracé_154" data-name="Tracé 154" class="cls-5" d="M959.814-66.446s4.632,1.474,5.683,3.325c1.029,1.854,3.407,5.534,2.376,8.774-1.031,3.26-4.671,6.859-7.847,7.345s-8.586-1.643-10.2-3.748c-1.6-2.08-2.629-9.886.421-12.371C953.271-65.6,957.185-67.413,959.814-66.446Z" transform="translate(-638.522 109.515)"/>
        <path id="Tracé_155" data-name="Tracé 155" class="cls-6" d="M957.23-65.848a8.287,8.287,0,0,0-8.267,8.288,8.274,8.274,0,0,0,8.267,8.29,8.3,8.3,0,0,0,8.311-8.29A8.309,8.309,0,0,0,957.23-65.848Z" transform="translate(-637.811 110.413)"/>
        <path id="Tracé_156" data-name="Tracé 156" class="cls-8" d="M955.116-63.819a4.151,4.151,0,0,0-4.123,4.146,4.135,4.135,0,0,0,4.123,4.146,4.161,4.161,0,0,0,4.169-4.146A4.176,4.176,0,0,0,955.116-63.819Z" transform="translate(-635.697 112.526)"/>
        <path id="Tracé_157" data-name="Tracé 157" class="cls-3" d="M1015.137-38.968c-18.3-1.051-36.716-2.188-55-3.807q-22.059-1.96-44.1-4.04c-19.65-1.811-39.386-3.832-59.038-5.367-14.349-1.137-28.72-2.609-43.049-4.019l-.1-.02-1.368-.21c.547-.59,1.094-1.2,1.682-1.831,0,0,31.56,3.136,42.985,4.04,11.426.884,72.926,6.712,103.183,9.4,72.989,6.481,135.016,6.481,208.005,0,30.235-2.693,91.735-8.521,103.16-9.4,11.424-.9,43.008-4.04,43.008-4.04.566.631,1.135,1.241,1.662,1.831l-1.37.21-.1.02c-14.306,1.411-28.7,2.882-43.026,4.019-19.675,1.535-39.39,3.556-59.042,5.367q-22.059,2.049-44.12,4.04c-18.264,1.619-36.673,2.756-54.978,3.807A791.854,791.854,0,0,1,1015.137-38.968Z" transform="translate(-779.942 118.312)"/>
        <path id="Tracé_158" data-name="Tracé 158" class="cls-3" d="M998.361-45.148C936.5-49.821,876.369-58.972,813.985-62.11a6.733,6.733,0,0,1-.631-1.976l.714.063C875.8-60.93,936.922-51.713,998.508-47.065c12.079.906,24.406,1.221,36.526,1.6,19.315.592,37.451.592,56.746,0,12.117-.378,24.449-.692,36.547-1.6,61.586-4.648,122.706-13.865,184.419-16.958l.737-.063a6.78,6.78,0,0,1-.631,1.976c-62.384,3.138-122.539,12.289-184.375,16.962A901.657,901.657,0,0,1,998.361-45.148Z" transform="translate(-779.029 112.248)"/>
        <path id="Tracé_159" data-name="Tracé 159" class="cls-9" d="M916.932,88.707a96.733,96.733,0,0,1-5.471-14.918c-1.686-6.945-2.568-17.927-.884-25.544A276.847,276.847,0,0,0,917.29.293c1.112-22.849-1.368-27.583,1.451-39.66,1.745-7.533,4.02-14.749,5.2-22.324,2.354-1.115,6.667-.714,8.437,1.641,1.388,13.044.018,28.214-1.411,41.093-.906,8.057-2.695,57.567-4.944,73.916-2.231,16.368-3.64,27.391-3.852,32.778C921.77,97.522,919.392,94.262,916.932,88.707Z" transform="translate(-678.726 114.123)"/>
        <path id="Tracé_160" data-name="Tracé 160" class="cls-10" d="M915.752,18.918a109.89,109.89,0,0,1-4.946-12.983l.337-.106A19.329,19.329,0,0,1,922.211,5.3c-.694,5.659-1.117,9.888-1.223,12.644C920.59,27.733,918.212,24.473,915.752,18.918Z" transform="translate(-677.546 183.912)"/>
        <path id="Tracé_161" data-name="Tracé 161" class="cls-9" d="M964.841-39.366c-1.748-7.533-4.02-14.749-5.2-22.324-2.378-1.115-6.671-.714-8.437,1.641-1.39,13.044-.022,28.214,1.408,41.093,1.2,10.772,1.788,20.344,3.452,31.306.588,3.766,1.282,8,2.019,11.489,1.978,9.237,5.7,10.731,6.9.251.486-4.458.843-19.65.969-26.993C966.166-14.349,967.28-28.888,964.841-39.366Z" transform="translate(-636.078 114.123)"/>
        <path id="Tracé_162" data-name="Tracé 162" class="cls-10" d="M953.353-25.03c.547,3.576,1.2,7.492,1.894,10.752,1.978,9.237,5.7,10.731,6.9.251.233-2.039.423-6.332.57-11.107A18.6,18.6,0,0,0,953.353-25.03Z" transform="translate(-633.239 152.24)"/>
        <path id="Tracé_163" data-name="Tracé 163" class="cls-5" d="M962.479-21.111c1.072.359,1.241.757,1.386,1.958.171,1.345-.335,11.383-.231,14.9.106,3.536-1.452,5.281-3.87,5.6-2.4.337-6.545-.38-6.545-4.083s-.061-14.014-.061-15.465c0-1.935.337-2.65,2.062-3.136A11.393,11.393,0,0,1,962.479-21.111Z" transform="translate(-633.442 156.254)"/>
        <path id="Tracé_164" data-name="Tracé 164" class="cls-5" d="M912.878,9.3c-1.072.357-1.219.737-1.386,1.956-.149,1.347.335,11.364.231,14.9s1.452,5.261,3.871,5.6c2.4.335,6.542-.4,6.542-4.083,0-3.7.063-14.014.063-15.463,0-1.937-.337-2.654-2.062-3.136A11.392,11.392,0,0,0,912.878,9.3Z" transform="translate(-676.862 187.928)"/>
      </g>
    </g>
    <g id="Groupe_35" data-name="Groupe 35" transform="translate(608.427 913.661)">
      <g id="Composant_2_8" data-name="Composant 2 – 8">
        <path id="Tracé_187" data-name="Tracé 187" class="cls-11" d="M2306.144,4.373l-3.482,0,0-2.728,9.23,0V4.376l-3.519,0-.005,15.123h-2.23Z" transform="translate(-2302.662 -1.644)"/>
        <path id="Tracé_188" data-name="Tracé 188" class="cls-11" d="M2411.032,11.619l-4.606,0v5.244l5.15,0v2.675l-7.381,0,.006-17.851,7.11,0,0,2.675-4.878,0,0,4.608,4.606,0Z" transform="translate(-2393.536 -1.679)"/>
        <path id="Tracé_189" data-name="Tracé 189" class="cls-11" d="M2491.811,19.571l-1.306-3.55c-.524-1.377-.869-2.331-1.232-3.364h-.035c-.291,1.033-.617,1.986-1.108,3.363l-1.215,3.548h-2.558l3.631-9.03-3.5-8.821h2.574l1.323,3.682c.4,1.112.689,1.987.995,2.993h.056c.326-1.112.581-1.907.961-2.992l1.308-3.681h2.556l-3.575,8.712,3.714,9.139Z" transform="translate(-2465.284 -1.708)"/>
        <path id="Tracé_190" data-name="Tracé 190" class="cls-11" d="M2589.645,4.487l-3.482,0V1.757l9.231,0V4.489l-3.518,0-.006,15.123h-2.23Z" transform="translate(-2556.404 -1.744)"/>
        <path id="Tracé_191" data-name="Tracé 191" class="cls-11" d="M2694.534,11.732l-4.607,0v5.244l5.151,0,0,2.675-7.38,0L2687.7,1.8l7.108,0V4.475l-4.878,0,0,4.608,4.607,0Z" transform="translate(-2647.278 -1.779)"/>
      </g>
      <g id="Groupe_27" data-name="Groupe 27" transform="translate(417.778 14.513)">
        <g id="Groupe_19" data-name="Groupe 19">
          <path id="Tracé_192" data-name="Tracé 192" class="cls-11" d="M4286.086,1414.669a13.312,13.312,0,0,0,1.3-5.771c0-6.715-4.859-12.179-10.83-12.179s-10.831,5.464-10.831,12.179,4.859,12.179,10.831,12.179a10.44,10.44,0,0,0,8.522-4.678Zm-9.491,3.342c-4.563,0-8.263-4.151-8.263-9.271s3.7-9.271,8.263-9.271,8.261,4.151,8.261,9.271S4281.156,1418.011,4276.595,1418.011Z" transform="translate(-4262.822 -1393.809)"/>
          <path id="Tracé_193" data-name="Tracé 193" class="cls-11" d="M4248.856,1367.38c0-8.293-6.118-15.016-13.666-15.016s-13.665,6.723-13.665,15.016,6.116,15.016,13.665,15.016c.407,0,.807-.023,1.2-.061l0,0-8.6,14.663h3.124l.642-1.1a1.907,1.907,0,0,1,.981-3.541,1.888,1.888,0,0,1,.94.249l9.085-15.571a10.532,10.532,0,0,1-7.309,3.027c-6.207,0-11.258-5.655-11.258-12.607s5.051-12.608,11.258-12.608,11.26,5.655,11.26,12.608a13.747,13.747,0,0,1-1.331,5.94l0,0-.021.034c-.3.616-1.252,2.141-1.252,2.141l-10.1,17.276a1.906,1.906,0,0,1-1.885,3.222l-.545.933h2.969l11.8-20.651a15.378,15.378,0,0,0,1.15-2.007l.015-.03,0,0A16.15,16.15,0,0,0,4248.856,1367.38Z" transform="translate(-4221.525 -1352.364)"/>
        </g>
        <g id="Groupe_20" data-name="Groupe 20" transform="translate(9.291 40.176)">
          <path id="Tracé_194" data-name="Tracé 194" class="cls-11" d="M4397.031,1984.6c-.053,0-.1,0-.154.007s-.1.011-.154.02v.864c.051.009.1.016.154.02s.1.007.154.007c.2,0,.306-.11.306-.328v-.261C4397.336,1984.707,4397.234,1984.6,4397.031,1984.6Z" transform="translate(-4394.518 -1983.292)"/>
          <path id="Tracé_195" data-name="Tracé 195" class="cls-11" d="M4364.841,1964.692a1.722,1.722,0,1,0,1.722,1.721A1.721,1.721,0,0,0,4364.841,1964.692Zm-.7,2.484a1.894,1.894,0,0,1-.626-.086l.078-.252a2.055,2.055,0,0,0,.243.051c.091.012.19.021.3.026.273,0,.415-.088.415-.262,0-.132-.113-.219-.339-.261-.44-.043-.662-.219-.662-.525,0-.348.247-.524.739-.524a1.343,1.343,0,0,1,.493.08l-.07.242a1.351,1.351,0,0,0-.423-.06q-.432,0-.432.262c0,.131.118.219.354.262.432.044.646.219.646.524Q4364.858,1967.177,4364.137,1967.176Zm1.5,0a1.2,1.2,0,0,1-.308-.039v.563l-.308.065V1965.8a1.848,1.848,0,0,1,.615-.066q.615,0,.616.589v.262Q4366.248,1967.176,4365.632,1967.176Z" transform="translate(-4363.119 -1964.692)"/>
        </g>
      </g>
    </g>
    <g id="Groupe_45" data-name="Groupe 45" transform="translate(988.905 989.757)">
      <path id="Tracé_423" data-name="Tracé 423" class="cls-11" d="M34.449,29.725c-4.986,2.11-12.8,4.532-16.073-.711-1.811-2.9-.659-7.427,2.012-11.534A60.513,60.513,0,0,1,26.5,10c-1.231,1.986-4.655,8.588-.152,11.877,1.73,1.271,4.818,1.4,8.663.407L80.727,10.2Z" transform="translate(-17.499 -9.999)"/>
    </g>
    <g id="Composant_3_23" data-name="Composant 3 – 23" transform="translate(615.674 953.521)">
      <path id="Tracé_165" data-name="Tracé 165" class="cls-11" d="M367.526,59.129c-1.575-.969-12.251-1.805-16.825-1.805s-15.25.836-16.826,1.805a3.343,3.343,0,0,0-1.952,3.454V87.077a16.234,16.234,0,0,0,.509,3.06c.759,2.279,4.638,7.074,10.329,11.468,5.715,4.411,6.977,4.77,7.941,4.77s2.225-.359,7.94-4.77c5.691-4.394,9.569-9.188,10.329-11.468a16.325,16.325,0,0,0,.508-3.06V62.583A3.342,3.342,0,0,0,367.526,59.129Z" transform="translate(-331.922 -57.324)"/>
      <g id="Groupe_12" data-name="Groupe 12" transform="translate(0.739 9.288)">
        <path id="Tracé_166" data-name="Tracé 166" class="cls-12" d="M406.684,129.711v8.74a15.087,15.087,0,0,1,4.508,1.735v-9.807A24.554,24.554,0,0,0,406.684,129.711Z" transform="translate(-391.652 -123.73)"/>
        <path id="Tracé_167" data-name="Tracé 167" class="cls-13" d="M430.765,101.357a61,61,0,0,0-8.805.311,13.546,13.546,0,0,1,4,1.318l-1.007,3.444c.39-.047,1.436-.092,1.82-.125q1.388-.121,2.833-.122,5.665,0,5.666,6.033v4.827q0,6.033-5.666,6.032c-.676,0-1.339-.027-2-.066a9.75,9.75,0,0,1,.369,2.719,11.852,11.852,0,0,1-.167,1.974,22.378,22.378,0,0,0,2.952.2q5.371,0,8.194-2.441a5.814,5.814,0,0,0,.356-.816,15.779,15.779,0,0,0,.471-2.826V104.63Q436.98,101.36,430.765,101.357Z" transform="translate(-403.706 -101.355)"/>
        <path id="Tracé_168" data-name="Tracé 168" class="cls-12" d="M404.621,257.233c2.119,1.43,2.9,1.648,3.444,1.648a4.45,4.45,0,0,0,2.222-.866v-6.479a11.982,11.982,0,0,1-5.666,2.392Z" transform="translate(-390.024 -219.857)"/>
        <path id="Tracé_169" data-name="Tracé 169" class="cls-14" d="M353.919,119.258a15.086,15.086,0,0,0-4.508-1.735,27.162,27.162,0,0,0-3.352-.546q-6.516-1.206-6.514-4.827,0-4.826,7.931-4.826c.664,0,1.307.022,1.935.059a24.567,24.567,0,0,1,4.508.667c.461.115,1.052.294,1.486.437l.322-1.1.981-3.362a21.5,21.5,0,0,0-4.772-1.227,31.814,31.814,0,0,0-4.461-.3q-9.017,0-12.052,4.246v10.51q2.792,3.785,10.635,4.549a14.33,14.33,0,0,1,3.352,1.012q2.878,1.34,2.881,3.814a4.121,4.121,0,0,1-2.881,4.1,13.105,13.105,0,0,1-4.769.724q-2.634-.1-4.822-.377a51.018,51.018,0,0,0,5.649,5.192,25.832,25.832,0,0,0,3.941-.377,11.983,11.983,0,0,0,5.666-2.392,7.846,7.846,0,0,0,2.714-4.9,11.836,11.836,0,0,0,.167-1.974,9.755,9.755,0,0,0-.369-2.719A7.926,7.926,0,0,0,353.919,119.258Z" transform="translate(-335.423 -102.257)"/>
      </g>
      <g id="Groupe_13" data-name="Groupe 13" transform="translate(12.866 2.24)">
        <path id="Tracé_170" data-name="Tracé 170" class="cls-14" d="M394.233,69.168a.179.179,0,0,1-.042.056.1.1,0,0,1-.058.02.147.147,0,0,1-.077-.019q-.042-.022-.1-.047a.932.932,0,0,0-.127-.045.492.492,0,0,0-.164-.014.359.359,0,0,0-.241.089.245.245,0,0,0-.07.2.18.18,0,0,0,.053.123.393.393,0,0,0,.124.078,1.105,1.105,0,0,0,.171.054c.063.015.128.032.2.05a1.7,1.7,0,0,1,.2.068.666.666,0,0,1,.174.1.528.528,0,0,1,.129.162.594.594,0,0,1,.061.241.787.787,0,0,1-.035.3.7.7,0,0,1-.142.248.725.725,0,0,1-.243.177.94.94,0,0,1-.338.081,1.1,1.1,0,0,1-.218-.008,1.266,1.266,0,0,1-.212-.048,1.138,1.138,0,0,1-.195-.083.835.835,0,0,1-.163-.113l.125-.233a.144.144,0,0,1,.043-.045.117.117,0,0,1,.059-.02.162.162,0,0,1,.092.026l.114.062a.885.885,0,0,0,.147.06.543.543,0,0,0,.2.019.39.39,0,0,0,.251-.092.278.278,0,0,0,.076-.232.212.212,0,0,0-.054-.138.361.361,0,0,0-.123-.082.921.921,0,0,0-.17-.052c-.063-.013-.128-.028-.195-.045a1.577,1.577,0,0,1-.2-.063.592.592,0,0,1-.173-.106.552.552,0,0,1-.129-.172.69.69,0,0,1-.062-.264.636.636,0,0,1,.169-.474.748.748,0,0,1,.231-.166.885.885,0,0,1,.324-.078,1.11,1.11,0,0,1,.387.039.859.859,0,0,1,.309.158Z" transform="translate(-392.914 -68.57)"/>
        <path id="Tracé_171" data-name="Tracé 171" class="cls-14" d="M405.091,68.467l-.67.028.081,1.911-.475.02-.081-1.911-.67.028-.016-.383,1.816-.077Z" transform="translate(-401.077 -68.055)"/>
        <path id="Tracé_172" data-name="Tracé 172" class="cls-14" d="M415.956,70.228l-.369,0a.162.162,0,0,1-.1-.028.178.178,0,0,1-.059-.074l-.159-.437-.914.009-.151.44a.181.181,0,0,1-.054.073.152.152,0,0,1-.1.034l-.372,0,.874-2.3.486,0Zm-.806-.864-.255-.7c-.015-.037-.031-.08-.048-.129s-.033-.1-.048-.161q-.021.089-.045.164c-.016.05-.031.094-.046.131l-.24.7Z" transform="translate(-409.298 -67.941)"/>
        <path id="Tracé_173" data-name="Tracé 173" class="cls-14" d="M429.639,69.222a1.234,1.234,0,0,1-.1.459,1.054,1.054,0,0,1-.252.354,1.083,1.083,0,0,1-.379.223,1.3,1.3,0,0,1-.484.068l-.882-.032L427.624,68l.882.032a1.3,1.3,0,0,1,.478.1,1.087,1.087,0,0,1,.362.251,1.063,1.063,0,0,1,.225.372A1.217,1.217,0,0,1,429.639,69.222Zm-.487-.018a1.042,1.042,0,0,0-.036-.326.683.683,0,0,0-.127-.248.591.591,0,0,0-.21-.161.73.73,0,0,0-.286-.064l-.405-.015-.057,1.551.4.015a.746.746,0,0,0,.29-.042.582.582,0,0,0,.222-.146.694.694,0,0,0,.145-.239A1.055,1.055,0,0,0,429.152,69.2Z" transform="translate(-420.236 -67.988)"/>
        <path id="Tracé_174" data-name="Tracé 174" class="cls-14" d="M441.977,69.011l-.037.589.764.048-.022.359-.764-.048-.038.6.982.061-.023.371L441.38,70.9l.143-2.291,1.459.091-.023.371Z" transform="translate(-431.157 -68.469)"/>
      </g>
      <g id="Groupe_14" data-name="Groupe 14" transform="translate(4.565 5.385)">
        <path id="Tracé_175" data-name="Tracé 175" class="cls-14" d="M354.327,87.96a1.334,1.334,0,0,1,.411-.015.775.775,0,0,1,.3.1.607.607,0,0,1,.2.2.808.808,0,0,1,.1.282.836.836,0,0,1,0,.315.632.632,0,0,1-.124.267.776.776,0,0,1-.252.2,1.283,1.283,0,0,1-.385.124l-.3.051.134.778-.468.081-.391-2.262Zm.195,1.126a.435.435,0,0,0,.3-.162.407.407,0,0,0,.052-.308.449.449,0,0,0-.052-.149.31.31,0,0,0-.1-.1.356.356,0,0,0-.145-.053.607.607,0,0,0-.193.006l-.3.051.133.77Z" transform="translate(-353.563 -86.863)"/>
        <path id="Tracé_176" data-name="Tracé 176" class="cls-14" d="M367.357,87.145a1.27,1.27,0,0,1-.03.473,1.094,1.094,0,0,1-.194.4,1.1,1.1,0,0,1-.34.287,1.34,1.34,0,0,1-.955.112,1.112,1.112,0,0,1-.4-.2,1.089,1.089,0,0,1-.281-.342,1.327,1.327,0,0,1-.108-.926,1.093,1.093,0,0,1,.2-.4,1.114,1.114,0,0,1,.341-.288,1.339,1.339,0,0,1,.955-.112,1.084,1.084,0,0,1,.678.544A1.255,1.255,0,0,1,367.357,87.145Zm-.483.056a1.015,1.015,0,0,0-.085-.316.688.688,0,0,0-.164-.226.591.591,0,0,0-.233-.127.814.814,0,0,0-.574.067.585.585,0,0,0-.2.178.69.69,0,0,0-.108.258,1.014,1.014,0,0,0-.01.327,1.037,1.037,0,0,0,.085.317.679.679,0,0,0,.164.225.59.59,0,0,0,.233.126.813.813,0,0,0,.574-.067.59.59,0,0,0,.2-.177.68.68,0,0,0,.108-.257A1.04,1.04,0,0,0,366.874,87.2Z" transform="translate(-362.596 -85.42)"/>
        <path id="Tracé_177" data-name="Tracé 177" class="cls-14" d="M381.952,84.4l.2,2.287-.244.021a.218.218,0,0,1-.094-.01.226.226,0,0,1-.08-.056l-1.265-1.352c.006.037.012.073.017.108s.008.069.011.1l.114,1.322-.418.036-.2-2.287.249-.022.051,0a.114.114,0,0,1,.039.008.156.156,0,0,1,.035.02.327.327,0,0,1,.038.035l1.274,1.357c-.008-.04-.014-.078-.02-.115s-.01-.072-.013-.106l-.113-1.308Z" transform="translate(-374.418 -84.071)"/>
        <path id="Tracé_178" data-name="Tracé 178" class="cls-14" d="M395.49,83.91l-.67.042.121,1.909-.475.03-.121-1.909-.669.042-.024-.382,1.814-.115Z" transform="translate(-385.196 -83.386)"/>
        <path id="Tracé_179" data-name="Tracé 179" class="cls-14" d="M407.316,85.513l-.477.021-.1-2.293.477-.021Z" transform="translate(-395.523 -83.143)"/>
        <path id="Tracé_180" data-name="Tracé 180" class="cls-14" d="M414.935,83.309a.182.182,0,0,1-.044.054.1.1,0,0,1-.059.018.145.145,0,0,1-.076-.023c-.027-.016-.059-.033-.095-.051a.925.925,0,0,0-.124-.051.489.489,0,0,0-.163-.022.36.36,0,0,0-.246.078.245.245,0,0,0-.079.194.18.18,0,0,0,.047.125.391.391,0,0,0,.12.084,1.1,1.1,0,0,0,.168.062q.094.027.192.059a1.682,1.682,0,0,1,.193.077.675.675,0,0,1,.169.113.53.53,0,0,1,.121.168.593.593,0,0,1,.049.244.789.789,0,0,1-.049.294.694.694,0,0,1-.153.242.728.728,0,0,1-.251.165.941.941,0,0,1-.341.065,1.083,1.083,0,0,1-.218-.019,1.261,1.261,0,0,1-.21-.058,1.163,1.163,0,0,1-.191-.092.833.833,0,0,1-.157-.121l.135-.227a.142.142,0,0,1,.045-.043.116.116,0,0,1,.06-.017.164.164,0,0,1,.091.03q.048.031.11.068a.9.9,0,0,0,.144.067.539.539,0,0,0,.2.028.39.39,0,0,0,.256-.08.277.277,0,0,0,.087-.228.211.211,0,0,0-.047-.14.361.361,0,0,0-.119-.088.937.937,0,0,0-.167-.06c-.062-.016-.127-.034-.192-.054a1.575,1.575,0,0,1-.193-.073.583.583,0,0,1-.168-.114.555.555,0,0,1-.121-.178.692.692,0,0,1-.05-.267.635.635,0,0,1,.191-.465.747.747,0,0,1,.239-.154.881.881,0,0,1,.327-.062,1.106,1.106,0,0,1,.385.058.859.859,0,0,1,.3.173Z" transform="translate(-400.887 -82.853)"/>
        <path id="Tracé_181" data-name="Tracé 181" class="cls-14" d="M425.393,83.4a.183.183,0,0,1-.047.052.1.1,0,0,1-.06.015.145.145,0,0,1-.074-.026q-.04-.026-.093-.055a.909.909,0,0,0-.122-.056.488.488,0,0,0-.162-.029.361.361,0,0,0-.248.067.245.245,0,0,0-.087.19.179.179,0,0,0,.042.127.393.393,0,0,0,.116.089,1.1,1.1,0,0,0,.165.069c.062.02.125.043.19.067a1.732,1.732,0,0,1,.189.085.684.684,0,0,1,.164.12.526.526,0,0,1,.114.173.6.6,0,0,1,.039.246.789.789,0,0,1-.062.292.7.7,0,0,1-.164.235.727.727,0,0,1-.258.154.94.94,0,0,1-.344.05,1.1,1.1,0,0,1-.217-.028,1.256,1.256,0,0,1-.207-.067,1.178,1.178,0,0,1-.187-.1.835.835,0,0,1-.152-.127l.145-.221a.139.139,0,0,1,.047-.041.117.117,0,0,1,.061-.015.165.165,0,0,1,.089.034l.107.072a.886.886,0,0,0,.141.073.538.538,0,0,0,.195.037.39.39,0,0,0,.259-.069.278.278,0,0,0,.1-.224.21.21,0,0,0-.042-.142.361.361,0,0,0-.115-.093.93.93,0,0,0-.165-.067c-.062-.019-.125-.04-.19-.063a1.583,1.583,0,0,1-.189-.081.593.593,0,0,1-.163-.121.553.553,0,0,1-.113-.183.7.7,0,0,1-.038-.268.637.637,0,0,1,.211-.457.746.746,0,0,1,.245-.144.885.885,0,0,1,.33-.049,1.115,1.115,0,0,1,.382.074.861.861,0,0,1,.294.186Z" transform="translate(-409.086 -82.904)"/>
        <path id="Tracé_182" data-name="Tracé 182" class="cls-14" d="M436.352,85.834l-.368-.02a.161.161,0,0,1-.1-.035.176.176,0,0,1-.054-.078l-.131-.446-.913-.05-.179.429a.181.181,0,0,1-.059.069.152.152,0,0,1-.1.027l-.371-.02,1.021-2.243.485.026Zm-.749-.914-.21-.715c-.013-.038-.026-.082-.039-.132s-.026-.1-.038-.164c-.018.058-.037.112-.055.161s-.037.092-.054.128l-.284.685Z" transform="translate(-417.094 -83.337)"/>
        <path id="Tracé_183" data-name="Tracé 183" class="cls-14" d="M450.057,86.129l-.03.385-1.358-.1.175-2.289.473.036-.146,1.9Z" transform="translate(-428.607 -83.854)"/>
        <path id="Tracé_184" data-name="Tracé 184" class="cls-14" d="M459.956,87.349l-.476-.044.212-2.285.476.044Z" transform="translate(-437.138 -84.562)"/>
        <path id="Tracé_185" data-name="Tracé 185" class="cls-14" d="M467.589,86.181l-.067.586.761.086-.041.357-.761-.086-.068.6.978.111-.042.37-1.452-.165.258-2.281,1.453.165-.042.37Z" transform="translate(-442.991 -85.145)"/>
        <path id="Tracé_186" data-name="Tracé 186" class="cls-14" d="M479.709,87.344l-.362,2.267-.242-.039a.213.213,0,0,1-.089-.033.224.224,0,0,1-.063-.073l-.9-1.618c0,.037-.006.073-.01.109s-.008.069-.013.1l-.21,1.311-.414-.066.362-2.267.247.039.05.011a.117.117,0,0,1,.036.017.157.157,0,0,1,.029.028.329.329,0,0,1,.028.043l.907,1.625c0-.04.005-.079.009-.116s.009-.073.014-.106l.207-1.3Z" transform="translate(-451.282 -86.152)"/>
      </g>
    </g>
  </g>
</svg>
