<svg xmlns="http://www.w3.org/2000/svg" width="511" height="589.5" viewBox="0 0 511 589.5">
  <defs>
    <style>
      .cls-1 {
        fill: #25266e;
      }

      .cls-1, .cls-2, .cls-3, .cls-4 {
        fill-rule: evenodd;
      }

      .cls-2 {
        fill: #151650;
      }

      .cls-3 {
        fill: #060616;
      }

      .cls-4 {
        fill: #08082c;
      }

      .cls-5 {
        fill: #fff;
      }
    </style>
  </defs>
  <g id="Groupe_58" data-name="Groupe 58" transform="translate(-52 -571)">
    <g id="Composant_4_4" data-name="Composant 4 – 4" transform="translate(52 571)">
      <path id="Tracé_10" data-name="Tracé 10" class="cls-1" d="M840.756,472.548c-.516,1.337-1.44,3.758-1.764,4.8a47.084,47.084,0,0,1-2.677,8.038c-1.48,2.956-1.2,3.88-4.342,3.88a67.759,67.759,0,0,1-27.9-5.082c-13.025-5.541-31.592-18.013-40.921-23.37s-28.363-16.629-30.949-17.553-2.126-2.124-1.386-3.693,3.788-6.376,5.911-10.256,8.316-16.535,11.364-21.892,10.9-25.775,19.029-45.36,16.075-33.994,20.325-45.449,5.358-14.227,12.563-22.727,14.595-16.627,28.269-22.724,31.038-12.747,40.092-17.921a100.224,100.224,0,0,1,19.353-8.824c3.142-.924,6.19-.367,8.5-1.57a18.35,18.35,0,0,1,8.221-2.032c2.959,0,3.051-1.478,6.56-3.234s5.449-3.6,14.595-2.68c43.163,4.361,77.116,4.361,120.28,0,9.145-.921,11.085.924,14.595,2.68s3.6,3.234,6.557,3.234a18.352,18.352,0,0,1,8.224,2.032c2.31,1.2,5.358.646,8.5,1.57a100.149,100.149,0,0,1,19.355,8.824c9.054,5.174,26.418,11.823,40.092,17.921s21.06,14.227,28.269,22.724,8.313,11.272,12.563,22.727,12.193,25.867,20.323,45.449,15.984,40,19.031,45.36,9.238,18.013,11.361,21.892,5.174,8.683,5.914,10.256,1.2,2.769-1.386,3.693-21.617,12.2-30.949,17.553-27.9,17.829-40.924,23.37a67.741,67.741,0,0,1-27.9,5.082c-3.139,0-2.864-.924-4.342-3.88a47.062,47.062,0,0,1-2.677-8.038c-.327-1.04-1.251-3.461-1.767-4.8-.5-1.3-.959-2.369-.959.176,0,1.432-.324,34-.138,53.027s1.294,37.506.37,50.807.924,28.822,1.662,41.572,3.879,26.977,1.848,39.538-2.032,27.715-.554,45.082,2.861,30.392,3.785,37.414,5.358,17.183,7.392,25.129,2.215,20.874,3.139,27.528,1.848,13.025,2.126,14.506.646,2.029-.554,2.215-2.126.554-8.316,1.291-33.21,5.036-60.368,8.178c-59.26,6.852-129.563,6.852-188.823,0-27.158-3.142-54.181-7.438-60.371-8.178s-7.111-1.108-8.313-1.291-.832-.74-.554-2.215,1.2-7.857,2.126-14.506,1.108-19.588,3.14-27.528,6.468-18.107,7.392-25.129,2.307-20.047,3.785-37.414,1.478-32.519-.554-45.082,1.108-26.791,1.845-39.538,2.589-28.269,1.664-41.572.187-31.776.37-50.807-.138-51.6-.138-53.027C841.718,470.178,841.261,471.243,840.756,472.548Z" transform="translate(-730.235 -234.65)"/>
      <path id="Tracé_11" data-name="Tracé 11" class="cls-1" d="M794.278,237.332a17.967,17.967,0,0,1,2.029-.359l-.187.192a8.041,8.041,0,0,0-1.969,7.551c.967,4.72,3.877,9.964,6.673,13.833A47.508,47.508,0,0,0,816.4,272.471c13.825,7.533,33.791,13.666,49.521,14.846,4.544.343,9.081.6,13.636.6s9.094-.257,13.638-.6c15.73-1.181,35.693-7.314,49.521-14.846a47.507,47.507,0,0,0,15.576-13.922c2.8-3.869,5.7-9.113,6.673-13.833a8.041,8.041,0,0,0-1.97-7.551l-.186-.192a17.93,17.93,0,0,1,2.026.359,9.5,9.5,0,0,1,1.4,7.646c-1.01,4.928-3.961,10.275-6.892,14.333a48.771,48.771,0,0,1-16.008,14.3c-14.171,7.722-33.95,13.793-50.047,15-4.577.346-9.146.589-13.736.589s-9.156-.243-13.733-.589c-16.1-1.21-35.877-7.281-50.048-15a48.771,48.771,0,0,1-16.008-14.3c-2.932-4.058-5.882-9.4-6.892-14.333A9.511,9.511,0,0,1,794.278,237.332Z" transform="translate(-624.057 -230.697)"/>
      <path id="Tracé_12" data-name="Tracé 12" class="cls-1" d="M792.814,237.775c.419-.178.851-.34,1.3-.492-1.7,2.648-1.743,6.525-1.094,10.129,1.078,6.014,4.212,10.1,8.224,14.671,5.9,6.719,13.814,13.1,20.582,16.138a134.192,134.192,0,0,0,35.383,10.81,156.462,156.462,0,0,0,47.743,0,134.192,134.192,0,0,0,35.382-10.81c6.768-3.037,14.679-9.418,20.582-16.138,4.012-4.566,7.146-8.656,8.227-14.671.646-3.6.6-7.481-1.1-10.129.443.151.875.313,1.294.492,1.37,2.921,1.243,6.7.684,9.8-1.119,6.225-4.363,10.472-8.432,15.1-5.469,6.225-13.35,12.982-20.89,16.367a138.259,138.259,0,0,1-35.609,10.875c-3.212.513-6.473.851-9.713,1.129a155.1,155.1,0,0,1-28.6,0c-3.239-.278-6.5-.616-9.715-1.129a138.275,138.275,0,0,1-35.606-10.875c-7.541-3.385-15.422-10.142-20.89-16.367-4.069-4.631-7.316-8.878-8.432-15.1C791.574,244.472,791.447,240.7,792.814,237.775Z" transform="translate(-625.576 -230.17)"/>
      <path id="Tracé_13" data-name="Tracé 13" class="cls-2" d="M839.168,427.549c-.516,1.337-1.44,3.758-1.764,4.8a47.04,47.04,0,0,1-2.677,8.038c-1.48,2.956-1.2,3.88-4.342,3.88a70.876,70.876,0,0,1-18.788-2.024c1.608-1.891,3.394-4.115,5.025-6.425-7.751-2.018-15.514-5.387-24.824-9.389-11.823-5.082-29.652-17.829-38.152-22.633-6.479-3.661-17.567-9.9-22.479-12.658l.527-.883c4.825,2.713,16.086,9.043,22.635,12.744,8.5,4.8,26.329,17.553,38.151,22.633,9.267,3.982,17,7.341,24.713,9.362.895-1.31,1.729-2.64,2.443-3.942-6.32-1.618-11.742-3.755-17.137-5.671-9.883-3.51-28.269-14.873-38.706-21.155-8.354-5.028-23.8-14.546-29.644-18.151.192-.335.378-.665.562-.992,5.733,3.539,21.357,13.171,29.779,18.237,10.437,6.282,28.82,17.643,38.706,21.155,5.339,1.9,10.7,4.01,16.943,5.622,1.3-2.572,2.053-5,1.786-6.914-1.108-7.943-10.345-15.335-15.889-34.18s-2.956-15.7,3.512-2.956,10.345,22.171,15.7,26.421,7.022-4.066,7.392-10.715-.554-6.468-6.652-14.6-19.4-23.278-25.683-41.015-9.421-31.408-9.421-34.918.554-4.62,5.728,12.193,14.965,37.506,23.092,47.851,16.262,12.38,8.87,0-13.487-25.126-7.759-17.367,12.377,13.674,9.607,5.541c-4.488-13.168-7.257-24.286-12.488-37.5-4.172-10.548-10.559-25.37-15.276-34.542-4.358-8.481-9.761-19-13.036-25.388.14-.311.278-.613.419-.913,3.25,6.333,8.8,17.145,13.258,25.821,4.92,9.572,11.012,22.5,15.886,34.21,2.9,6.962,5.23,14.271,8.259,21.1,2.78,6.271,4.547,7.576,4.547.133,0-10.345-.738-17.737,1.111-26.421s5.449-15.984,3.418,4.155-.833,28.177-.465,38.338,4.112,19.447,7.068,23.049,5.082,4.62,2.68,9.24-4.62,8.221-1.848,13.022.646,8.316-.462,13.028.462,7.481,1.2,20.785-.37,44.9-1.294,59.306c-.449,6.965-2.189,15.908-3.866,23.3-.049-11.588.594-25.343.729-39.4.184-19.031-.138-51.6-.138-53.028C840.13,425.179,839.673,426.244,839.168,427.549Z" transform="translate(-728.648 -189.651)"/>
      <path id="Tracé_14" data-name="Tracé 14" class="cls-3" d="M859.782,275.576c-10.855-1.108-29.376-5.36-37.135-9.148-9.586-4.677-20.144-11.137-23.924-21.62-3.785-10.5,5.782-10.172,13.739-9.256,4.018.462,8.821.646,16.443,1.524s20.371,1.661,26.931,1.8c9.6.2,20,.2,29.609,0,6.56-.141,19.307-.924,26.931-1.8s12.423-1.062,16.44-1.524c7.959-.916,17.526-1.243,13.739,9.256-3.777,10.483-14.336,16.943-23.921,21.62-7.76,3.788-26.28,8.04-37.138,9.148A92.938,92.938,0,0,1,859.782,275.576Z" transform="translate(-615.138 -233.824)"/>
      <path id="Tracé_15" data-name="Tracé 15" class="cls-2" d="M856.395,264.7c-10.856-1.108-29.376-5.36-37.136-9.148-6.935-3.383-14.382-7.7-19.4-13.8a35.878,35.878,0,0,1,9.213.186c4.018.462,8.821.646,16.443,1.524s20.371,1.664,26.931,1.8c9.6.2,20,.2,29.609,0,6.56-.138,19.307-.924,26.931-1.8s12.423-1.062,16.44-1.524a35.878,35.878,0,0,1,9.213-.186c-5.017,6.1-12.461,10.418-19.4,13.8-7.76,3.788-26.28,8.04-37.138,9.148A92.929,92.929,0,0,1,856.395,264.7Z" transform="translate(-611.751 -222.951)"/>
      <path id="Tracé_16" data-name="Tracé 16" class="cls-4" d="M866.023,455.951c-10.9-.367-36.212-2.864-52.657-5.266-12.45-1.818-36.944-5.517-48.108-7.206l.154-1.094c11.315,1.713,35.444,5.355,47.77,7.154,16.446,2.4,41.756,4.9,52.657,5.268,42.3,1.432,80.753,1.432,123.057,0,10.9-.37,36.214-2.867,52.655-5.268,12.325-1.8,36.458-5.441,47.773-7.154l.154,1.094c-11.167,1.689-35.661,5.387-48.108,7.206-16.446,2.4-41.756,4.9-52.657,5.266-42.177,1.432-80.512,1.432-122.69,0Zm99.822,6.246c31.133-.737,58.569-4.617,74.366-6.744,12.252-1.645,38.721-5.352,49.988-6.933l-.146-1.016c-11.353,1.589-37.644,5.269-49.842,6.908-15.8,2.124-43.234,6.006-74.366,6.744-25.764.611-51.19.611-76.954,0-31.133-.738-58.569-4.62-74.366-6.744-12.2-1.64-38.489-5.32-49.842-6.908l-.148,1.016c11.269,1.581,37.738,5.287,49.99,6.933,15.8,2.126,43.234,6.006,74.366,6.744C914.655,462.81,940.081,462.81,965.845,462.2Z" transform="translate(-671.867 118.865)"/>
      <path id="Tracé_17" data-name="Tracé 17" class="cls-1" d="M769.521,364.044c-2.288-6.546-5.993-17.216-9.254-27-5.174-15.519-7.392-17.183-9.978-32.518s-1.478-26.05.184-14.411,6.282,23.835,9.424,33.072,7.76,21.063,11.269,34.18C774.422,369.526,775.092,379.957,769.521,364.044Z" transform="translate(-698.722 -148.638)"/>
      <path id="Tracé_18" data-name="Tracé 18" class="cls-1" d="M762.883,278.39c9.44,31.046,14.768,37.63,11.582-.616-.183-2.213-.492-10.412-2.626-2.032-1.3,5.114-2.34,8.254-4.887,2.68C760.943,265.276,759.662,267.8,762.883,278.39Z" transform="translate(-677.6 -175.378)"/>
      <path id="Tracé_19" data-name="Tracé 19" class="cls-2" d="M883.3,427.549c.516,1.337,1.44,3.758,1.767,4.8a47.062,47.062,0,0,0,2.677,8.038c1.478,2.956,1.2,3.88,4.342,3.88a70.873,70.873,0,0,0,18.788-2.024c-1.607-1.891-3.393-4.115-5.025-6.425,7.751-2.018,15.514-5.387,24.821-9.389,11.826-5.082,29.655-17.829,38.154-22.633,6.476-3.661,17.567-9.9,22.479-12.658l-.527-.883c-4.825,2.713-16.089,9.043-22.635,12.744-8.5,4.8-26.329,17.553-38.154,22.633-9.264,3.982-17,7.341-24.71,9.362-.9-1.31-1.729-2.64-2.442-3.942,6.319-1.618,11.742-3.755,17.135-5.671,9.885-3.51,28.269-14.873,38.708-21.155,8.354-5.028,23.8-14.546,29.644-18.151-.192-.335-.381-.665-.562-.992-5.736,3.539-21.36,13.171-29.776,18.237-10.442,6.282-28.825,17.643-38.708,21.155-5.341,1.9-10.707,4.01-16.943,5.622-1.3-2.572-2.053-5-1.789-6.914,1.108-7.943,10.348-15.335,15.892-34.18s2.953-15.7-3.512-2.956-10.345,22.171-15.7,26.421-7.022-4.066-7.392-10.715.554-6.468,6.652-14.6,19.4-23.278,25.68-41.015,9.424-31.408,9.424-34.918-.554-4.62-5.728,12.193-14.965,37.506-23.095,47.851-16.259,12.38-8.867,0,13.487-25.126,7.757-17.367-11.823,15.705-9.051,7.576,5.357-18.291,8.867-26.05c1.945-4.3,2.359-8.705,1.527-9.526,3.982-10.464,11.472-28.107,16.816-38.5,4.358-8.481,9.759-19,13.033-25.388-.138-.311-.278-.613-.416-.913-3.25,6.333-8.8,17.145-13.257,25.821-6.652,12.939-15.446,32.008-20.471,45.922-4.8,13.3-8.221,19.863-8.221,9.516s.738-17.737-1.108-26.421-7.206-18.477-5.177,1.664,2.589,30.668,2.218,40.829-4.109,19.447-7.065,23.049-5.082,4.62-2.68,9.24,4.617,8.221,1.848,13.022-.646,8.316.462,13.028-.462,7.481-1.2,20.785.367,44.9,1.291,59.306c.446,6.965,2.188,15.908,3.866,23.3.046-11.588-.594-25.343-.73-39.4-.186-19.031.138-51.6.138-53.028C882.339,425.179,882.8,426.244,883.3,427.549Z" transform="translate(-482.82 -189.651)"/>
      <path id="Tracé_20" data-name="Tracé 20" class="cls-1" d="M895.774,364.044c2.291-6.546,6-17.216,9.256-27,5.174-15.519,7.392-17.183,9.978-32.518s1.478-26.05-.187-14.411-6.281,23.835-9.421,33.072-7.76,21.063-11.269,34.18C890.875,369.526,890.208,379.957,895.774,364.044Z" transform="translate(-455.573 -148.638)"/>
      <path id="Tracé_21" data-name="Tracé 21" class="cls-1" d="M895.684,278.39c-9.44,31.046-14.768,37.63-11.583-.616.184-2.213.492-10.412,2.624-2.032,1.3,5.114,2.342,8.254,4.89,2.68C897.624,265.276,898.9,267.8,895.684,278.39Z" transform="translate(-469.966 -175.378)"/>
      <path id="Tracé_22" data-name="Tracé 22" class="cls-3" d="M778.443,361.749c-.516,1.337-1.44,3.758-1.764,4.8A47.04,47.04,0,0,1,774,374.585c-1.478,2.95-1.2,3.877-4.328,3.88a71.935,71.935,0,0,0,2.783-6.782c1.943-5.544,1.848-6.468,3.326-10.531s2.586-12.288,2.586-16.446a94.2,94.2,0,0,0-.905-11.817c-.805-5.377-1.732-5.141-5.093-8.692-1.575-1.661-3.409-3.726-4.436-4.993-3.6-4.434,2.586-.465,7.019,2.864s5.59,1.154,1.986-5.774a78.89,78.89,0,0,1-5.036-11.085c-2.124-5.174-1.753-8.267,1.572-1.8,4.677,9.091,3.5,6.9,9.054,13.536,1.432,1.707,3,2.769,1.478,7.759s-2.956,6.649-.74,12.377.97,6.052.462,8.962c-1.113,6.382-1.089,10.634-1.51,16.732a122.42,122.42,0,0,1-2.683,17.7c-.057-10.048-.13-17.859-.13-18.545C779.405,359.38,778.949,360.444,778.443,361.749Z" transform="translate(-667.923 -123.851)"/>
      <path id="Tracé_23" data-name="Tracé 23" class="cls-3" d="M882.36,361.749c.516,1.337,1.44,3.758,1.767,4.8a47.062,47.062,0,0,0,2.677,8.038c1.475,2.95,1.2,3.877,4.328,3.88a71.221,71.221,0,0,1-2.783-6.782c-1.943-5.544-1.848-6.468-3.326-10.531s-2.585-12.288-2.585-16.446a94.2,94.2,0,0,1,.905-11.817c.805-5.377,1.732-5.141,5.09-8.692,1.575-1.661,3.412-3.726,4.439-4.993,3.6-4.434-2.585-.465-7.019,2.864s-5.587,1.154-1.986-5.774a78.163,78.163,0,0,0,5.033-11.085c2.124-5.174,1.756-8.267-1.569-1.8-4.677,9.091-3.5,6.9-9.054,13.536-1.432,1.707-3,2.769-1.478,7.759s2.956,6.649.738,12.377-.968,6.052-.459,8.962c1.113,6.382,1.089,10.634,1.51,16.732a121.606,121.606,0,0,0,2.683,17.7c.057-10.048.13-17.859.13-18.545C881.4,359.38,881.858,360.444,882.36,361.749Z" transform="translate(-481.881 -123.851)"/>
    </g>
    <g id="Groupe_34" data-name="Groupe 34" transform="translate(221.003 707.556)">
      <g id="Groupe_28" data-name="Groupe 28" transform="translate(8.837 37.213)">
        <g id="Groupe_25" data-name="Groupe 25">
          <g id="Groupe_19" data-name="Groupe 19">
            <path id="Tracé_192" data-name="Tracé 192" class="cls-5" d="M4283.475,1412.368a11.6,11.6,0,0,0,1.131-5.031c0-5.854-4.235-10.618-9.441-10.618s-9.442,4.763-9.442,10.618,4.235,10.618,9.442,10.618a9.1,9.1,0,0,0,7.43-4.079Zm-8.274,2.915c-3.978,0-7.2-3.619-7.2-8.083s3.226-8.083,7.2-8.083,7.2,3.619,7.2,8.083S4279.178,1415.282,4275.2,1415.282Z" transform="translate(-4263.193 -1394.182)"/>
            <path id="Tracé_193" data-name="Tracé 193" class="cls-5" d="M4245.354,1365.456c0-7.23-5.334-13.092-11.915-13.092s-11.913,5.861-11.913,13.092,5.333,13.091,11.913,13.091c.355,0,.7-.021,1.05-.053l0,0-7.5,12.784h2.723l.56-.963a1.662,1.662,0,0,1,.854-3.087,1.648,1.648,0,0,1,.82.217l7.92-13.575a9.182,9.182,0,0,1-6.371,2.639c-5.411,0-9.815-4.931-9.815-10.992s4.4-10.992,9.815-10.992,9.817,4.931,9.817,10.992a12,12,0,0,1-1.16,5.179h0l-.019.03c-.259.537-1.092,1.866-1.092,1.866l-8.806,15.062a1.662,1.662,0,0,1-1.113,2.9,1.641,1.641,0,0,1-.53-.088l-.476.814h2.589l10.285-18a13.532,13.532,0,0,0,1-1.75l.013-.026,0,0A14.085,14.085,0,0,0,4245.354,1365.456Z" transform="translate(-4221.525 -1352.364)"/>
          </g>
          <g id="Groupe_20" data-name="Groupe 20" transform="translate(8.1 35.027)">
            <path id="Tracé_194" data-name="Tracé 194" class="cls-5" d="M4396.99,1984.6c-.046,0-.091,0-.134.006s-.09.009-.134.017v.753c.044.008.091.013.134.017s.088.006.134.006c.178,0,.268-.1.268-.286v-.228C4397.258,1984.693,4397.168,1984.6,4396.99,1984.6Z" transform="translate(-4394.801 -1983.46)"/>
            <path id="Tracé_195" data-name="Tracé 195" class="cls-5" d="M4364.62,1964.692a1.5,1.5,0,1,0,1.5,1.5A1.5,1.5,0,0,0,4364.62,1964.692Zm-.613,2.166a1.647,1.647,0,0,1-.546-.075l.069-.22a1.694,1.694,0,0,0,.211.044c.079.011.167.019.266.022.239,0,.362-.077.362-.229q0-.172-.3-.228-.577-.056-.577-.458c0-.3.216-.457.645-.457a1.181,1.181,0,0,1,.431.07l-.062.211a1.2,1.2,0,0,0-.369-.052q-.376,0-.376.228c0,.114.1.191.309.229.376.039.563.19.563.457Q4364.636,1966.858,4364.007,1966.858Zm1.3,0a1.071,1.071,0,0,1-.269-.034v.49l-.269.057v-1.711a1.6,1.6,0,0,1,.537-.058q.536,0,.536.514v.228Q4365.847,1966.858,4365.311,1966.858Z" transform="translate(-4363.12 -1964.692)"/>
          </g>
        </g>
      </g>
      <g id="Composant_2_9" data-name="Composant 2 – 9" transform="translate(146.913 49.834)">
        <path id="Tracé_187" data-name="Tracé 187" class="cls-5" d="M2305.7,4.024h-3.036V1.644l8.047,0V4.026h-3.067l0,13.185h-1.945Z" transform="translate(-2302.663 -1.644)"/>
        <path id="Tracé_188" data-name="Tracé 188" class="cls-5" d="M2410.156,10.346l-4.016,0v4.572l4.49,0V17.25l-6.435,0,.005-15.563,6.2,0,0,2.332-4.252,0,0,4.018,4.016,0Z" transform="translate(-2394.902 -1.68)"/>
        <path id="Tracé_189" data-name="Tracé 189" class="cls-5" d="M2490.855,17.283l-1.138-3.095c-.457-1.2-.757-2.032-1.074-2.933h-.031c-.254.9-.539,1.732-.966,2.932l-1.06,3.094h-2.229l3.165-7.872-3.048-7.69h2.245l1.153,3.21c.347.97.6,1.732.868,2.61h.049c.284-.97.506-1.662.838-2.609l1.14-3.209h2.229l-3.118,7.6,3.238,7.968Z" transform="translate(-2467.729 -1.709)"/>
        <path id="Tracé_190" data-name="Tracé 190" class="cls-5" d="M2589.2,4.137h-3.036V1.757l8.047,0V4.139h-3.067l-.005,13.185h-1.944Z" transform="translate(-2560.218 -1.745)"/>
        <path id="Tracé_191" data-name="Tracé 191" class="cls-5" d="M2693.657,10.459l-4.016,0,0,4.572,4.49,0v2.332l-6.435,0L2687.7,1.8l6.2,0V4.132l-4.252,0,0,4.018,4.017,0Z" transform="translate(-2652.458 -1.781)"/>
      </g>
      <g id="Groupe_47" data-name="Groupe 47" transform="translate(0 0)">
        <path id="Tracé_423" data-name="Tracé 423" class="cls-5" d="M31.651,26.469c-4.163,1.762-10.691,3.783-13.42-.593-1.512-2.424-.55-6.2,1.68-9.63A50.522,50.522,0,0,1,25.015,10c-1.028,1.658-3.887,7.17-.127,9.917,1.444,1.061,4.023,1.172,7.233.34L70.289,10.163Z" transform="translate(-17.499 -9.999)"/>
      </g>
    </g>
  </g>
</svg>
