<svg xmlns="http://www.w3.org/2000/svg" width="588" height="678.328" viewBox="0 0 588 678.328">
  <defs>
    <style>
      .cls-1, .cls-8 {
        fill: #25266e;
      }

      .cls-1, .cls-2, .cls-3, .cls-4 {
        fill-rule: evenodd;
      }

      .cls-2 {
        fill: #151650;
      }

      .cls-3 {
        fill: #060616;
      }

      .cls-4 {
        fill: #08082c;
      }

      .cls-5 {
        fill: #fff;
      }

      .cls-6 {
        fill: #c4c3c3;
      }

      .cls-7 {
        fill: #900910;
      }
    </style>
  </defs>
  <g id="Groupe_51" data-name="Groupe 51" transform="translate(-52 -268)">
    <g id="Composant_4_2" data-name="Composant 4 – 2" transform="translate(52 268)">
      <path id="Tracé_10" data-name="Tracé 10" class="cls-1" d="M857.409,508.4c-.594,1.539-1.657,4.324-2.03,5.521-.532,1.7-1.38,5.848-3.081,9.249s-1.383,4.464-5,4.464a77.968,77.968,0,0,1-32.105-5.848c-14.988-6.376-36.352-20.727-47.087-26.892s-32.637-19.135-35.612-20.2-2.447-2.444-1.595-4.25,4.358-7.337,6.8-11.8,9.569-19.026,13.076-25.191,12.541-29.659,21.9-52.2,18.5-39.116,23.388-52.3,6.165-16.371,14.456-26.152,16.794-19.132,32.528-26.149,35.715-14.668,46.133-20.621,18.656-9.09,22.269-10.154,7.122-.423,9.781-1.806a21.114,21.114,0,0,1,9.46-2.338c3.4,0,3.51-1.7,7.549-3.721s6.27-4.144,16.794-3.084c49.668,5.018,88.737,5.018,138.4,0,10.524-1.06,12.756,1.063,16.794,3.084s4.144,3.721,7.545,3.721a21.118,21.118,0,0,1,9.463,2.338c2.658,1.383,6.165.743,9.777,1.806s11.854,4.2,22.272,10.154,30.4,13.6,46.133,20.621,24.234,16.371,32.528,26.149,9.566,12.97,14.457,26.152,14.03,29.764,23.385,52.3,18.392,46.03,21.9,52.2,10.629,20.727,13.073,25.191,5.953,9.992,6.805,11.8,1.38,3.187-1.595,4.25-24.874,14.033-35.612,20.2-32.1,20.516-47.09,26.892a77.95,77.95,0,0,1-32.1,5.848c-3.613,0-3.3-1.063-5-4.464s-2.549-7.545-3.081-9.249c-.376-1.2-1.439-3.983-2.033-5.521-.578-1.5-1.1-2.727-1.1.2,0,1.648-.373,39.119-.159,61.018s1.489,43.158.426,58.462,1.063,33.166,1.912,47.836,4.464,31.042,2.126,45.5-2.338,31.891-.637,51.875,3.292,34.972,4.356,43.052,6.165,19.773,8.506,28.916,2.549,24.019,3.612,31.676,2.126,14.988,2.447,16.692.743,2.335-.637,2.549-2.447.637-9.569,1.486-38.214,5.795-69.465,9.411c-68.19,7.884-149.086,7.884-217.276,0-31.25-3.616-62.346-8.559-69.468-9.411s-8.183-1.275-9.566-1.486-.958-.852-.637-2.549,1.383-9.041,2.447-16.692,1.275-22.539,3.613-31.676,7.443-20.836,8.506-28.916,2.655-23.068,4.355-43.052,1.7-37.419-.637-51.875,1.275-30.828,2.124-45.5,2.979-32.528,1.915-47.836.215-36.563.426-58.462-.159-59.37-.159-61.018C858.516,505.669,857.991,506.894,857.409,508.4Z" transform="translate(-730.235 -234.65)"/>
      <path id="Tracé_11" data-name="Tracé 11" class="cls-1" d="M794.527,237.386a20.717,20.717,0,0,1,2.335-.413l-.215.221a9.253,9.253,0,0,0-2.266,8.689c1.113,5.431,4.461,11.466,7.679,15.917a54.665,54.665,0,0,0,17.923,16.02c15.908,8.668,38.883,15.725,56.982,17.083,5.229.395,10.449.69,15.69.69s10.465-.3,15.694-.69c18.1-1.358,41.072-8.416,56.982-17.083a54.666,54.666,0,0,0,17.923-16.02c3.218-4.452,6.563-10.486,7.679-15.917a9.253,9.253,0,0,0-2.266-8.689l-.214-.221a20.675,20.675,0,0,1,2.332.413,10.935,10.935,0,0,1,1.617,8.8c-1.163,5.671-4.557,11.823-7.931,16.493a56.123,56.123,0,0,1-18.42,16.458c-16.306,8.885-39.066,15.871-57.589,17.264-5.266.4-10.523.678-15.806.678s-10.536-.28-15.8-.678c-18.523-1.393-41.283-8.378-57.589-17.264a56.124,56.124,0,0,1-18.42-16.458c-3.373-4.67-6.768-10.822-7.931-16.493A10.945,10.945,0,0,1,794.527,237.386Z" transform="translate(-598.656 -229.752)"/>
      <path id="Tracé_12" data-name="Tracé 12" class="cls-1" d="M792.976,237.849c.482-.205.979-.392,1.492-.566-1.955,3.047-2.005,7.508-1.259,11.655,1.241,6.92,4.847,11.627,9.463,16.881,6.793,7.732,15.9,15.075,23.683,18.569a154.407,154.407,0,0,0,40.714,12.439,180.033,180.033,0,0,0,54.937,0,154.412,154.412,0,0,0,40.714-12.439c7.788-3.494,16.891-10.838,23.683-18.569,4.617-5.254,8.223-9.961,9.466-16.881.743-4.147.693-8.608-1.262-11.655.51.174,1.007.361,1.489.566,1.576,3.361,1.43,7.707.787,11.273-1.287,7.163-5.021,12.05-9.7,17.379-6.293,7.163-15.361,14.938-24.038,18.833a159.091,159.091,0,0,1-40.975,12.513c-3.7.591-7.449.979-11.176,1.3a178.453,178.453,0,0,1-32.908,0c-3.727-.32-7.48-.709-11.179-1.3a159.113,159.113,0,0,1-40.972-12.513c-8.677-3.9-17.746-11.671-24.038-18.833-4.682-5.329-8.419-10.216-9.7-17.379C791.549,245.556,791.4,241.21,792.976,237.849Z" transform="translate(-600.538 -229.098)"/>
      <path id="Tracé_13" data-name="Tracé 13" class="cls-2" d="M855.442,452.631c-.594,1.539-1.657,4.324-2.03,5.521-.532,1.7-1.38,5.848-3.081,9.249s-1.383,4.464-5,4.464a81.556,81.556,0,0,1-21.619-2.329c1.85-2.176,3.9-4.735,5.783-7.393-8.919-2.322-17.851-6.2-28.565-10.8-13.6-5.848-34.12-20.515-43.9-26.043-7.455-4.213-20.214-11.388-25.866-14.565l.606-1.017c5.553,3.121,18.51,10.405,26.046,14.665,9.78,5.528,30.3,20.2,43.9,26.043,10.663,4.582,19.561,8.447,28.437,10.772,1.029-1.508,1.99-3.038,2.811-4.536-7.272-1.862-13.511-4.321-19.72-6.526-11.372-4.038-32.528-17.114-44.538-24.342-9.613-5.786-27.386-16.738-34.111-20.886.221-.385.435-.765.647-1.141,6.6,4.073,24.576,15.156,34.266,20.985,12.01,7.228,33.163,20.3,44.538,24.342,6.143,2.182,12.317,4.614,19.5,6.47,1.5-2.96,2.363-5.748,2.055-7.956-1.275-9.14-11.9-17.646-18.283-39.33s-3.4-18.069,4.041-3.4,11.9,25.511,18.069,30.4,8.08-4.679,8.506-12.33-.637-7.443-7.654-16.8-22.322-26.786-29.553-47.2-10.841-36.141-10.841-40.179.637-5.316,6.591,14.03,17.22,43.157,26.571,55.061,18.712,14.245,10.206,0-15.519-28.912-8.929-19.984,14.242,15.734,11.055,6.376c-5.164-15.153-8.351-27.946-14.369-43.154-4.8-12.137-12.15-29.192-17.578-39.747-5.015-9.759-11.232-21.868-15-29.214.162-.358.32-.706.482-1.051,3.74,7.287,10.122,19.729,15.255,29.712,5.661,11.015,12.672,25.888,18.28,39.365,3.333,8.012,6.019,16.421,9.5,24.274,3.2,7.216,5.232,8.717,5.232.152,0-11.9-.849-20.41,1.278-30.4s6.27-18.392,3.933,4.782-.958,32.422-.535,44.115S856.6,395.468,860,399.612s5.848,5.316,3.084,10.633-5.316,9.46-2.126,14.985.743,9.569-.532,14.991.532,8.608,1.384,23.917-.426,51.66-1.489,68.243c-.516,8.015-2.518,18.3-4.449,26.808-.056-13.334.684-29.161.839-45.337.211-21.9-.159-59.37-.159-61.018C856.549,449.9,856.023,451.129,855.442,452.631Z" transform="translate(-728.268 -178.886)"/>
      <path id="Tracé_14" data-name="Tracé 14" class="cls-3" d="M869.111,281.67c-12.491-1.275-33.8-6.168-42.731-10.527-11.03-5.381-23.18-12.815-27.529-24.877-4.356-12.081,6.653-11.7,15.809-10.651,4.623.532,10.15.743,18.92,1.753s23.441,1.912,30.989,2.074c11.052.23,23.018.23,34.07,0,7.548-.162,22.216-1.063,30.989-2.074s14.295-1.222,18.918-1.753c9.159-1.054,20.167-1.43,15.809,10.651-4.346,12.062-16.5,19.5-27.526,24.877-8.929,4.359-30.24,9.252-42.735,10.527A106.936,106.936,0,0,1,869.111,281.67Z" transform="translate(-587.603 -233.626)"/>
      <path id="Tracé_15" data-name="Tracé 15" class="cls-2" d="M864.913,268.2c-12.491-1.275-33.8-6.168-42.731-10.527-7.98-3.892-16.549-8.863-22.322-15.88a41.284,41.284,0,0,1,10.6.215c4.623.532,10.15.743,18.92,1.753s23.441,1.915,30.989,2.074c11.052.233,23.018.233,34.07,0,7.548-.159,22.216-1.063,30.989-2.074s14.295-1.222,18.918-1.753a41.282,41.282,0,0,1,10.6-.215c-5.773,7.017-14.338,11.988-22.318,15.88-8.929,4.359-30.24,9.252-42.735,10.527A106.936,106.936,0,0,1,864.913,268.2Z" transform="translate(-583.405 -220.152)"/>
      <path id="Tracé_16" data-name="Tracé 16" class="cls-4" d="M881.316,457.995c-12.541-.423-41.668-3.3-60.592-6.059-14.326-2.092-42.511-6.348-55.357-8.291l.177-1.259c13.02,1.971,40.785,6.162,54.968,8.232,18.924,2.764,48.048,5.636,60.592,6.062,48.679,1.648,92.921,1.648,141.6,0,12.544-.426,41.671-3.3,60.589-6.062,14.183-2.071,41.951-6.261,54.971-8.232l.177,1.259c-12.849,1.943-41.034,6.2-55.357,8.291-18.924,2.764-48.048,5.636-60.592,6.059-48.533,1.648-92.645,1.648-141.177,0Zm114.864,7.188c35.824-.849,67.394-5.313,85.572-7.76,14.1-1.893,44.556-6.159,57.52-7.977l-.168-1.169c-13.063,1.828-43.316,6.062-57.352,7.949-18.178,2.444-49.748,6.911-85.572,7.76-29.646.7-58.9.7-88.55,0-35.824-.849-67.394-5.316-85.572-7.76-14.037-1.887-44.289-6.121-57.353-7.949l-.171,1.169c12.967,1.819,43.425,6.084,57.524,7.977,18.177,2.447,49.748,6.911,85.572,7.76C937.276,465.888,966.533,465.888,996.179,465.182Z" transform="translate(-657.903 203.437)"/>
      <path id="Tracé_17" data-name="Tracé 17" class="cls-1" d="M772.65,375.926c-2.633-7.533-6.9-19.81-10.648-31.07-5.954-17.857-8.506-19.773-11.481-37.418s-1.7-29.976.211-16.583,7.228,27.426,10.844,38.056,8.929,24.237,12.967,39.33C778.29,382.233,779.061,394.237,772.65,375.926Z" transform="translate(-691.183 -128.061)"/>
      <path id="Tracé_18" data-name="Tracé 18" class="cls-1" d="M763.142,279.733c10.862,35.724,16.993,43.3,13.328-.709-.211-2.546-.566-11.982-3.022-2.338-1.5,5.885-2.692,9.5-5.624,3.084C760.91,264.642,759.436,267.546,763.142,279.733Z" transform="translate(-665.008 -161.198)"/>
      <path id="Tracé_19" data-name="Tracé 19" class="cls-2" d="M884.455,452.631c.594,1.539,1.657,4.324,2.033,5.521.532,1.7,1.381,5.848,3.081,9.249s1.383,4.464,5,4.464a81.555,81.555,0,0,0,21.619-2.329c-1.849-2.176-3.9-4.735-5.783-7.393,8.92-2.322,17.851-6.2,28.561-10.8,13.608-5.848,34.123-20.515,43.9-26.043,7.452-4.213,20.214-11.388,25.866-14.565l-.606-1.017c-5.553,3.121-18.513,10.405-26.046,14.665-9.781,5.528-30.3,20.2-43.9,26.043-10.66,4.582-19.558,8.447-28.434,10.772-1.032-1.508-1.99-3.038-2.811-4.536,7.272-1.862,13.511-4.321,19.717-6.526,11.375-4.038,32.528-17.114,44.541-24.342,9.613-5.786,27.386-16.738,34.111-20.886-.221-.385-.439-.765-.647-1.141-6.6,4.073-24.579,15.156-34.263,20.985-12.016,7.228-33.168,20.3-44.541,24.342-6.146,2.182-12.32,4.614-19.5,6.47-1.5-2.96-2.363-5.748-2.058-7.956,1.275-9.14,11.907-17.646,18.286-39.33s3.4-18.069-4.042-3.4-11.9,25.511-18.069,30.4-8.08-4.679-8.506-12.33.637-7.443,7.654-16.8,22.322-26.786,29.55-47.2,10.844-36.141,10.844-40.179-.638-5.316-6.591,14.03-17.22,43.157-26.575,55.061-18.709,14.245-10.2,0,15.519-28.912,8.925-19.984-13.6,18.072-10.415,8.717,6.165-21.047,10.2-29.976c2.239-4.946,2.714-10.017,1.757-10.962,4.582-12.041,13.2-32.342,19.35-44.3,5.014-9.759,11.229-21.868,15-29.214-.159-.358-.32-.706-.479-1.051-3.74,7.287-10.123,19.729-15.255,29.712-7.654,14.888-17.773,36.831-23.556,52.842-5.527,15.308-9.46,22.856-9.46,10.949s.849-20.41-1.275-30.4-8.291-21.262-5.957,1.915,2.978,35.289,2.552,46.981-4.729,22.378-8.13,26.522-5.848,5.316-3.084,10.633,5.313,9.46,2.127,14.985-.743,9.569.531,14.991-.531,8.608-1.38,23.917.423,51.66,1.486,68.243c.513,8.015,2.518,18.3,4.449,26.808.053-13.334-.684-29.161-.839-45.337-.214-21.9.159-59.37.159-61.018C883.351,449.9,883.877,451.129,884.455,452.631Z" transform="translate(-423.63 -178.886)"/>
      <path id="Tracé_20" data-name="Tracé 20" class="cls-1" d="M896.4,375.926c2.636-7.533,6.9-19.81,10.651-31.07C913,327,915.554,325.083,918.529,307.437s1.7-29.976-.214-16.583-7.228,27.426-10.841,38.056-8.929,24.237-12.967,39.33C890.761,382.233,889.993,394.237,896.4,375.926Z" transform="translate(-389.865 -128.061)"/>
      <path id="Tracé_21" data-name="Tracé 21" class="cls-1" d="M897.569,279.733c-10.863,35.724-16.993,43.3-13.328-.709.211-2.546.566-11.982,3.019-2.338,1.5,5.885,2.7,9.5,5.627,3.084C899.8,264.642,901.274,267.546,897.569,279.733Z" transform="translate(-407.701 -161.198)"/>
      <path id="Tracé_22" data-name="Tracé 22" class="cls-3" d="M780.19,371.09c-.594,1.539-1.657,4.324-2.03,5.521-.532,1.7-1.38,5.848-3.081,9.249s-1.383,4.461-4.98,4.464a82.722,82.722,0,0,0,3.2-7.8c2.236-6.379,2.127-7.443,3.827-12.118s2.975-14.139,2.975-18.924a108.4,108.4,0,0,0-1.041-13.6c-.927-6.187-1.993-5.916-5.86-10-1.812-1.912-3.923-4.287-5.1-5.745-4.147-5.1,2.975-.535,8.077,3.3s6.432,1.327,2.285-6.644a90.826,90.826,0,0,1-5.8-12.756c-2.444-5.954-2.018-9.513,1.809-2.074,5.381,10.461,4.023,7.943,10.418,15.576,1.648,1.965,3.454,3.187,1.7,8.929s-3.4,7.651-.852,14.242,1.116,6.964.532,10.312c-1.281,7.343-1.253,12.236-1.738,19.253a140.849,140.849,0,0,1-3.087,20.363c-.065-11.562-.149-20.55-.149-21.339C781.3,368.364,780.771,369.589,780.19,371.09Z" transform="translate(-653.016 -97.345)"/>
      <path id="Tracé_23" data-name="Tracé 23" class="cls-3" d="M883.292,371.09c.594,1.539,1.657,4.324,2.033,5.521.532,1.7,1.38,5.848,3.081,9.249s1.383,4.461,4.98,4.464a81.977,81.977,0,0,1-3.2-7.8c-2.235-6.379-2.126-7.443-3.827-12.118s-2.975-14.139-2.975-18.924a108.372,108.372,0,0,1,1.042-13.6c.926-6.187,1.993-5.916,5.857-10,1.813-1.912,3.927-4.287,5.108-5.745,4.147-5.1-2.975-.535-8.077,3.3s-6.429,1.327-2.285-6.644,3.348-6.805,5.792-12.756,2.021-9.513-1.806-2.074c-5.382,10.461-4.026,7.943-10.418,15.576-1.648,1.965-3.457,3.187-1.7,8.929s3.4,7.651.849,14.242-1.113,6.964-.529,10.312c1.281,7.343,1.253,12.236,1.738,19.253a139.99,139.99,0,0,0,3.087,20.363c.065-11.562.149-20.55.149-21.339C882.188,368.364,882.714,369.589,883.292,371.09Z" transform="translate(-422.467 -97.345)"/>
    </g>
    <g id="Groupe_23" data-name="Groupe 23" transform="translate(438.397 464.319)">
      <g id="Groupe_25" data-name="Groupe 25">
        <g id="Groupe_19" data-name="Groupe 19">
          <path id="Tracé_192" data-name="Tracé 192" class="cls-5" d="M4286.15,1414.726a13.355,13.355,0,0,0,1.3-5.789c0-6.736-4.875-12.218-10.865-12.218s-10.864,5.481-10.864,12.218,4.875,12.218,10.864,12.218a10.472,10.472,0,0,0,8.55-4.693Zm-9.522,3.354c-4.577,0-8.289-4.164-8.289-9.3s3.711-9.3,8.289-9.3,8.287,4.164,8.287,9.3S4281.2,1418.079,4276.628,1418.079Z" transform="translate(-4262.813 -1393.8)"/>
          <path id="Tracé_193" data-name="Tracé 193" class="cls-5" d="M4248.942,1367.428c0-8.32-6.137-15.064-13.709-15.064s-13.708,6.745-13.708,15.064,6.135,15.065,13.708,15.065c.408,0,.809-.024,1.208-.062l0,0-8.626,14.71h3.132l.644-1.108a1.913,1.913,0,0,1,.984-3.553,1.9,1.9,0,0,1,.944.25l9.113-15.621a10.566,10.566,0,0,1-7.331,3.037c-6.227,0-11.294-5.674-11.294-12.648s5.067-12.648,11.294-12.648,11.3,5.674,11.3,12.648a13.777,13.777,0,0,1-1.336,5.959l0,0-.021.035c-.3.618-1.258,2.148-1.258,2.148l-10.132,17.331a1.912,1.912,0,0,1-1.891,3.232l-.548.936h2.979l11.837-20.717a15.64,15.64,0,0,0,1.153-2.013l.013-.03,0,0A16.2,16.2,0,0,0,4248.942,1367.428Z" transform="translate(-4221.525 -1352.364)"/>
        </g>
        <g id="Groupe_20" data-name="Groupe 20" transform="translate(9.321 40.305)">
          <path id="Tracé_194" data-name="Tracé 194" class="cls-5" d="M4397.032,1984.6c-.054,0-.106,0-.155.007s-.1.011-.155.02v.866c.052.009.1.016.155.02s.1.007.155.007c.2,0,.307-.109.307-.329v-.263C4397.338,1984.707,4397.235,1984.6,4397.032,1984.6Z" transform="translate(-4394.51 -1983.288)"/>
          <path id="Tracé_195" data-name="Tracé 195" class="cls-5" d="M4364.846,1964.692a1.727,1.727,0,1,0,1.728,1.727A1.727,1.727,0,0,0,4364.846,1964.692Zm-.707,2.492a1.9,1.9,0,0,1-.628-.086l.08-.253a1.807,1.807,0,0,0,.243.051c.09.013.191.021.305.026.276,0,.417-.088.417-.263,0-.132-.114-.219-.341-.262-.442-.044-.664-.219-.664-.526,0-.35.248-.526.742-.526a1.367,1.367,0,0,1,.495.08l-.07.243a1.4,1.4,0,0,0-.424-.061c-.29,0-.434.088-.434.263,0,.131.119.219.355.263.433.044.647.219.647.525Q4364.863,1967.185,4364.139,1967.184Zm1.5,0a1.213,1.213,0,0,1-.309-.039v.564l-.309.066v-1.97a1.859,1.859,0,0,1,.617-.066q.618,0,.618.59v.263Q4366.257,1967.184,4365.639,1967.184Z" transform="translate(-4363.118 -1964.692)"/>
        </g>
      </g>
    </g>
    <g id="Composant_3_13" data-name="Composant 3 – 13" transform="translate(433.696 398.867)">
      <path id="Tracé_165" data-name="Tracé 165" class="cls-5" d="M367.64,59.135c-1.58-.973-12.29-1.811-16.879-1.811s-15.3.838-16.88,1.811a3.353,3.353,0,0,0-1.959,3.465V87.172a16.277,16.277,0,0,0,.511,3.069c.762,2.287,4.653,7.1,10.362,11.5,5.733,4.425,7,4.785,7.966,4.785s2.233-.36,7.965-4.785c5.709-4.408,9.6-9.217,10.362-11.5a16.381,16.381,0,0,0,.51-3.07V62.6A3.353,3.353,0,0,0,367.64,59.135Z" transform="translate(-331.922 -57.324)"/>
      <g id="Groupe_12" data-name="Groupe 12" transform="translate(0.741 9.318)">
        <path id="Tracé_166" data-name="Tracé 166" class="cls-6" d="M406.684,129.711v8.768a15.136,15.136,0,0,1,4.523,1.74v-9.838A24.628,24.628,0,0,0,406.684,129.711Z" transform="translate(-391.604 -123.71)"/>
        <path id="Tracé_167" data-name="Tracé 167" class="cls-7" d="M430.793,101.357a61.194,61.194,0,0,0-8.833.312,13.589,13.589,0,0,1,4.014,1.322l-1.01,3.455c.392-.047,1.44-.092,1.826-.125q1.393-.122,2.842-.122,5.683,0,5.684,6.052v4.842q0,6.052-5.684,6.051c-.678,0-1.343-.027-2-.066a9.785,9.785,0,0,1,.37,2.727,11.89,11.89,0,0,1-.167,1.981,22.453,22.453,0,0,0,2.961.2q5.388,0,8.221-2.449a5.812,5.812,0,0,0,.357-.818,15.819,15.819,0,0,0,.472-2.835V104.64Q437.028,101.36,430.793,101.357Z" transform="translate(-403.648 -101.355)"/>
        <path id="Tracé_168" data-name="Tracé 168" class="cls-6" d="M404.621,257.251c2.125,1.434,2.91,1.653,3.455,1.653a4.463,4.463,0,0,0,2.229-.869v-6.5a12.021,12.021,0,0,1-5.684,2.4Z" transform="translate(-389.978 -219.755)"/>
        <path id="Tracé_169" data-name="Tracé 169" class="cls-8" d="M353.978,119.312a15.135,15.135,0,0,0-4.523-1.74,27.242,27.242,0,0,0-3.363-.547q-6.537-1.21-6.535-4.842,0-4.842,7.956-4.842c.666,0,1.311.022,1.942.059a24.652,24.652,0,0,1,4.523.67c.462.116,1.055.295,1.491.438l.323-1.106.984-3.372a21.565,21.565,0,0,0-4.787-1.231,31.913,31.913,0,0,0-4.476-.3q-9.045,0-12.09,4.26V117.3q2.8,3.8,10.669,4.564a14.375,14.375,0,0,1,3.363,1.015q2.887,1.344,2.89,3.826a4.134,4.134,0,0,1-2.89,4.114,13.147,13.147,0,0,1-4.784.727q-2.643-.1-4.837-.378a51.186,51.186,0,0,0,5.667,5.208,25.914,25.914,0,0,0,3.954-.379,12.022,12.022,0,0,0,5.684-2.4,7.871,7.871,0,0,0,2.722-4.912,11.871,11.871,0,0,0,.167-1.981,9.785,9.785,0,0,0-.37-2.727A7.951,7.951,0,0,0,353.978,119.312Z" transform="translate(-335.423 -102.256)"/>
      </g>
      <g id="Groupe_13" data-name="Groupe 13" transform="translate(12.907 2.247)">
        <path id="Tracé_170" data-name="Tracé 170" class="cls-8" d="M394.237,69.17a.18.18,0,0,1-.042.056.1.1,0,0,1-.058.02.148.148,0,0,1-.077-.019c-.028-.015-.061-.03-.1-.047a.923.923,0,0,0-.127-.045.494.494,0,0,0-.165-.014.36.36,0,0,0-.242.089.247.247,0,0,0-.07.2.181.181,0,0,0,.053.123.392.392,0,0,0,.124.079,1.106,1.106,0,0,0,.171.054q.1.023.2.05a1.705,1.705,0,0,1,.2.068.672.672,0,0,1,.175.1.53.53,0,0,1,.13.163.6.6,0,0,1,.061.242.791.791,0,0,1-.035.3.7.7,0,0,1-.142.249.726.726,0,0,1-.244.177.941.941,0,0,1-.339.081,1.1,1.1,0,0,1-.219-.008,1.27,1.27,0,0,1-.213-.048,1.145,1.145,0,0,1-.2-.083.837.837,0,0,1-.163-.113l.125-.234a.145.145,0,0,1,.043-.045.117.117,0,0,1,.059-.02.162.162,0,0,1,.092.026l.114.063a.885.885,0,0,0,.148.06.543.543,0,0,0,.2.019.391.391,0,0,0,.252-.093.279.279,0,0,0,.077-.232.213.213,0,0,0-.054-.138.362.362,0,0,0-.124-.083.927.927,0,0,0-.17-.052c-.063-.013-.129-.028-.2-.045a1.586,1.586,0,0,1-.2-.064.6.6,0,0,1-.174-.106.555.555,0,0,1-.129-.173.694.694,0,0,1-.063-.265.639.639,0,0,1,.035-.252.63.63,0,0,1,.135-.223.748.748,0,0,1,.232-.166.888.888,0,0,1,.325-.078,1.114,1.114,0,0,1,.388.039.862.862,0,0,1,.31.159Z" transform="translate(-392.914 -68.569)"/>
        <path id="Tracé_171" data-name="Tracé 171" class="cls-8" d="M405.1,68.469l-.672.029.081,1.917-.477.02-.082-1.917-.672.029-.016-.384,1.822-.077Z" transform="translate(-401.07 -68.055)"/>
        <path id="Tracé_172" data-name="Tracé 172" class="cls-8" d="M415.963,70.235l-.37,0a.163.163,0,0,1-.1-.029.178.178,0,0,1-.059-.075l-.16-.438-.917.009-.151.441a.182.182,0,0,1-.055.073.152.152,0,0,1-.1.034l-.373,0,.877-2.311.487,0Zm-.809-.867-.256-.7c-.015-.037-.031-.08-.048-.13s-.033-.1-.049-.161c-.014.059-.029.114-.045.165s-.031.094-.046.131l-.241.7Z" transform="translate(-409.284 -67.941)"/>
        <path id="Tracé_173" data-name="Tracé 173" class="cls-8" d="M429.646,69.225a1.24,1.24,0,0,1-.1.461,1.058,1.058,0,0,1-.253.355,1.088,1.088,0,0,1-.38.224,1.3,1.3,0,0,1-.485.068l-.885-.032.085-2.3.885.032a1.307,1.307,0,0,1,.479.1,1.088,1.088,0,0,1,.363.252,1.065,1.065,0,0,1,.226.373A1.222,1.222,0,0,1,429.646,69.225Zm-.488-.018a1.042,1.042,0,0,0-.036-.327.686.686,0,0,0-.128-.249.592.592,0,0,0-.211-.162.732.732,0,0,0-.287-.065l-.406-.015-.057,1.556.406.015a.749.749,0,0,0,.291-.042.582.582,0,0,0,.222-.146.693.693,0,0,0,.146-.24A1.053,1.053,0,0,0,429.157,69.208Z" transform="translate(-420.213 -67.988)"/>
        <path id="Tracé_174" data-name="Tracé 174" class="cls-8" d="M441.979,69.012l-.037.591.767.048-.022.36-.767-.048-.038.6.985.062-.023.372-1.464-.091.144-2.3,1.464.091-.023.372Z" transform="translate(-431.124 -68.468)"/>
      </g>
      <g id="Groupe_14" data-name="Groupe 14" transform="translate(4.58 5.402)">
        <path id="Tracé_175" data-name="Tracé 175" class="cls-8" d="M354.329,87.96a1.339,1.339,0,0,1,.412-.015.778.778,0,0,1,.305.1.609.609,0,0,1,.2.2.814.814,0,0,1,.1.283.837.837,0,0,1,0,.316.633.633,0,0,1-.124.268.779.779,0,0,1-.253.2,1.287,1.287,0,0,1-.386.124l-.3.051.135.78-.469.081-.392-2.269Zm.2,1.129a.436.436,0,0,0,.3-.162.408.408,0,0,0,.052-.309.449.449,0,0,0-.052-.15.312.312,0,0,0-.1-.105.356.356,0,0,0-.145-.053.609.609,0,0,0-.194.006l-.3.051.134.773Z" transform="translate(-353.563 -86.86)"/>
        <path id="Tracé_176" data-name="Tracé 176" class="cls-8" d="M367.364,87.148a1.274,1.274,0,0,1-.03.475,1.1,1.1,0,0,1-.2.4,1.109,1.109,0,0,1-.341.288,1.344,1.344,0,0,1-.958.112,1.118,1.118,0,0,1-.4-.2,1.09,1.09,0,0,1-.282-.343,1.33,1.33,0,0,1-.109-.929,1.1,1.1,0,0,1,.2-.4,1.117,1.117,0,0,1,.342-.288,1.343,1.343,0,0,1,.958-.112,1.087,1.087,0,0,1,.68.546A1.261,1.261,0,0,1,367.364,87.148Zm-.484.056a1.018,1.018,0,0,0-.085-.317.689.689,0,0,0-.165-.227.592.592,0,0,0-.234-.128.817.817,0,0,0-.576.067.587.587,0,0,0-.2.178.692.692,0,0,0-.108.259,1.023,1.023,0,0,0-.01.328,1.043,1.043,0,0,0,.085.318.682.682,0,0,0,.165.226.593.593,0,0,0,.234.127.816.816,0,0,0,.576-.067.592.592,0,0,0,.2-.177.68.68,0,0,0,.108-.258A1.037,1.037,0,0,0,366.88,87.2Z" transform="translate(-362.588 -85.418)"/>
        <path id="Tracé_177" data-name="Tracé 177" class="cls-8" d="M381.958,84.4l.2,2.294-.245.021a.218.218,0,0,1-.095-.01.228.228,0,0,1-.08-.056l-1.269-1.356c.006.037.012.073.017.109s.008.069.011.1l.115,1.327-.419.036-.2-2.294.25-.022.052,0a.114.114,0,0,1,.04.008.157.157,0,0,1,.035.02.327.327,0,0,1,.038.035l1.278,1.362c-.008-.04-.014-.078-.019-.116s-.01-.073-.013-.106l-.113-1.312Z" transform="translate(-374.4 -84.069)"/>
        <path id="Tracé_178" data-name="Tracé 178" class="cls-8" d="M395.5,83.911l-.672.042.121,1.915-.477.03-.121-1.915-.672.042-.024-.383,1.82-.115Z" transform="translate(-385.169 -83.385)"/>
        <path id="Tracé_179" data-name="Tracé 179" class="cls-8" d="M407.318,85.521l-.479.021-.1-2.3.479-.021Z" transform="translate(-395.487 -83.142)"/>
        <path id="Tracé_180" data-name="Tracé 180" class="cls-8" d="M414.939,83.31a.182.182,0,0,1-.044.054.1.1,0,0,1-.059.018.145.145,0,0,1-.076-.023q-.041-.024-.1-.052a.92.92,0,0,0-.125-.051.491.491,0,0,0-.164-.022.361.361,0,0,0-.246.078.246.246,0,0,0-.079.194.181.181,0,0,0,.047.125.4.4,0,0,0,.121.084,1.1,1.1,0,0,0,.169.062q.094.027.193.059a1.671,1.671,0,0,1,.194.077.675.675,0,0,1,.169.113.532.532,0,0,1,.122.168.6.6,0,0,1,.05.245.789.789,0,0,1-.05.3.7.7,0,0,1-.154.242.73.73,0,0,1-.252.165.944.944,0,0,1-.342.065,1.088,1.088,0,0,1-.219-.019,1.267,1.267,0,0,1-.211-.058,1.167,1.167,0,0,1-.191-.092.835.835,0,0,1-.158-.121l.136-.228a.142.142,0,0,1,.045-.043.116.116,0,0,1,.06-.018.165.165,0,0,1,.091.03q.048.031.111.068a.907.907,0,0,0,.145.067.541.541,0,0,0,.2.028.391.391,0,0,0,.256-.081.278.278,0,0,0,.087-.228.212.212,0,0,0-.048-.14.361.361,0,0,0-.12-.088.944.944,0,0,0-.168-.06q-.094-.024-.193-.055a1.586,1.586,0,0,1-.193-.073.587.587,0,0,1-.169-.114.556.556,0,0,1-.121-.179.692.692,0,0,1-.05-.267.638.638,0,0,1,.192-.467.749.749,0,0,1,.24-.155.883.883,0,0,1,.328-.063,1.111,1.111,0,0,1,.386.058.863.863,0,0,1,.3.173Z" transform="translate(-400.846 -82.853)"/>
        <path id="Tracé_181" data-name="Tracé 181" class="cls-8" d="M425.4,83.4a.183.183,0,0,1-.047.052.1.1,0,0,1-.06.015.146.146,0,0,1-.075-.026q-.04-.026-.093-.056a.913.913,0,0,0-.123-.056.488.488,0,0,0-.163-.029.363.363,0,0,0-.249.067.246.246,0,0,0-.087.191.18.18,0,0,0,.042.127.394.394,0,0,0,.117.089,1.1,1.1,0,0,0,.166.069c.062.021.125.043.19.067a1.736,1.736,0,0,1,.19.085.685.685,0,0,1,.165.12.532.532,0,0,1,.115.174.6.6,0,0,1,.039.246.791.791,0,0,1-.062.293.7.7,0,0,1-.164.236.729.729,0,0,1-.259.154.943.943,0,0,1-.345.05,1.1,1.1,0,0,1-.218-.028,1.267,1.267,0,0,1-.208-.067,1.182,1.182,0,0,1-.187-.1.841.841,0,0,1-.152-.128l.145-.222a.14.14,0,0,1,.047-.041.117.117,0,0,1,.061-.015.165.165,0,0,1,.09.034c.031.022.067.046.108.073a.887.887,0,0,0,.142.073.541.541,0,0,0,.2.037.391.391,0,0,0,.26-.07.279.279,0,0,0,.1-.225.211.211,0,0,0-.042-.142.36.36,0,0,0-.116-.094.93.93,0,0,0-.165-.067c-.062-.019-.125-.04-.19-.063a1.589,1.589,0,0,1-.19-.081.594.594,0,0,1-.164-.122.554.554,0,0,1-.113-.184.7.7,0,0,1-.039-.269.64.64,0,0,1,.212-.458.748.748,0,0,1,.246-.145.887.887,0,0,1,.331-.049,1.118,1.118,0,0,1,.383.074.863.863,0,0,1,.295.186Z" transform="translate(-409.038 -82.904)"/>
        <path id="Tracé_182" data-name="Tracé 182" class="cls-8" d="M436.359,85.842l-.369-.02a.161.161,0,0,1-.1-.035.178.178,0,0,1-.054-.079l-.131-.447-.916-.05-.179.43a.18.18,0,0,1-.059.069.153.153,0,0,1-.1.027l-.372-.02,1.024-2.251.486.026Zm-.751-.917-.21-.717c-.013-.038-.026-.082-.039-.132s-.026-.105-.038-.164q-.027.088-.056.161c-.019.049-.037.092-.054.128l-.285.687Z" transform="translate(-417.039 -83.337)"/>
        <path id="Tracé_183" data-name="Tracé 183" class="cls-8" d="M450.061,86.135l-.03.386-1.362-.1.176-2.3.475.036-.146,1.91Z" transform="translate(-428.543 -83.853)"/>
        <path id="Tracé_184" data-name="Tracé 184" class="cls-8" d="M459.957,87.356l-.477-.044.213-2.293.477.044Z" transform="translate(-437.067 -84.561)"/>
        <path id="Tracé_185" data-name="Tracé 185" class="cls-8" d="M467.591,86.183l-.067.588.764.086-.041.358-.763-.087-.068.6.981.111-.042.371-1.457-.165.259-2.288,1.457.165-.042.371Z" transform="translate(-442.914 -85.143)"/>
        <path id="Tracé_186" data-name="Tracé 186" class="cls-8" d="M479.716,87.345l-.363,2.274-.243-.039a.212.212,0,0,1-.089-.033.225.225,0,0,1-.064-.074l-.9-1.623c0,.037-.006.074-.01.109s-.009.069-.013.1l-.21,1.315-.415-.066.363-2.274.248.04.051.011a.116.116,0,0,1,.036.017.153.153,0,0,1,.029.028.318.318,0,0,1,.029.043l.91,1.63c0-.04.005-.079.009-.117s.009-.073.014-.106l.208-1.3Z" transform="translate(-451.198 -86.149)"/>
      </g>
    </g>
    <g id="Groupe_48" data-name="Groupe 48" transform="translate(242.834 417.863)">
      <path id="Tracé_423" data-name="Tracé 423" class="cls-5" d="M33.784,28.951c-4.79,2.027-12.3,4.354-15.442-.683-1.74-2.789-.633-7.135,1.933-11.081A58.136,58.136,0,0,1,26.147,10C24.964,11.907,21.675,18.25,26,21.41c1.662,1.221,4.629,1.349,8.322.391l43.92-11.613Z" transform="translate(-17.499 -9.999)"/>
    </g>
  </g>
</svg>
